<svg width="70" height="70" viewBox="0 0 70 70" fill="none" xmlns="http://www.w3.org/2000/svg">
<g id="astronaut-dog-svgrepo-com" clip-path="url(#clip0_14_739)">
<g id="Group">
<path id="Vector" d="M50.3384 38.5535C50.3384 39.8564 50.22 44.0018 49.2724 46.726L49.3908 47.0814C45.6006 48.7396 40.6259 50.2793 35.0592 50.2793C29.4923 50.2793 24.5177 48.7396 20.7276 47.0814L20.846 46.8444C19.6616 43.8834 19.6616 39.7378 19.6616 38.4349C19.6616 35.1186 20.017 31.9206 20.6092 28.841C21.6752 23.6295 23.6888 18.8918 26.6498 15.9307C28.9002 13.6804 31.6244 12.3774 35.0593 12.3774C38.4942 12.3774 41.2183 13.6804 43.4689 15.9307C46.5484 19.0103 48.5619 23.748 49.6279 29.0779C50.1015 32.1575 50.3384 35.3555 50.3384 38.5535Z" fill="#FFD0A1"/>
<path id="Vector_2" d="M49.2725 46.7262C50.3385 43.8836 50.3385 39.8566 50.3385 38.5536C50.3385 35.3557 50.1015 32.1577 49.5094 29.1966C51.9967 30.8549 54.3656 30.2626 54.3656 30.2626C55.55 30.2626 56.2607 28.1307 56.2607 25.525C56.2607 24.222 54.6024 19.9581 53.8918 18.4184C51.5229 13.6805 47.9696 12.4961 45.6007 12.4961C43.2317 12.4961 43.3503 16.0494 43.3503 16.0494C41.0999 13.7991 38.3757 12.4961 34.9408 12.4961C31.5059 12.4961 28.7817 13.7991 26.5312 16.0494C26.5312 16.0494 26.6496 12.4961 24.2809 12.4961C21.9119 12.4961 18.3586 13.6805 15.9899 18.4184C15.2792 19.9581 13.621 24.222 13.621 25.525C13.621 28.1307 14.3316 30.2626 15.516 30.2626C15.516 30.2626 17.5296 31.2102 20.2537 28.9597H20.3721C19.7798 32.0393 19.4245 35.2373 19.4245 38.5536C19.4245 39.8566 19.4245 44.002 20.6089 46.9631L20.4905 47.2001C16.2265 45.305 13.5023 43.2915 13.5023 43.2915C13.5023 43.2915 9.47526 40.2119 5.56663 35.1189C5.32969 33.5791 5.2113 31.9209 5.2113 30.2626C5.2113 13.9175 18.4769 0.651855 34.8221 0.651855C51.1673 0.651855 64.4329 13.9175 64.4329 30.2626C64.4329 31.9209 64.3145 33.579 64.0775 35.1189H63.9594C60.8798 40.2119 56.1422 43.2915 56.1422 43.2915C56.1422 43.2915 53.4179 45.305 49.1539 47.2001L49.2725 46.7262ZM34.9408 66.98V69.3489H0.592285C0.592285 63.4267 7.69888 59.8734 7.69888 59.8734C7.69888 59.8734 9.83086 59.2812 12.4366 59.2812C18.5956 64.1374 26.4128 66.98 34.9408 66.98ZM69.2894 69.3489H34.9408V66.98C43.4687 66.98 51.2859 64.1374 57.4449 59.2812C60.8798 59.2812 62.1826 59.8734 62.1826 59.8734C62.1826 59.8734 69.2894 63.4267 69.2894 69.3489Z" fill="#ECF4F7"/>
<path id="Vector_3" d="M39.6785 26.709C40.3891 26.709 40.8628 27.3012 40.8628 27.8934C40.8628 28.4855 40.3891 29.0778 39.6785 29.0778C38.9678 29.0778 38.4941 28.4855 38.4941 27.8934C38.4941 27.3012 38.9678 26.709 39.6785 26.709ZM30.2029 26.709C30.9136 26.709 31.3873 27.3012 31.3873 27.8934C31.3873 28.4855 30.9136 29.0778 30.2029 29.0778C29.4923 29.0778 29.0186 28.4855 29.0186 27.8934C29.0186 27.3012 29.4923 26.709 30.2029 26.709Z" fill="#FFE079"/>
<path id="Vector_4" d="M26.5315 16.049C23.4519 19.0101 21.5569 23.7479 20.4909 28.9593H20.3725C17.6482 31.2097 15.6348 30.2622 15.6348 30.2622C14.4504 30.2622 13.7397 28.1303 13.7397 25.5246C13.7397 24.2216 15.398 19.9577 16.1087 18.418C18.4776 13.6803 22.0309 12.4957 24.3996 12.4957C26.7684 12.4957 26.5315 16.049 26.5315 16.049ZM56.2607 25.5244C56.2607 28.1301 55.55 30.2621 54.3656 30.2621C54.3656 30.2621 51.9967 30.8544 49.5094 29.1961C48.4434 23.8662 46.4298 19.1285 43.3504 16.0489C43.3504 16.0489 43.232 12.4956 45.6008 12.4956C47.9697 12.4956 51.523 13.68 53.8918 18.4178C54.6025 19.9577 56.2607 24.2216 56.2607 25.5244Z" fill="#FFD0A1"/>
<g id="Group_2">
<path id="Vector_5" d="M57.445 49.4502V59.281C51.1675 64.1371 43.4686 66.9798 34.9407 66.9798C26.4128 66.9798 18.5955 64.1371 12.4365 59.2809V49.5686C17.8849 55.9645 25.9391 59.9916 34.9407 59.9916C43.9423 59.9916 51.9965 55.8461 57.445 49.4502Z" fill="#AAB1BA"/>
<path id="Vector_6" d="M64.1961 35.1184C63.2485 40.5667 60.8797 45.5414 57.4448 49.45C51.9965 55.8459 43.9423 59.873 34.9406 59.873C25.939 59.873 17.8847 55.8461 12.4363 49.4501C9.00142 45.4231 6.63265 40.4485 5.68506 35C9.59369 40.2116 13.6207 43.1726 13.6207 43.1726C13.6207 43.1726 16.345 45.1862 20.6089 47.0812C24.3991 48.7395 29.3738 50.2792 34.9405 50.2792C40.5074 50.2792 45.482 48.7395 49.2721 47.0812C53.5361 45.1862 56.2603 43.1726 56.2603 43.1726C56.2603 43.1726 60.9981 40.2116 64.1961 35.1184Z" fill="#AAB1BA"/>
</g>
<path id="Vector_7" d="M34.9405 36.1846C36.9541 36.1846 38.4938 37.2506 38.4938 38.5535C38.4938 39.8564 36.9541 40.9224 34.9405 40.9224C32.9269 40.9224 31.3872 39.8564 31.3872 38.5535C31.3872 37.2506 32.9271 36.1846 34.9405 36.1846Z" fill="#AE938D"/>
<path id="Vector_8" d="M7.69876 3.02028C7.69876 4.3232 6.63277 5.38919 5.32985 5.38919C4.02693 5.38919 2.96094 4.3232 2.96094 3.02028C2.96094 1.71736 4.02693 0.651367 5.32985 0.651367C6.63277 0.651367 7.69876 1.71736 7.69876 3.02028Z" fill="#80D6FA"/>
</g>
<path id="Vector_9" d="M69.2893 69.9406C68.934 69.9406 68.6971 69.7036 68.6971 69.3483C68.6971 63.8999 61.9458 60.465 61.9458 60.3466C61.7089 60.2282 61.5905 59.8729 61.7089 59.5176C61.8273 59.2807 62.1826 59.1623 62.5379 59.2807C62.8933 59.399 69.9999 63.0709 69.9999 69.2299C69.8816 69.7038 69.6447 69.9406 69.2893 69.9406ZM0.592263 69.9406C0.236933 69.9406 0 69.7036 0 69.3483C0 63.1893 7.1066 59.5174 7.46193 59.3991C7.69886 59.2807 8.05419 59.3991 8.29099 59.636C8.40938 59.8729 8.29099 60.2282 8.05405 60.465C7.93566 60.465 1.30278 63.8999 1.30278 69.4667C1.18439 69.7038 0.947593 69.9406 0.592263 69.9406ZM34.9407 67.5718C26.5312 67.5718 18.714 64.8475 12.0812 59.7545C11.9628 59.6361 11.8443 59.5176 11.8443 59.2808V49.6869C7.46193 44.4753 4.73769 37.6057 4.73769 30.2621V5.86276C3.4349 5.62583 2.36891 4.44144 2.36891 3.02012C2.36891 1.36187 3.67184 0.059082 5.32995 0.059082C6.98806 0.059082 8.29099 1.36187 8.29099 3.02012C8.29099 4.44144 7.225 5.62583 5.92207 5.86276V21.8526C9.59391 9.29766 21.2014 0.059082 34.9407 0.059082C51.6412 0.059082 65.1438 13.5616 65.1438 30.2621C65.1438 37.6057 62.4195 44.4753 58.0372 49.6869V59.2808C58.0372 59.5177 57.9188 59.6361 57.8002 59.7545C51.1675 64.8475 43.3503 67.5718 34.9407 67.5718ZM13.0288 58.9253C19.4247 63.7815 26.8867 66.3873 34.9409 66.3873C42.9951 66.3873 50.4569 63.7815 56.8528 58.9253V50.9897C51.2859 56.7933 43.5872 60.4652 34.9407 60.4652C26.2943 60.4652 18.5956 56.7935 13.0287 50.9897L13.0288 58.9253ZM34.9407 1.24347C18.9509 1.24347 5.92207 14.2723 5.92207 30.2621C5.92207 46.252 18.9509 59.2808 34.9407 59.2808C43.7056 59.2808 51.5228 55.3722 56.8528 49.2132C56.8528 49.0948 56.9712 48.8578 57.2081 48.8578C61.4721 43.7648 63.9594 37.3689 63.9594 30.2623C63.9594 14.2723 50.9306 1.24347 34.9407 1.24347ZM5.32995 1.24347C4.38236 1.24347 3.5533 2.07253 3.5533 3.02012C3.5533 3.96771 4.38236 4.79677 5.32995 4.79677C6.27754 4.79677 7.1066 3.96771 7.1066 3.02012C7.1066 2.07253 6.27754 1.24347 5.32995 1.24347ZM34.9407 50.9897C22.9779 50.9897 13.6209 44.0015 13.2656 43.7647C13.0287 43.5277 12.9103 43.1724 13.1472 42.9356C13.3841 42.6987 13.7395 42.5803 13.9763 42.8172C14.0947 42.9356 23.4518 49.8054 34.9407 49.8054C46.4297 49.8054 55.7868 42.9357 55.9052 42.8172C56.1421 42.5803 56.4975 42.6988 56.7343 42.9356C56.9712 43.1725 56.8526 43.5279 56.6159 43.7647C56.2605 44.0015 46.9035 50.9897 34.9407 50.9897ZM39.6786 45.0675C37.7835 45.0675 35.8883 44.3568 34.9409 42.9355C33.9933 44.3568 32.0982 45.0675 30.2032 45.0675C29.8479 45.0675 29.6109 44.8305 29.6109 44.4752C29.6109 44.1199 29.8479 43.8829 30.2032 43.8829C31.9798 43.8829 33.9934 43.1723 34.3487 41.514C32.3352 41.2771 30.7954 40.0927 30.7954 38.553C30.7954 36.8947 32.5721 35.5919 34.941 35.5919C37.3099 35.5919 39.0866 36.8949 39.0866 38.553C39.0866 40.0927 37.5469 41.2772 35.5333 41.514C35.8886 43.1723 37.7836 43.8829 39.6788 43.8829C40.0342 43.8829 40.2711 44.1199 40.2711 44.4752C40.2707 44.8307 40.0339 45.0675 39.6786 45.0675ZM34.9407 36.7765C33.2825 36.7765 31.9797 37.6055 31.9797 38.5531C31.9797 39.5007 33.2826 40.3298 34.9407 40.3298C36.599 40.3298 37.9018 39.5007 37.9018 38.5531C37.9018 37.6055 36.599 36.7765 34.9407 36.7765ZM50.1015 42.8171C49.7462 42.8171 49.5093 42.4617 49.5093 42.1064C49.6277 41.0404 49.7462 39.856 49.7462 38.5531C49.7462 25.8796 45.1269 13.0878 34.9407 13.0878C24.7546 13.0878 20.1353 25.8796 20.1353 38.5531C20.1353 39.7375 20.2537 40.922 20.3722 41.988C20.3722 42.3433 20.1353 42.5803 19.8985 42.6987C19.5431 42.6987 19.3062 42.4617 19.1878 42.2249C19.0694 41.159 18.9509 39.856 18.9509 38.5533C18.9509 29.67 21.2013 20.7868 25.9391 15.8121C25.9391 15.2199 25.8207 14.0355 25.2284 13.4432C24.9915 13.2063 24.6362 13.0879 24.2808 13.0879C22.7411 13.0879 19.0693 13.6802 16.4636 18.6548C15.7529 20.0761 14.2132 24.3401 14.2132 25.5244C14.2132 28.2487 15.0423 29.67 15.5161 29.67C15.8715 29.67 16.1084 29.9069 16.1084 30.2623C16.1084 30.6176 15.8715 30.8545 15.5161 30.8545C13.9764 30.8545 13.0288 28.7226 13.0288 25.5246C13.0288 23.9849 14.8055 19.6024 15.5161 18.181C18.3588 12.4958 22.6227 11.9035 24.281 11.9035C24.9916 11.9035 25.5839 12.1404 26.0576 12.6142C26.6499 13.2064 26.8867 14.0355 27.0052 14.7461C29.1372 12.9695 31.8614 11.7851 34.9409 11.7851C38.0204 11.7851 40.7445 12.8511 42.8765 14.7461C42.9949 14.0355 43.2319 13.2064 43.8241 12.6142C44.2978 12.1404 44.8901 11.9035 45.6008 11.9035C47.259 11.9035 51.6414 12.4958 54.3656 18.181C55.0763 19.6024 56.8529 23.9847 56.8529 25.5246C56.8529 28.7226 55.9053 30.8545 54.3656 30.8545C54.0103 30.8545 53.7734 30.6176 53.7734 30.2623C53.7734 29.9069 54.0103 29.67 54.3656 29.67C54.9579 29.67 55.6685 28.2487 55.6685 25.5244C55.6685 24.3401 54.1288 20.1945 53.4182 18.6548C50.9309 13.5618 47.1406 13.0879 45.6009 13.0879C45.2456 13.0879 44.8902 13.2063 44.6533 13.4432C44.0611 14.0355 43.9427 15.2199 43.9427 15.8121C48.6803 20.7868 50.9309 29.67 50.9309 38.5533C50.9309 39.9746 50.8125 41.159 50.6939 42.3435C50.6938 42.5801 50.4568 42.8171 50.1015 42.8171ZM39.6786 29.6699C38.731 29.6699 37.9019 28.8408 37.9019 27.8932C37.9019 26.9456 38.731 26.1166 39.6786 26.1166C40.6261 26.1166 41.4552 26.9456 41.4552 27.8932C41.4552 28.8408 40.626 29.6699 39.6786 29.6699ZM39.6786 27.301C39.3232 27.301 39.0863 27.5379 39.0863 27.8932C39.0863 28.2485 39.3232 28.4855 39.6786 28.4855C40.0339 28.4855 40.2708 28.2485 40.2708 27.8932C40.2708 27.5379 40.0339 27.301 39.6786 27.301ZM30.203 29.6699C29.2555 29.6699 28.4264 28.8408 28.4264 27.8932C28.4264 26.9456 29.2555 26.1166 30.203 26.1166C31.1506 26.1166 31.9797 26.9456 31.9797 27.8932C31.9797 28.8408 31.1506 29.6699 30.203 29.6699ZM30.203 27.301C29.8477 27.301 29.6108 27.5379 29.6108 27.8932C29.6108 28.2485 29.8477 28.4855 30.203 28.4855C30.5584 28.4855 30.7953 28.2485 30.7953 27.8932C30.7953 27.5379 30.5584 27.301 30.203 27.301Z" fill="#51565F"/>
</g>
<defs>
<clipPath id="clip0_14_739">
<rect width="70" height="70" fill="white"/>
</clipPath>
</defs>
</svg>
