<svg width="70" height="70" viewBox="0 0 70 70" fill="none" xmlns="http://www.w3.org/2000/svg">
<g id="space-observatory-svgrepo-com">
<path id="Vector" d="M9.1656 44.7672C8.73428 39.7421 9.48337 34.6858 11.3531 30.0016C14.5687 22.4 17.4453 19.0641 20.6937 18.4516C23.1136 18.1108 25.5786 18.5678 27.7156 19.7532C28 20.0157 28.8093 20.7266 28.8093 20.7266C30.897 18.4905 33.7034 17.0583 36.739 16.6797C38.8172 16.4391 42.2078 18.1672 42.2078 18.1672C44.1304 18.2452 46.0187 18.7024 47.764 19.5125C50.1265 20.7813 50.3125 21.7766 50.3125 21.7766C50.3125 21.7766 54.6109 22.925 57.3343 28.3391C60.0578 33.7532 59.9484 45.9375 59.9484 45.9375C59.9484 45.9375 62.8687 46.1672 63.2297 46.9219C63.5906 47.6766 63.0218 56.525 62.8031 56.9407C62.5843 57.3563 51.2531 63.6454 40.7203 64.5969C30.1875 65.5485 22.8265 64.5969 15.564 61.611C8.30154 58.625 7.65623 56.6563 7.4156 55.7157C7.17498 54.775 6.56248 47.6438 6.93435 46.6703C7.41231 45.778 8.20899 45.0984 9.1656 44.7672Z" fill="#1D1D1B"/>
<path id="Vector_2" d="M7.27354 14.2736C7.15323 13.9564 9.77823 13.8251 9.81104 13.6283C9.84386 13.4314 9.98604 11.1783 10.2595 11.1017C10.5329 11.0251 10.697 10.9704 10.8392 11.1017C10.9814 11.2329 11.4298 13.2892 11.5392 13.2892C11.6485 13.2892 13.322 13.3986 13.3657 13.7048C13.4095 14.0111 12.1298 14.7986 12.1298 14.7986C12.1298 14.7986 12.6767 16.1767 12.1298 16.3736C11.5829 16.5704 10.9485 16.0564 10.8501 16.1986C10.7517 16.3408 9.60323 17.6423 9.29698 17.5001C8.99073 17.3579 9.05636 15.5861 9.01261 15.3126C8.96886 15.0392 7.39386 14.5689 7.27354 14.2736Z" fill="#1D1D1B"/>
<path id="Vector_3" d="M20.3 5.67642C21.2625 5.31548 23.1219 5.97173 22.7281 7.42642C22.604 7.74035 22.4143 8.02419 22.1718 8.25899C21.9292 8.4938 21.6394 8.67415 21.3215 8.78802C21.0037 8.90189 20.6653 8.94666 20.3288 8.91933C19.9924 8.892 19.6656 8.7932 19.3703 8.62954C18.4734 7.99517 18.725 6.26704 20.3 5.67642Z" fill="#1D1D1B"/>
<path id="Vector_4" d="M20.5733 6.49707C21.0327 6.32207 21.9186 6.63926 21.7217 7.32832C21.6685 7.48214 21.5816 7.62213 21.4673 7.73809C21.3531 7.85405 21.2144 7.94304 21.0614 7.99859C20.9084 8.05413 20.7449 8.07482 20.5829 8.05915C20.4209 8.04348 20.2644 7.99185 20.1249 7.90801C19.6874 7.65645 19.8186 6.78145 20.5733 6.49707Z" fill="#CBE7F5"/>
<path id="Vector_5" d="M29.4109 9.67961C29.6628 9.56648 29.9386 9.517 30.2141 9.53554C30.4896 9.55408 30.7563 9.64006 30.9908 9.78592C31.2252 9.93178 31.4202 10.133 31.5586 10.372C31.697 10.6109 31.7745 10.8802 31.7843 11.1562C32.0687 12.578 29.1921 13.1468 28.7328 12.2499C28.5854 12.0433 28.4854 11.8068 28.4398 11.5572C28.3942 11.3076 28.4041 11.051 28.4688 10.8057C28.5335 10.5603 28.6515 10.3322 28.8143 10.1376C28.9771 9.943 29.1808 9.78663 29.4109 9.67961Z" fill="#1D1D1B"/>
<path id="Vector_6" d="M29.7826 10.4236C30.2748 10.2267 30.767 10.4236 30.8764 11.1345C30.9858 11.8455 29.6514 12.0752 29.4326 11.6595C29.3605 11.5593 29.312 11.4441 29.2907 11.3224C29.2693 11.2008 29.2757 11.0759 29.3094 10.9571C29.343 10.8383 29.403 10.7286 29.485 10.6362C29.5669 10.5439 29.6687 10.4712 29.7826 10.4236Z" fill="#CBE7F5"/>
<path id="Vector_7" d="M49.9405 8.892C50.0827 8.892 50.5859 6.7045 50.8484 6.62794C51.1109 6.55138 51.4937 6.42013 51.603 6.62794C51.7453 7.36891 51.8439 8.1176 51.8984 8.87013C51.8984 8.87013 53.7359 8.70606 53.7905 9.07794C53.8452 9.44981 52.4999 10.1279 52.4999 10.2701C52.4999 10.4123 52.7077 11.5936 52.4999 11.6045C52.2921 11.6154 51.0015 11.1014 50.739 11.2217C50.4765 11.342 49.1859 12.9826 48.9452 12.8514C48.7046 12.7201 48.0702 12.5233 48.2343 12.3483C48.3983 12.1733 49.328 10.0295 49.328 10.0295C48.7498 9.98256 48.18 9.86125 47.6327 9.66856C47.5233 9.5045 47.4358 9.09981 47.6327 9.02325C47.8296 8.94669 49.7109 8.94669 49.9405 8.892Z" fill="#1D1D1B"/>
<path id="Vector_8" d="M57.6405 17.7628C57.93 17.7907 58.2078 17.8917 58.4477 18.0564C58.6875 18.221 58.8816 18.4439 59.0117 18.7041C59.1418 18.9644 59.2037 19.2534 59.1915 19.544C59.1793 19.8347 59.0935 20.1175 58.942 20.3659C58.3842 21.4597 56.0217 21.5144 55.6608 20.5081C55.5102 20.1959 55.4468 19.8487 55.4771 19.5034C55.5075 19.1581 55.6306 18.8273 55.8334 18.5461C56.0361 18.2649 56.3111 18.0437 56.6291 17.9059C56.9472 17.768 57.2966 17.7186 57.6405 17.7628Z" fill="#1D1D1B"/>
<path id="Vector_9" d="M57.4765 18.6702C57.6155 18.683 57.7489 18.7311 57.8642 18.8098C57.9794 18.8886 58.0726 18.9954 58.1351 19.1203C58.1975 19.2451 58.227 19.3838 58.2209 19.5232C58.2147 19.6627 58.1731 19.7983 58.0999 19.9171C57.8374 20.464 56.6999 20.4749 56.5249 19.9827C56.452 19.8331 56.4211 19.6664 56.4356 19.5006C56.4501 19.3347 56.5093 19.1759 56.607 19.0411C56.7048 18.9063 56.8373 18.8006 56.9904 18.7353C57.1436 18.67 57.3116 18.6475 57.4765 18.6702Z" fill="#CBE7F5"/>
<path id="Vector_10" d="M11.2549 44.3186C10.9813 40.5899 11.3513 36.842 12.3486 33.2389C13.9345 28.1201 16.7892 22.5967 19.4361 21.0217C22.083 19.4467 25.1564 19.5561 28.7439 22.9686C32.3314 26.3811 33.7642 34.9998 34.0705 38.0842C34.3767 41.1686 34.5189 49.9076 34.3877 49.9842C34.2564 50.0607 31.4127 50.717 24.8502 48.9779C18.2877 47.2389 13.1908 46.6045 11.2549 44.3186Z" fill="#E6E4DA"/>
<g id="Group">
<path id="Vector_11" d="M16.1764 27.8689C16.0232 27.6501 16.7779 26.2611 18.0248 24.6861C19.2717 23.1111 20.267 22.3783 20.6061 22.4986C20.9451 22.6189 21.3061 23.2861 21.1748 23.3954C20.008 24.0342 19.0307 24.9699 18.342 26.1079C17.4998 27.7595 17.642 28.5033 17.3357 28.5251C16.8946 28.4216 16.4922 28.1938 16.1764 27.8689Z" fill="#1D1D1B"/>
<path id="Vector_12" d="M31.0732 39.6705C31.0732 39.6705 32.0576 40.3048 31.9373 40.5892C31.817 40.8736 31.7186 40.972 31.6201 40.983C31.5217 40.9939 30.5264 40.5892 30.5264 40.458C30.5264 40.3267 30.8982 39.6158 31.0732 39.6705Z" fill="#1D1D1B"/>
<path id="Vector_13" d="M30.0453 41.5625C31.0206 42.2308 31.9033 43.0252 32.6703 43.925C32.6703 44.1656 32.6703 44.5047 32.4953 44.5484C31.443 43.931 30.4634 43.1972 29.575 42.3609C29.5312 42.2187 29.9469 41.6172 30.0453 41.5625Z" fill="#1D1D1B"/>
<path id="Vector_14" d="M28.7872 43.8379C30.057 44.8755 31.2521 46.0012 32.3638 47.2066C32.3638 47.5129 32.3638 47.8957 32.156 47.8629C30.7882 46.8485 29.5044 45.7256 28.3169 44.5051C28.4381 44.2596 28.5967 44.0345 28.7872 43.8379Z" fill="#1D1D1B"/>
<path id="Vector_15" d="M27.3983 45.314C27.639 45.314 30.6796 48.978 30.6796 48.978C30.6796 48.978 29.739 49.328 29.5858 49.1968C28.5487 48.1077 27.5737 46.9611 26.6655 45.7624C26.7968 45.653 27.3983 45.314 27.3983 45.314Z" fill="#1D1D1B"/>
<path id="Vector_16" d="M27.0921 48.4752C26.5406 47.6611 25.9378 46.883 25.2874 46.1455C25.1124 46.1455 24.6421 46.2111 24.653 46.4189C25.0894 47.2503 25.6257 48.0253 26.2499 48.7268C26.4249 48.8143 27.1249 48.4752 27.0921 48.4752Z" fill="#1D1D1B"/>
</g>
<path id="Vector_17" d="M10.7406 46.0576C14.7834 48.0545 19.0299 49.6093 23.4063 50.6951C29.7878 52.2961 36.4091 52.7113 42.9406 51.9201C47.4312 51.3307 51.8077 50.0697 55.9234 48.1795C57.1375 47.7092 57.75 47.1623 58.3406 47.1623C58.9313 47.1623 61.4031 47.6217 61.3922 47.8951C61.3813 48.1686 60.025 50.5639 55.1688 52.4998C47.5101 55.8202 39.1545 57.2135 30.8328 56.5576C19.4906 55.6607 14.4266 51.7451 11.9656 50.542C9.50469 49.3389 8.94688 49.2186 9.01251 49.0217C9.07813 48.8248 8.80469 47.1842 9.01251 46.9326C9.55937 46.5866 10.138 46.2936 10.7406 46.0576Z" fill="#E6E4DA"/>
<path id="Vector_18" d="M41.7266 52.8392C42.2256 52.6249 42.7683 52.532 43.3102 52.5682C43.8521 52.6043 44.3776 52.7684 44.8438 53.047C46.0141 53.8345 45.2813 54.797 44.2313 55.1251C43.7424 55.3222 43.2118 55.3935 42.6882 55.3323C42.1646 55.2712 41.6648 55.0796 41.2344 54.7751C41.0687 54.6442 40.9444 54.4679 40.8766 54.2678C40.8089 54.0677 40.8005 53.8523 40.8526 53.6475C40.9046 53.4428 41.0149 53.2575 41.17 53.114C41.3251 52.9706 41.5184 52.8751 41.7266 52.8392Z" fill="#1D1D1B"/>
<path id="Vector_19" d="M42.5577 53.4625C42.7749 53.37 43.0107 53.3297 43.2462 53.3449C43.4818 53.3601 43.7105 53.4303 43.9139 53.55C44.428 53.9 44.1108 54.3046 43.6624 54.4468C43.4518 54.5324 43.223 54.5632 42.9973 54.5365C42.7717 54.5097 42.5564 54.4262 42.3718 54.2937C42.3049 54.2369 42.2549 54.163 42.2271 54.0798C42.1992 53.9967 42.1946 53.9075 42.2138 53.822C42.2329 53.7364 42.2751 53.6577 42.3357 53.5943C42.3963 53.531 42.473 53.4854 42.5577 53.4625Z" fill="#F2910D"/>
<path id="Vector_20" d="M53.0577 50.1264C53.4841 49.7785 53.9874 49.5374 54.5258 49.4233C55.0642 49.3092 55.6221 49.3252 56.153 49.4702C57.4983 49.9186 57.0499 51.0452 56.153 51.6577C55.7363 51.9792 55.2454 52.1908 54.7256 52.273C54.2057 52.3551 53.6735 52.3053 53.178 52.128C52.9781 52.0548 52.8039 51.9248 52.6768 51.754C52.5497 51.5833 52.4752 51.3791 52.4624 51.1666C52.4496 50.9541 52.4992 50.7425 52.6049 50.5577C52.7106 50.373 52.868 50.2231 53.0577 50.1264Z" fill="#1D1D1B"/>
<path id="Vector_21" d="M54.0311 50.509C54.2138 50.357 54.4307 50.2517 54.6632 50.2021C54.8956 50.1526 55.1366 50.1603 55.3655 50.2247C55.9342 50.4215 55.7483 50.9028 55.3655 51.1544C55.1874 51.2949 54.9765 51.3877 54.7525 51.4241C54.5286 51.4605 54.2991 51.4392 54.0858 51.3622C54.005 51.3267 53.9354 51.2697 53.8848 51.1974C53.8342 51.1251 53.8045 51.0403 53.7988 50.9522C53.7932 50.8642 53.8119 50.7762 53.8528 50.6981C53.8938 50.6199 53.9555 50.5545 54.0311 50.509Z" fill="#F2910D"/>
<path id="Vector_22" d="M30.0455 53.2435C30.5518 53.0262 31.1027 52.9326 31.6524 52.9707C32.2021 53.0087 32.7348 53.1772 33.2064 53.4622C34.3767 54.2497 33.6439 55.2122 32.5939 55.5404C32.1044 55.7345 31.5744 55.8041 31.0514 55.7431C30.5284 55.682 30.0287 55.4921 29.5971 55.1904C29.4283 55.0632 29.3 54.8898 29.2277 54.6912C29.1553 54.4926 29.1421 54.2774 29.1895 54.0714C29.237 53.8655 29.3431 53.6777 29.495 53.5308C29.6469 53.3838 29.8381 53.284 30.0455 53.2435Z" fill="#1D1D1B"/>
<path id="Vector_23" d="M30.8766 53.878C31.0932 53.7829 31.3294 53.7413 31.5654 53.7565C31.8015 53.7717 32.0304 53.8434 32.2329 53.9655C32.736 54.3046 32.4188 54.7202 31.9704 54.8624C31.7581 54.9449 31.5282 54.9721 31.3025 54.9415C31.0768 54.9109 30.8625 54.8235 30.6798 54.6874C30.6188 54.6291 30.5743 54.5557 30.5506 54.4748C30.5269 54.3938 30.5249 54.308 30.5449 54.226C30.5648 54.144 30.606 54.0687 30.6642 54.0076C30.7224 53.9466 30.7957 53.9019 30.8766 53.878Z" fill="#F2910D"/>
<path id="Vector_24" d="M20.2892 51.4059C20.7941 51.1843 21.3449 51.0874 21.8951 51.1236C22.4453 51.1598 22.9787 51.3279 23.4502 51.6137C24.6205 52.4012 23.8877 53.3637 22.8486 53.7028C22.359 53.8993 21.8277 53.9693 21.3039 53.9062C20.7801 53.8431 20.2807 53.649 19.8517 53.3418C19.6864 53.2146 19.561 53.0426 19.4902 52.8464C19.4194 52.6501 19.4062 52.4377 19.4522 52.2341C19.4982 52.0306 19.6014 51.8445 19.7497 51.6978C19.8981 51.551 20.0853 51.4497 20.2892 51.4059Z" fill="#1D1D1B"/>
<path id="Vector_25" d="M21.1315 52.0298C21.3487 51.9374 21.5845 51.8971 21.82 51.9123C22.0556 51.9275 22.2843 51.9977 22.4877 52.1173C22.9909 52.4673 22.6737 52.872 22.2252 53.0142C22.0147 53.0998 21.7859 53.1306 21.5602 53.1039C21.3345 53.0771 21.1193 52.9936 20.9346 52.8611C20.8679 52.8036 20.8182 52.7288 20.791 52.645C20.7639 52.5611 20.7602 52.4714 20.7805 52.3857C20.8008 52.2999 20.8443 52.2214 20.9062 52.1586C20.9681 52.0959 21.046 52.0513 21.1315 52.0298Z" fill="#F2910D"/>
<path id="Vector_26" d="M12.6656 47.9716C13.1132 47.9534 13.5586 48.0433 13.9641 48.2336C14.3696 48.424 14.7233 48.7093 14.9953 49.0653C15.6625 49.9841 14.8421 50.5091 13.9671 50.4653C13.5393 50.4862 13.1132 50.3966 12.7301 50.205C12.347 50.0134 12.0196 49.7264 11.7796 49.3716C11.6776 49.2266 11.6208 49.0546 11.6165 48.8774C11.6121 48.7001 11.6604 48.5256 11.7552 48.3758C11.85 48.226 11.9871 48.1076 12.1491 48.0357C12.3112 47.9637 12.4909 47.9414 12.6656 47.9716Z" fill="#1D1D1B"/>
<path id="Vector_27" d="M13.1253 48.6829C13.3157 48.6708 13.5062 48.7041 13.6812 48.7802C13.8561 48.8563 14.0105 48.9729 14.1315 49.1204C14.4159 49.525 14.055 49.7438 13.6831 49.7329C13.5012 49.738 13.321 49.6976 13.1586 49.6155C12.9963 49.5334 12.857 49.4121 12.7534 49.2625C12.7159 49.2012 12.6965 49.1306 12.6973 49.0588C12.6981 48.9869 12.7191 48.9168 12.7579 48.8563C12.7967 48.7958 12.8517 48.7475 12.9167 48.7168C12.9816 48.6861 13.0539 48.6744 13.1253 48.6829Z" fill="#F2910D"/>
<path id="Vector_28" d="M9.17646 50.8921C13.1795 53.2233 17.4509 55.0597 21.8968 56.3608C29.6843 58.5483 34.9233 59.4671 43.1702 58.078C48.6928 57.1105 54.0674 55.4341 59.1608 53.0905C60.1671 52.5874 61.3483 51.4718 61.4577 51.7015C61.5671 51.9312 61.8405 55.2124 61.578 55.3874C61.3742 55.512 61.1472 55.5939 60.9108 55.628C60.953 54.8199 60.909 54.0096 60.7796 53.2108C60.6046 53.1452 59.7733 53.539 59.7843 53.7468C59.9209 54.5117 59.9722 55.2893 59.9374 56.0655C59.7733 56.2077 58.7233 56.9843 58.7124 56.7437C58.7015 56.503 58.7124 54.3483 58.5483 54.3593C58.3843 54.3702 57.8046 54.5671 57.7499 54.7421C57.6952 54.9171 57.903 56.9296 57.8046 57.0937C57.7061 57.2577 57.1374 57.378 57.1374 57.378C57.123 56.6238 57.0609 55.8713 56.9515 55.1249C56.8421 55.1249 55.9343 55.3874 55.978 55.5843C56.0218 55.7812 56.164 57.7718 56.164 57.7718L55.2561 58.0233C55.2967 57.292 55.2564 56.5583 55.1358 55.8358C54.9718 55.8358 54.1186 56.0655 54.1296 56.1968C54.1562 57.103 54.1123 58.0099 53.9983 58.9093C49.9802 60.6766 45.7035 61.7845 41.3327 62.1905C34.2233 62.9452 25.7796 63.0874 18.889 60.9874C11.9983 58.8874 9.84365 56.3062 9.51552 55.3983C9.17178 53.9226 9.05742 52.4027 9.17646 50.8921Z" fill="#DDC07C"/>
<path id="Vector_29" d="M11.528 53.2656C11.6264 53.2656 12.4249 53.3969 12.6217 53.725C12.8186 54.0531 13.0374 57.1266 12.6217 57.0828C12.1394 56.9855 11.7084 56.7175 11.4077 56.3281C11.2983 56.1203 11.2217 53.3531 11.528 53.2656Z" fill="#1D1D1B"/>
<path id="Vector_30" d="M43.1047 20.0372C45.6422 19.6872 50.4219 22.3888 50.3125 26.8513C50.2031 31.3138 45.6422 33.6325 40.589 29.9247C35.5359 26.2169 38.2812 20.7809 43.1047 20.0372Z" fill="#CBE7F5"/>
<path id="Vector_31" d="M43.3235 21.3062C45.3141 21 49.0547 23.1546 48.9672 26.6437C48.8797 30.1328 45.3032 31.9703 41.311 29.0609C37.3188 26.1515 39.5719 21.875 43.3235 21.3062Z" fill="#1D1D1B"/>
<path id="Vector_32" d="M43.5095 22.3892C44.6196 22.3712 45.6927 22.7877 46.4999 23.5499C47.307 24.3121 47.7843 25.3597 47.8298 26.4689C47.7642 29.1486 45.0189 30.5377 41.9892 28.3174C38.9595 26.097 40.633 22.8267 43.5095 22.3892Z" fill="#696A9B"/>
<path id="Vector_33" d="M43.1158 23.4609C43.3018 23.3077 43.8924 23.3187 43.9143 23.6905C43.5721 24.808 43.0751 25.872 42.4377 26.8515C42.3065 26.8515 41.8143 26.578 41.8362 26.4796C42.1842 25.4419 42.6121 24.4326 43.1158 23.4609Z" fill="#1D1D1B"/>
<path id="Vector_34" d="M45.1502 23.6689C45.3252 23.5486 45.697 23.7346 45.8064 23.9314C45.4252 25.4126 44.8477 26.8361 44.0892 28.1643C43.8814 28.1096 43.258 27.9783 43.2799 27.8689C43.8288 26.437 44.4531 25.035 45.1502 23.6689Z" fill="#1D1D1B"/>
<path id="Vector_35" d="M46.5608 25.2326C46.6483 25.167 47.1952 25.4404 47.1295 25.6482C46.8777 26.5001 46.5329 27.3217 46.1014 28.0982C45.8936 28.0982 45.478 27.9888 45.4999 27.8248C45.7703 26.9289 46.1255 26.0609 46.5608 25.2326Z" fill="#1D1D1B"/>
<path id="Vector_36" d="M36.1812 25.0249C35.9923 26.323 36.2054 27.6478 36.7921 28.821C37.3787 29.9943 38.3106 30.9597 39.4625 31.5874C41.5086 32.6401 43.7351 33.2969 46.025 33.5233C44.8346 34.6777 43.5505 35.7313 42.1859 36.6733C40.0756 35.8668 38.0375 34.8825 36.0937 33.7312C34.8797 32.8015 34.8578 32.9765 34.8797 32.8015C34.9015 32.6265 34.7156 31.7077 34.5297 30.1108C34.3437 28.514 34.2015 28.3171 34.2234 28.2187C34.2453 28.1202 36.0937 25.1562 36.1812 25.0249Z" fill="#92A0D1"/>
<path id="Vector_37" d="M35.8639 35.1089C36.6534 35.4959 37.4106 35.9458 38.128 36.4542C38.5874 36.7386 39.353 37.012 39.1561 37.3292C38.9592 37.6464 36.1811 41.0808 36.0936 40.9823C36.0061 40.8839 35.6233 35.2183 35.8639 35.1089Z" fill="#696A9B"/>
<path id="Vector_38" d="M45.0623 36.8485C45.0623 36.8485 46.003 38.6423 45.5436 42.7438C45.0842 46.8454 43.9795 49.5032 44.2639 49.6235C45.1521 49.6413 46.0367 49.5044 46.878 49.2188C47.4082 46.7586 47.6286 44.2416 47.5342 41.7267C47.4544 39.7236 47.1199 37.7389 46.5389 35.8204C46.3639 35.711 45.0623 36.8485 45.0623 36.8485Z" fill="white"/>
<path id="Vector_39" d="M30.4282 21.6671C30.4282 21.6671 33.2501 18.8124 36.0392 18.3858C36.879 18.269 37.7339 18.3242 38.5518 18.5479C39.3696 18.7716 40.1335 19.1593 40.797 19.6874L39.1892 20.3546C38.5693 20.0584 37.891 19.9047 37.204 19.9047C36.517 19.9047 35.8387 20.0584 35.2188 20.3546C33.7447 20.8843 32.4436 21.8072 31.4563 23.0233L30.4282 21.6671Z" fill="white"/>
<path id="Vector_40" d="M51.8765 24.7842C53.0995 25.5824 54.1524 26.6148 54.9746 27.8218C55.7968 29.0289 56.372 30.3867 56.6671 31.817C57.3432 35.2654 57.8252 38.749 58.1108 42.2514C58.1108 42.2514 54.6874 37.9748 54.5671 38.0842C54.4468 38.1936 53.9765 38.5326 54.0202 38.6967C54.064 38.8607 58.0671 43.2795 58.078 43.6514C58.0817 43.9418 58.0524 44.2317 57.9905 44.5154L57.2796 44.7232C57.2796 44.7232 53.5499 40.8842 53.4515 40.917C53.353 40.9498 52.9265 41.3873 53.014 41.6279C53.1015 41.8686 56.5249 45.2701 56.3608 45.4232C55.9841 45.6298 55.593 45.8089 55.1905 45.9592C54.3497 45.0046 53.4511 44.1024 52.4999 43.2576C52.3358 43.2576 51.7452 43.6842 51.9202 43.9139C52.7358 44.74 53.5027 45.6129 54.2171 46.5279C53.9963 46.6743 53.7619 46.7988 53.5171 46.8998C52.7342 46.1006 51.8854 45.3689 50.9796 44.7123C50.7718 44.7889 50.4218 45.2264 50.5312 45.4232C50.6405 45.6201 52.7187 47.3264 52.489 47.5451C51.6091 47.9397 50.7027 48.2723 49.7765 48.5404C49.3097 48.668 48.8346 48.7631 48.3546 48.8248C49.1706 45.8612 49.4229 42.7706 49.0983 39.7139C48.9701 37.8714 48.6921 36.0425 48.2671 34.2451C49.3966 33.0622 50.4042 31.7687 51.2749 30.3842C51.9236 29.2876 52.239 28.0258 52.1827 26.7529C52.1155 26.0917 52.0133 25.4345 51.8765 24.7842Z" fill="#E6E4DA"/>
<path id="Vector_41" d="M55.0155 34.8472C55.0155 34.8472 56.853 36.5644 56.9077 37.0347C56.9624 37.505 57.1265 37.9862 56.9077 38.0628C56.1003 37.6483 55.4086 37.0394 54.8952 36.2909C54.8411 35.8064 54.882 35.316 55.0155 34.8472Z" fill="#1D1D1B"/>
</g>
</svg>
