<svg width="70" height="70" viewBox="0 0 70 70" fill="none" xmlns="http://www.w3.org/2000/svg">
<g id="space-rover-2-svgrepo-com">
<path id="Vector" d="M29.1484 26.7427C28.4628 28.2783 27.4773 29.6616 26.25 30.8114H26.8406C27.15 30.3956 27.5185 30.0271 27.9344 29.7177C28.2466 29.4858 28.5757 29.2774 28.9188 29.0942L29.3563 26.9067C29.2906 26.8476 29.2212 26.7928 29.1484 26.7427Z" fill="white"/>
<path id="Vector_2" d="M11.7469 16.7674C11.7469 16.7674 13.9344 12.7096 17.4016 12.3924C20.8688 12.0752 25.6047 13.1689 27.3328 15.4002C29.061 17.6314 28.4266 22.5533 28.4266 22.5533L30.0235 22.9689C30.286 22.5683 30.6769 22.2689 31.1321 22.1199C31.5872 21.9708 32.0795 21.9809 32.5281 22.1486C32.811 22.1914 33.0802 22.2988 33.3147 22.4626C33.5493 22.6264 33.7429 22.8421 33.8805 23.0929C34.0181 23.3437 34.0959 23.6229 34.108 23.9087C34.12 24.1945 34.066 24.4793 33.95 24.7408C33.7437 25.2059 33.3901 25.5903 32.9438 25.8346L31.85 30.5268C31.85 30.5268 32.7578 31.0299 32.9438 31.533C33.0697 31.9343 33.1468 32.3492 33.1735 32.7689C33.1735 32.7689 35.8094 33.0424 36.9031 33.1299C37.9969 33.2174 39.4188 33.3596 39.4188 33.3596C39.4487 32.2716 39.9043 31.2387 40.6875 30.483C41.4452 29.8134 42.4114 29.4269 43.4219 29.3893L45.336 16.4064C44.8557 16.0392 44.4722 15.5604 44.2187 15.0115C43.9652 14.4626 43.8494 13.8602 43.8813 13.2564C43.9179 12.8552 44.0497 12.4684 44.2655 12.1281C44.4814 11.7879 44.7752 11.5039 45.1226 11.2998C45.4699 11.0956 45.861 10.9771 46.2633 10.9541C46.6656 10.9311 47.0675 11.0042 47.436 11.1674C48.0206 11.4682 48.5093 11.9266 48.8469 12.4908L55.4094 10.708C55.5001 10.1607 55.7598 9.65548 56.1521 9.26319C56.5444 8.8709 57.0496 8.6112 57.5969 8.5205C57.9708 8.43405 58.3595 8.43392 58.7335 8.52013C59.1075 8.60634 59.457 8.77662 59.7553 9.01805C60.0537 9.25947 60.2931 9.5657 60.4554 9.91347C60.6178 10.2613 60.6987 10.6414 60.6922 11.0252C60.6922 12.5346 58.8219 13.3986 58.8219 13.3986L59.5547 21.558C59.971 21.735 60.3441 21.9999 60.6485 22.3346C60.8425 22.7019 60.9649 23.1028 61.0094 23.5158C62.3672 23.4968 63.7243 23.5883 65.0672 23.7893C65.2094 24.0189 63.6125 32.1783 63.4703 32.5393C63.3281 32.9002 62.1469 32.9439 61.9719 32.7252C61.7969 32.5064 60.8781 26.8408 60.8781 26.8408C60.8781 26.8408 56.9625 27.0705 56.9625 27.3002C56.8464 29.0151 56.6015 30.7189 56.2297 32.3971C55.9563 32.7252 54.9063 32.6268 54.9063 32.6268C54.9063 32.6268 52.5875 25.3861 52.7188 25.1127C52.85 24.8392 52.7188 24.4674 53.3094 24.3799C53.9 24.2924 56.3172 24.3799 56.3172 24.3799C56.3166 23.6795 56.4618 22.9866 56.7438 22.3455C57.1214 21.9703 57.5718 21.6762 58.0672 21.4814L57.5203 13.4861C57.5203 13.4861 56.1531 13.6283 55.8141 12.9064C55.475 12.1846 55.5078 11.9877 55.5078 11.9877L49.525 13.6611C49.5947 14.5068 49.3406 15.3473 48.8141 16.0127C48.2459 16.5838 47.4946 16.9362 46.6922 17.008L44.8438 29.3127C45.3784 29.4961 45.8713 29.7839 46.2938 30.1594C46.7163 30.535 47.0599 30.9907 47.3047 31.5002C47.6017 32.5082 47.7419 33.5558 47.7203 34.6064C49.5309 36.5113 51.2291 38.5199 52.8063 40.6221C53.504 41.5722 54.1222 42.5782 54.6547 43.6299C54.6547 43.6299 58.3078 44.2205 59.7516 49.2736C60.3123 51.0618 60.3388 52.9748 59.8278 54.7778C59.3168 56.5809 58.2906 58.1955 56.875 59.4236C55.0703 60.9986 52.6422 61.4471 48.0266 61.4471C43.411 61.4471 35.175 61.5783 25.5063 61.3377C15.8375 61.0971 12.1406 60.583 9.87658 58.0564C8.62342 56.5995 7.84424 54.7951 7.64296 52.8839C7.44168 50.9727 7.82787 49.0456 8.75002 47.3596C9.94209 45.2123 11.8222 43.5287 14.0875 42.5799C14.7223 42.3167 15.3873 42.133 16.0672 42.033C16.0672 42.033 19.7969 35.8096 20.9891 34.7158C21.9503 33.7019 23.2188 33.033 24.5985 32.8127C25.6885 32.6981 26.7837 32.6397 27.8797 32.6377C28.0919 32.0521 28.4724 31.5422 28.9735 31.1721C29.4015 30.811 29.9066 30.5528 30.45 30.4174L31.336 26.108C30.8787 25.8847 30.4981 25.5307 30.2422 25.0908C30.0835 24.788 29.9693 24.4638 29.9031 24.1283L28.186 23.8549C27.5638 26.523 25.9687 28.8631 23.7125 30.4174C20.0156 32.8127 15.0281 31.3799 13.3219 30.6252C11.4648 29.5269 9.98495 27.8907 9.07814 25.933C8.50766 24.3758 8.50766 22.6668 9.07814 21.1096C9.38296 20.388 9.784 19.7111 10.2703 19.0971L9.17658 18.2767C8.70164 18.5588 8.15945 18.7077 7.60705 18.7077C7.05465 18.7077 6.51246 18.5588 6.03752 18.2767C4.49533 17.2486 4.86721 15.6408 5.68752 14.5799C6.50783 13.5189 9.07814 12.6986 9.89846 13.8252C10.1407 14.1757 10.3109 14.5708 10.3992 14.9877C10.4874 15.4045 10.492 15.8347 10.4125 16.2533L11.7469 16.7674Z" fill="#1D1D1B"/>
<path id="Vector_3" d="M7.65621 14.58C9.06714 14.3284 9.47183 15.0612 9.32964 16.1221C9.32923 16.4073 9.2486 16.6867 9.09697 16.9282C8.94534 17.1698 8.72882 17.3638 8.47216 17.4882C8.21549 17.6125 7.92902 17.6621 7.64548 17.6314C7.36194 17.6007 7.09277 17.4908 6.86871 17.3143C5.35933 16.494 6.85777 14.7221 7.65621 14.58Z" fill="#CBE7F5"/>
<path id="Vector_4" d="M13.3545 17.4236C13.3545 17.4236 15.6842 14.6126 17.2154 14.2079C18.7467 13.8033 20.4311 13.8689 20.7373 15.8158C20.8086 17.5302 20.5639 19.243 20.0154 20.8689L13.3545 17.4236Z" fill="#E6E4DA"/>
<path id="Vector_5" d="M11.8889 20.9019C11.8889 20.9019 17.0077 25.2112 16.9421 25.3534C16.8764 25.4956 13.9014 27.8472 11.6155 26.0972C9.32957 24.3472 11.6155 21.0769 11.8889 20.9019Z" fill="#E6E4DA"/>
<path id="Vector_6" d="M11.7141 18.2C11.9437 18.2 18.0688 21.1094 18.0688 21.4813C18.0688 21.8532 17.3578 23.5375 16.9094 23.4719C15.091 22.0454 13.3564 20.5152 11.7141 18.8891C11.4078 18.5938 11.4078 18.1672 11.7141 18.2Z" fill="#CBE7F5"/>
<path id="Vector_7" d="M12.2937 22.4438C12.589 22.2469 12.8733 22.8922 12.9499 23.0235C13.0265 23.1547 12.7421 23.5047 13.0155 24.1172C13.289 24.7297 13.7265 24.9376 13.6608 25.1454C13.5952 25.3532 13.3874 25.6157 13.2562 25.6157C12.67 25.2925 12.2024 24.7905 11.9218 24.1829C11.8355 23.8848 11.8244 23.57 11.8892 23.2666C11.9541 22.9632 12.0931 22.6805 12.2937 22.4438Z" fill="#1D1D1B"/>
<path id="Vector_8" d="M15.3125 17.2813C15.72 16.6916 16.245 16.1926 16.8547 15.8156C17.1242 15.6955 17.4248 15.6636 17.7136 15.7245C18.0023 15.7854 18.2644 15.9359 18.4625 16.1547C18.5609 16.4609 18.0469 17.0078 18.0469 17.0078C17.8721 16.9263 17.6788 16.8925 17.4868 16.9098C17.2947 16.9271 17.1106 16.9949 16.9531 17.1063C16.5484 17.5219 16.4719 17.9703 16.2422 17.9266C16.0125 17.8828 15.3125 17.4234 15.3125 17.2813Z" fill="#1D1D1B"/>
<path id="Vector_9" d="M23.1655 15.4658C23.8965 15.5644 24.5788 15.8879 25.1178 16.3915C25.6567 16.8952 26.0256 17.5541 26.1733 18.2768C26.7202 20.5955 27.0921 23.3299 25.1452 26.1736C23.1983 29.0174 21.4264 29.6518 19.5452 29.7939C18.2918 29.9285 17.0241 29.8133 15.8155 29.4549C15.3671 29.2471 15.028 28.733 15.4108 28.5908C17.7901 27.4905 19.745 25.6432 20.978 23.3299C22.8921 19.6877 22.9686 15.7393 23.1655 15.4658Z" fill="#CBE7F5"/>
<path id="Vector_10" d="M23.2313 20.6611C23.2313 20.6611 24.161 20.7705 24.1938 20.9346C24.0649 22.2165 23.7171 23.4669 23.1657 24.6314C22.411 26.1299 21.8313 26.8189 21.5251 26.8189C21.2188 26.8189 20.8032 26.8189 20.8032 26.5783C20.8032 26.3377 22.0063 24.9377 22.5532 23.7127C22.8475 22.7119 23.0741 21.6924 23.2313 20.6611Z" fill="#1D1D1B"/>
<path id="Vector_11" d="M46.3422 12.261C47.086 12.0094 48.0813 12.6329 48.1141 13.9016C48.1469 15.1704 46.8563 16.1548 45.9266 15.5423C44.9969 14.9298 45.0079 12.6985 46.3422 12.261Z" fill="#CBE7F5"/>
<path id="Vector_12" d="M58.0674 9.55957C58.8111 9.4502 59.5002 10.5877 59.2267 11.4736C58.9533 12.3596 57.5205 12.7314 57.0392 12.1189C56.558 11.5064 56.8752 9.72364 58.0674 9.55957Z" fill="#CBE7F5"/>
<path id="Vector_13" d="M58.6139 22.5098C59.1499 22.4332 59.7077 23.1223 59.5983 23.6035C59.4889 24.0848 57.9577 24.0848 57.7936 23.9098C57.7135 23.7667 57.6723 23.6051 57.6739 23.4411C57.6755 23.2771 57.72 23.1164 57.8029 22.9749C57.8858 22.8334 58.0043 22.716 58.1465 22.6344C58.2888 22.5528 58.4499 22.5099 58.6139 22.5098Z" fill="#CBE7F5"/>
<path id="Vector_14" d="M54.5127 25.4847C54.5127 25.4847 57.7939 25.1128 60.2549 24.9706C62.7158 24.8284 63.8752 24.6972 63.8424 24.9706C63.8096 25.244 63.1205 29.0394 62.8799 28.9737C62.6393 28.9081 62.508 25.6925 62.1252 25.6269C59.9692 25.6614 57.8205 25.8884 55.7049 26.305C55.7049 26.5456 55.7049 29.105 55.3658 29.1378C55.0268 29.1706 54.5127 25.8237 54.5127 25.4847Z" fill="#E7413E"/>
<path id="Vector_15" d="M40.8408 33.1408C40.9278 32.4015 41.2879 31.7213 41.8504 31.2337C42.4129 30.746 43.1372 30.4861 43.8814 30.5049C46.233 30.6142 46.8127 33.5127 46.2658 33.7205C44.4386 33.8014 42.6097 33.606 40.8408 33.1408Z" fill="#CBE7F5"/>
<path id="Vector_16" d="M18.6924 41.5627C19.0314 41.1799 22.3127 35.6784 24.7736 34.8581C27.2346 34.0377 38.4783 34.9346 42.0002 35.2737C45.5221 35.6127 46.1346 35.5471 47.2939 37.1221C48.4533 38.6971 50.958 42.1752 50.6846 42.2081C50.4073 42.2311 50.1282 42.1976 49.8643 42.1096C49.6893 42.044 46.7799 38.2815 46.5064 38.2487C46.233 38.2159 45.4127 38.5549 45.5549 38.7956C45.6971 39.0362 48.5955 41.869 48.3877 41.9018C47.8904 41.9679 47.3865 41.9679 46.8893 41.9018C46.7143 41.8034 44.5268 38.8284 44.3189 38.7518C44.1111 38.6752 43.1268 38.9924 43.3018 39.2331C43.4768 39.4737 45.8939 41.8034 45.6861 41.9018C45.2747 42.0166 44.8397 42.0166 44.4283 41.9018C43.8363 41.0886 43.1972 40.3107 42.5143 39.5721C42.208 39.5065 41.4205 39.7799 41.5846 40.0862C41.7486 40.3924 43.0283 41.7596 42.8533 41.7596L18.6924 41.5627Z" fill="#85BFE9"/>
<path id="Vector_17" d="M21.875 39.802C22.7666 38.5344 23.7384 37.3251 24.7844 36.1816C24.9156 36.1816 25.4297 36.3238 25.4297 36.5207C24.733 37.7743 23.8964 38.9448 22.9359 40.0098C22.5702 40.0348 22.2043 39.9631 21.875 39.802Z" fill="#1D1D1B"/>
<path id="Vector_18" d="M22.0065 43.2579C30.1442 42.9951 38.2902 43.1777 46.408 43.8048C52.6971 44.5266 54.983 45.1391 56.733 48.1798C58.483 51.2204 57.3455 56.3829 54.6768 58.1329C52.008 59.8829 35.0986 59.4563 28.0877 59.2267C21.0768 58.997 14.3174 59.0626 11.7471 56.9298C9.17677 54.797 9.22052 51.122 10.9377 48.5516C12.6549 45.9813 14.8643 43.6735 22.0065 43.2579Z" fill="#E7413E"/>
<path id="Vector_19" d="M17.1826 45.3145C19.5341 44.7129 34.5841 44.8988 40.3591 44.9645C46.1341 45.0301 52.0076 44.8442 54.5123 46.5723C57.0169 48.3004 56.8748 51.2207 56.4263 53.5942C55.9779 55.9676 54.9826 57.827 49.7545 58.2098C44.5263 58.5926 27.8795 58.7567 21.5576 58.2098C15.2357 57.6629 13.3216 57.1051 12.031 54.2942C10.7404 51.4832 11.681 46.7145 17.1826 45.3145Z" fill="#A42116"/>
<path id="Vector_20" d="M18.9658 46.4733C19.8065 46.3922 20.6541 46.5208 21.4329 46.8476C22.2116 47.1744 22.8972 47.6892 23.4282 48.346C23.9592 49.0027 24.3191 49.7808 24.4756 50.6107C24.6322 51.4406 24.5805 52.2964 24.3252 53.1014C23.2315 57.1702 17.2158 58.2311 14.4815 55.5624C11.7471 52.8936 11.9549 47.0858 18.9658 46.4733Z" fill="#E7413E"/>
<path id="Vector_21" d="M34.7812 46.572C35.6219 46.4917 36.4695 46.6208 37.2483 46.9476C38.0271 47.2745 38.713 47.7889 39.2447 48.4452C39.7764 49.1014 40.1374 49.879 40.2957 50.7087C40.4539 51.5383 40.4043 52.3942 40.1515 53.2001C39.0577 57.2689 33.0421 58.3298 30.3077 55.661C27.5733 52.9923 27.7812 47.1845 34.7812 46.572Z" fill="#E7413E"/>
<path id="Vector_22" d="M50.1704 46.5724C51.0111 46.4913 51.8587 46.6199 52.6375 46.9468C53.4162 47.2736 54.1018 47.7884 54.6328 48.4451C55.1638 49.1018 55.5237 49.8799 55.6802 50.7098C55.8368 51.5397 55.7851 52.3955 55.5298 53.2006C54.4361 57.2693 48.4204 58.3302 45.6861 55.6615C42.9517 52.9927 43.1595 47.1849 50.1704 46.5724Z" fill="#E7413E"/>
<g id="Group">
<path id="Vector_23" d="M17.3908 49.919C17.7234 49.7172 18.1004 49.5999 18.4888 49.5773C18.8772 49.5547 19.2652 49.6274 19.619 49.7892C19.9728 49.951 20.2817 50.197 20.5186 50.5055C20.7555 50.8141 20.9133 51.176 20.9783 51.5596C21.558 53.5502 18.7252 54.8408 17.2486 53.3424C16.9993 53.127 16.8019 52.8581 16.6711 52.5558C16.5403 52.2535 16.4794 51.9255 16.4931 51.5963C16.5068 51.2672 16.5946 50.9454 16.75 50.655C16.9055 50.3645 17.1245 50.1129 17.3908 49.919Z" fill="#1D1D1B"/>
<path id="Vector_24" d="M33.2502 50.0616C33.5822 49.857 33.9596 49.7375 34.3488 49.7135C34.7381 49.6895 35.1273 49.7618 35.482 49.924C35.8366 50.0862 36.1459 50.3333 36.3823 50.6434C36.6188 50.9536 36.7752 51.3172 36.8377 51.7022C37.4173 53.6819 34.5845 54.9834 33.108 53.4741C32.8607 53.2586 32.665 52.9904 32.5354 52.6891C32.4059 52.3879 32.3457 52.0613 32.3593 51.7337C32.373 51.406 32.4601 51.0856 32.6143 50.7962C32.7685 50.5067 32.9858 50.2557 33.2502 50.0616Z" fill="#1D1D1B"/>
<path id="Vector_25" d="M48.9014 49.9192C49.2344 49.715 49.6124 49.5957 50.0022 49.5718C50.392 49.548 50.7817 49.6202 51.1371 49.7822C51.4925 49.9443 51.8026 50.1911 52.0402 50.501C52.2778 50.811 52.4357 51.1745 52.4999 51.5598C53.0796 53.5504 50.2468 54.841 48.7811 53.3426C48.5306 53.1288 48.3317 52.8612 48.199 52.5598C48.0663 52.2584 48.0035 51.9309 48.015 51.6018C48.0266 51.2727 48.1123 50.9505 48.2658 50.6591C48.4193 50.3678 48.6366 50.1148 48.9014 49.9192Z" fill="#1D1D1B"/>
</g>
</g>
</svg>
