<svg width="70" height="70" viewBox="0 0 70 70" fill="none" xmlns="http://www.w3.org/2000/svg">
<g id="stars-svgrepo-com">
<path id="Vector" d="M13.7595 17.1831C13.486 17.0518 13.2126 14.6784 12.797 14.6346C12.3813 14.5909 11.7579 16.8221 11.7579 16.8221C11.7579 16.8221 9.65791 17.0081 9.57041 17.4128C9.48291 17.8175 11.4407 18.7362 11.4407 18.8675C11.4407 18.9987 10.2923 20.1034 10.6204 20.5628C10.9485 21.0221 12.4798 20.0596 12.6657 20.0596C12.8517 20.0596 14.4923 21.6565 14.8532 21.4706C15.2142 21.2846 14.3501 19.2831 14.3063 19.1409C14.2626 18.9987 15.8048 18.0471 15.8048 17.7737C15.8048 17.5003 14.0329 17.3253 13.7595 17.1831ZM22.5095 11.3534C22.6954 9.98621 21.7985 8.53152 20.2345 8.84871C18.1782 9.2534 17.6313 11.3534 18.5392 12.2175C19.447 13.0815 22.3235 12.7206 22.5095 11.3534ZM60.3751 11.6268C60.561 10.2596 59.6751 8.80496 58.1001 9.12215C56.0548 9.52684 55.5079 11.6268 56.4157 12.4909C57.3235 13.355 60.1563 12.994 60.3751 11.6268ZM41.8907 31.0081C42.2215 31.0059 42.5467 30.9226 42.8379 30.7655C43.129 30.6084 43.3772 30.3823 43.5607 30.1071C43.7442 29.8318 43.8574 29.5158 43.8905 29.1866C43.9235 28.8575 43.8753 28.5252 43.7501 28.219C42.8751 26.3159 40.7095 26.2721 40.0751 27.355C39.4407 28.4378 40.4688 31.1503 41.8907 31.0081ZM39.2001 39.9331C37.111 40.0753 36.3017 42.1206 37.1001 43.0612C37.8985 44.0018 40.786 44.0346 41.147 42.7112C41.2699 42.3985 41.3135 42.0603 41.2739 41.7266C41.2342 41.393 41.1125 41.0744 40.9197 40.7992C40.7269 40.5241 40.4689 40.301 40.1689 40.1498C39.8688 39.9987 39.536 39.9242 39.2001 39.9331ZM11.4735 57.7831C10.5438 59.6643 11.8673 61.3706 13.1142 61.1846C14.361 60.9987 15.8157 58.494 14.8423 57.5096C14.636 57.2457 14.3673 57.037 14.0605 56.9025C13.7536 56.7679 13.4182 56.7117 13.0842 56.7388C12.7503 56.7659 12.4283 56.8755 12.1472 57.0578C11.866 57.24 11.6346 57.4893 11.4735 57.7831ZM47.3923 20.9237C47.5235 21.1096 49.1204 19.5128 49.3501 19.3268C49.5798 19.1409 51.0782 20.0159 51.3517 19.83C51.6251 19.644 50.8048 17.9159 50.7173 17.73C50.6298 17.544 51.9532 16.505 51.9532 16.1878C51.9532 15.8706 50.1704 16.0018 49.9845 15.8159C49.7985 15.63 48.8907 13.0378 48.4423 13.0815C47.9939 13.1253 47.6876 16.7565 47.5782 16.8221C47.1626 17.0518 45.0626 18.1893 45.161 18.4628C45.2595 18.7362 47.0313 18.78 47.1626 18.8784C47.2938 18.9768 47.2501 20.7815 47.3923 20.9237ZM33.7204 37.1003C34.8142 36.0065 33.7204 28.3503 33.7204 28.219C33.7204 28.0878 39.7798 21.6565 39.1892 20.7378C38.5985 19.819 31.9923 19.2393 31.7626 19.0971C31.5329 18.955 29.7063 11.8565 28.4813 11.8565C27.2563 11.8565 23.647 19.2831 23.472 19.5128C23.472 19.5128 17.9485 18.7362 17.4017 19.644C16.8548 20.5518 21.6892 26.2065 21.6892 26.2065C21.6892 26.2065 17.5001 34.2346 18.6813 35.6456C19.8626 37.0565 26.1517 32.7253 26.797 32.9112C27.4423 33.0971 32.5829 38.1503 33.7204 37.1003ZM12.0313 48.3112C12.1735 48.18 13.5407 49.1315 13.8579 48.9018C14.1751 48.6721 13.6282 47.3159 13.6282 47.1737C13.6282 47.0315 15.1376 46.1675 15.0392 45.9487C14.9407 45.73 13.0813 45.5331 13.0813 45.5331C13.0813 45.5331 12.261 42.8862 11.9001 42.8862C11.5392 42.8862 10.8063 45.0737 10.8063 45.2596C10.8063 45.2596 8.93604 45.4456 8.93604 45.8065C8.93604 46.1675 10.5329 46.6268 10.5329 46.8128C10.5329 46.9987 10.1173 49.1315 10.1173 49.1315C10.3463 49.2696 10.5927 49.3763 10.8501 49.4487C11.1126 49.5471 11.8454 48.4534 12.0313 48.3112ZM37.647 49.0878C37.4173 48.3112 32.9985 47.994 32.9985 47.994C32.9985 47.994 31.6751 42.9409 30.3517 43.0284C29.0282 43.1159 26.5782 47.8628 26.3923 48.3112C26.3923 48.3112 21.5579 47.994 21.197 48.9018C20.836 49.8096 25.572 53.5503 25.572 53.9221C25.572 54.294 23.2423 59.1175 24.0626 59.9815C24.8829 60.8456 29.2142 57.2909 29.6298 57.2471C30.0454 57.2034 35.0985 59.5221 35.9188 58.8003C36.7392 58.0784 34.1798 53.9221 34.2235 53.594C34.2673 53.2659 37.822 49.8643 37.5923 49.0878H37.647ZM61.1517 33.6878C60.922 32.7253 54.5892 32.1784 54.5892 32.1784C54.5892 32.1784 52.4017 27.5737 51.0892 27.6721C49.7767 27.7706 47.0313 32.7253 46.8892 32.9112C46.8892 32.9112 41.0595 34.4096 41.0595 35.4159C41.0595 36.4221 45.522 39.3753 45.522 39.3753C45.522 39.3753 44.8438 46.4409 45.9376 47.0315C47.0313 47.6221 51.9532 42.8425 52.1829 42.8425C52.4126 42.8425 58.6142 46.4409 58.9313 46.1237C59.2485 45.8065 58.1548 39.5612 58.111 39.419C58.0673 39.2768 61.3813 34.6393 61.1517 33.6878ZM44.7454 54.0971C44.1725 54.9668 43.7441 55.9235 43.4767 56.93C43.4767 56.93 41.2892 58.0237 41.2892 58.2534C41.2892 58.4831 43.247 58.6581 43.2907 58.9315C43.3345 59.205 42.886 60.6159 43.1595 60.9331C43.4329 61.2503 44.472 59.9815 44.7017 59.8393C44.9313 59.6971 46.4407 60.7143 46.6595 60.5721C46.8782 60.43 46.2548 58.8878 46.2548 58.7018C46.2548 58.5159 48.2564 57.5206 48.1251 57.2034C47.9939 56.8862 45.9376 56.8862 45.7954 56.7878C45.6532 56.6893 45.161 53.8784 44.7454 54.0971Z" fill="#1D1D1B"/>
<path id="Vector_2" d="M20.2779 9.84378C21.0545 9.69065 21.492 10.4016 21.3717 11.0797C21.2513 11.7578 19.8623 11.9328 19.4138 11.5063C18.9654 11.0797 19.2607 10.0078 20.2779 9.84378Z" fill="#FFE19B"/>
<path id="Vector_3" d="M58.144 10.0842C58.3055 10.0629 58.4699 10.0816 58.6225 10.1387C58.7752 10.1957 58.9115 10.2893 59.0195 10.4114C59.1275 10.5334 59.2038 10.6801 59.2419 10.8386C59.28 10.997 59.2785 11.1624 59.2377 11.3202C59.1502 11.9983 57.7284 12.1733 57.2799 11.7467C56.8315 11.3202 57.1377 10.2811 58.144 10.0842Z" fill="#FFE19B"/>
<path id="Vector_4" d="M42.875 28.4373C42.9354 28.591 42.9575 28.7571 42.9393 28.9213C42.9211 29.0855 42.8631 29.2427 42.7705 29.3795C42.6779 29.5163 42.5534 29.6284 42.4077 29.7063C42.262 29.7841 42.0996 29.8253 41.9344 29.8263C41.2563 29.892 40.7422 28.5576 41.0594 28.0107C41.3766 27.4638 42.4375 27.5404 42.875 28.4373Z" fill="#CBE7F5"/>
<path id="Vector_5" d="M39.1235 40.8953C39.2896 40.8887 39.4548 40.9238 39.6039 40.9975C39.7529 41.0711 39.8812 41.1809 39.9769 41.3169C40.0726 41.4529 40.1328 41.6106 40.1518 41.7758C40.1709 41.941 40.1482 42.1083 40.086 42.2625C39.911 42.9188 38.4782 42.9188 38.0844 42.4375C37.6907 41.9563 38.0953 40.9609 39.1235 40.8953Z" fill="#CBE7F5"/>
<path id="Vector_6" d="M12.261 58.3405C12.3392 58.1944 12.4527 58.0701 12.5911 57.979C12.7296 57.8878 12.8886 57.8327 13.0537 57.8186C13.2188 57.8044 13.3849 57.8318 13.5368 57.8981C13.6887 57.9644 13.8216 58.0676 13.9235 58.1983C14.4048 58.6796 13.6829 59.9155 13.0704 60.014C12.4579 60.1124 11.8016 59.2593 12.261 58.3405Z" fill="#FFE19B"/>
<path id="Vector_7" d="M20.7812 20.7812C20.9016 20.3438 23.5594 21.1969 24.3797 20.9672C25.2 20.7375 25.8781 19.4141 26.2062 18.7797C26.5344 18.1453 27.8906 15.3125 28.2078 15.3125C28.525 15.3125 29.8922 20.5078 30.3953 20.8688C30.8984 21.2297 36.5422 21.9625 36.5969 22.1484C36.6516 22.3344 31.9375 27.125 31.8937 27.3438C31.85 27.5625 32.1672 34.3547 31.9922 34.2672C31.8172 34.1797 28.2953 30.9859 27.0156 30.8984C25.7359 30.8109 21.1422 33.5781 21 33.2609C20.8578 32.9438 24.2813 25.9219 24.1063 25.6047C23.9313 25.2875 20.7812 21.0656 20.7812 20.7812Z" fill="#FFE19B"/>
<g id="Group">
<path id="Vector_8" d="M25.014 22.5202C25.014 22.378 26.5671 20.3327 26.8843 20.5624C27.2015 20.7921 27.3875 21.0655 27.2015 21.339C26.7827 21.9675 26.2947 22.5472 25.7468 23.0671C25.5609 23.0671 24.9703 22.7499 25.014 22.5202Z" fill="#1D1D1B"/>
<path id="Vector_9" d="M27.1142 25.5278C27.9729 26.5584 28.7483 27.6556 29.433 28.8091C29.3455 29.0388 29.258 29.2138 29.1158 29.2138C28.128 28.2647 27.2275 27.2287 26.4252 26.1185C26.3814 25.845 26.972 25.8013 27.1142 25.5278Z" fill="#1D1D1B"/>
<path id="Vector_10" d="M27.5623 24.7077C27.4966 24.5764 28.0216 24.2921 28.2951 24.3467C29.0737 25.075 29.7342 25.92 30.2529 26.8514C30.2094 27.0671 30.1157 27.2694 29.9794 27.4421C29.9794 27.4421 27.7482 25.0249 27.5623 24.7077Z" fill="#1D1D1B"/>
<path id="Vector_11" d="M29.3017 23.2967C29.2142 23.1764 29.9361 22.7935 30.1658 22.881C30.3955 22.9685 31.4455 24.3467 31.3471 24.6639C31.2486 24.981 31.1721 25.167 30.9424 25.2107C30.7127 25.2545 29.433 23.4717 29.3017 23.2967Z" fill="#1D1D1B"/>
</g>
<path id="Vector_12" d="M25.1562 50.1377C25.2219 49.9189 27.3437 50.2689 27.5187 50.0502C27.6937 49.8314 29.7063 46.1236 29.9359 46.1674C30.1656 46.2111 31.2594 49.6783 31.3906 49.7221C31.5219 49.7658 34.4531 49.9955 34.4969 50.3236C34.5406 50.6518 32.0359 53.1018 32.1234 53.4627C32.502 54.3471 32.8057 55.2618 33.0313 56.1971C32.8563 56.1971 29.75 54.8299 29.4328 55.0158C28.7473 55.3727 28.0086 55.6164 27.2453 55.7377C27.1141 55.6064 27.8359 52.8721 27.7922 52.6424C27.7484 52.4127 25.1562 50.3127 25.1562 50.1377Z" fill="#F2910D"/>
<path id="Vector_13" d="M29.2578 51.1875C29.8899 51.7689 30.3865 52.4821 30.7125 53.2766C30.7125 53.55 30.4828 53.8781 30.3516 53.7797C29.7284 53.0974 29.1615 52.3659 28.6562 51.5922C28.6562 51.5047 29.1156 51.275 29.2578 51.1875Z" fill="#1D1D1B"/>
<path id="Vector_14" d="M30.3953 50.0503C31.0307 50.6288 31.5278 51.3428 31.85 52.1394C31.85 52.4128 31.6203 52.73 31.4891 52.6425C30.8694 51.9601 30.3061 51.2285 29.8047 50.455C29.8047 50.3675 30.2531 50.1378 30.3953 50.0503Z" fill="#1D1D1B"/>
<path id="Vector_15" d="M44.428 35.7329C44.1436 35.4485 48.1686 34.8251 48.3436 34.5517C48.5186 34.2782 50.8045 30.6798 51.078 30.7235C51.3514 30.7673 52.9483 34.136 53.178 34.1907C53.4076 34.2454 58.6467 34.6392 58.6467 34.9126C58.6467 35.186 55.9123 39.1126 55.9123 39.386C56.0677 40.3811 56.1445 41.3868 56.142 42.3939C55.0121 41.7521 53.9168 41.0511 52.8608 40.2939C52.9242 40.0698 52.9537 39.8376 52.9483 39.6048C52.3042 38.7426 51.5709 37.9507 50.7608 37.2423C50.5858 37.2423 50.0389 37.6032 50.2139 37.7454C50.8599 38.4951 51.4109 39.3217 51.8545 40.2064C51.767 40.3376 47.7967 44.0345 47.578 43.7064C47.3592 43.3782 48.2123 38.6095 48.0264 38.2376C47.8405 37.8657 44.7014 36.0064 44.428 35.7329Z" fill="#FAB900"/>
<path id="Vector_16" d="M51.9971 36.5969C51.9971 36.5969 52.5877 36.1484 52.7736 36.2359C53.5483 37.2755 54.1913 38.407 54.6877 39.6047C54.5893 39.8781 53.9986 40.0641 53.9986 40.0641C53.9986 40.0641 52.1721 36.6953 51.9971 36.5969Z" fill="#1D1D1B"/>
<path id="Vector_17" d="M54.2719 35.9184C54.1844 35.6559 54.8188 35.7325 55.0047 35.9184C55.1907 36.1043 55.7813 37.3293 55.5953 37.4715C55.4094 37.6137 55.0485 38.0184 54.961 37.8762C54.8735 37.734 54.3594 36.1918 54.2719 35.9184Z" fill="#1D1D1B"/>
</g>
</svg>
