<svg width="70" height="70" viewBox="0 0 70 70" fill="none" xmlns="http://www.w3.org/2000/svg">
<g id="alien-obduction-svgrepo-com">
<path id="Vector" d="M66.4781 39.025C66.4781 32.1234 66.6422 15.8156 66.3031 10.6531C65.9641 5.49063 62.8141 5.11875 61.075 5.05313C59.3359 4.9875 50.7828 4.71407 42.3063 4.57188C33.8297 4.42969 20.7812 3.71875 15.2359 3.99219C9.69063 4.26563 7.65625 5.22813 5.46875 6.90157C3.28125 8.575 3.4125 12.8078 3.34687 14.9953C3.34687 14.9953 3.28125 24.6422 3.28125 33.0094C3.28125 41.3766 3.68594 58.1656 3.68594 61.3813C3.68594 64.5969 4.71406 64.9031 5.05312 65.0016C6.72237 65.1473 8.39809 65.2057 10.0734 65.1766C10.4234 65.1109 14.5906 58.275 18.2109 52.3906C21.8312 46.5063 32.025 31.2375 33.4578 29.4219C34.8906 27.6063 37.5266 24.2922 38.6531 24.4344C39.7797 24.5766 39.3312 26.1078 39.3312 26.7531C39.3312 27.3984 37.8328 38.9922 36.5969 44.8438C35.3609 50.6953 31.8828 63.7766 31.9484 64.9688C32.0141 66.1609 33.0422 66.0625 34.3109 66.0625C35.5797 66.0625 40.6984 66.0625 45.8281 65.9641C50.9578 65.8656 55.0594 65.7563 58.9531 65.4172C62.8469 65.0781 66.0953 63.875 66.5438 62.2672C66.9922 60.6594 66.4781 45.9375 66.4781 39.025ZM32.7359 49.2844C32.5719 48.9344 30.7891 49.4484 30.4828 49.6234C30.1766 49.7984 30.3078 53.1781 30.3078 53.1781C29.5053 52.824 28.6701 52.5492 27.8141 52.3578C27.0178 52.2014 26.1922 52.3089 25.4625 52.6641C25.4761 52.4711 25.4761 52.2774 25.4625 52.0844C25.4426 51.8225 25.3477 51.5719 25.1891 51.3625C25.4103 51.2126 25.6156 51.0404 25.8016 50.8484C26.1258 50.4961 26.3088 50.0366 26.3156 49.5578C26.3156 49.35 26.2172 49.2844 25.9766 49.2844C25.7359 49.2844 25.3969 50.0281 25.1891 50.1703C24.8455 50.4907 24.3899 50.6635 23.9203 50.6516C23.3839 50.7176 22.8402 50.6917 22.3125 50.575C22.3125 50.575 22.0063 49.3828 21.9078 49.0766C21.8094 48.7703 21.3937 48.9344 21.1531 49.0766C20.9125 49.2188 21.525 51.0891 21.525 51.0891C21.235 51.4008 21.0422 51.7903 20.9703 52.21C20.8984 52.6296 20.9505 53.0611 21.1203 53.4516C21.2501 53.7854 21.4516 54.0867 21.7105 54.3343C21.9694 54.5818 22.2794 54.7696 22.6187 54.8844C22.5727 55.326 22.6326 55.7722 22.7938 56.1859C22.8535 56.4532 22.9881 56.698 23.1818 56.8917C23.3755 57.0853 23.6202 57.2199 23.8875 57.2797C23.842 58.2035 23.8786 59.1296 23.9969 60.0469C24.1609 60.3531 24.6094 60.2219 24.7734 60.1781C24.8611 59.2944 24.8611 58.4041 24.7734 57.5203L25.2219 57.5859C25.2219 57.5859 25.3969 59.5656 25.4625 59.8719C25.5281 60.1781 26.0094 60.1453 26.2172 60.0469C26.2918 59.2703 26.266 58.4873 26.1406 57.7172C26.5619 57.7704 26.9881 57.7704 27.4094 57.7172C27.9562 57.6188 28.5031 57.4766 28.5031 57.4766C28.5031 57.4766 28.5688 59.9047 28.6016 60.0797C28.6344 60.2547 29.2578 60.2109 29.4984 60.0797C29.6339 59.1525 29.656 58.2122 29.5641 57.2797L30.0781 56.875C30.0781 56.875 30.1766 58.9969 30.2094 59.2047C30.2422 59.4125 30.6906 59.2047 30.8547 58.9969C30.9405 58.1679 30.9405 57.3322 30.8547 56.5031L31.1281 56.0219C31.2926 55.1093 31.3476 54.1803 31.2922 53.2547C31.3578 52.5766 31.4672 50.8922 31.5328 50.7609C31.9391 50.5138 32.3675 50.3051 32.8125 50.1375C33.0094 50.0281 32.9109 49.6234 32.7359 49.2844Z" fill="#1D1D1B"/>
<path id="Vector_2" d="M7.65612 7.91873C9.078 6.82498 11.6811 6.04842 15.3124 5.73123C18.9436 5.41405 33.2171 6.2453 39.9874 6.51873C46.7577 6.79217 57.8264 6.96717 60.0467 7.0328C62.2671 7.09842 64.3561 8.06092 64.5311 11.1344C64.7061 14.2078 64.6952 26.2828 64.6952 32.7359C64.6952 39.189 64.6296 53.9656 64.5968 57.1047C64.5639 60.2437 64.5967 61.1078 63.2624 62.1031C61.928 63.0984 56.4264 63.8422 51.0233 63.9406C45.6202 64.0391 39.4077 64.1156 37.3514 64.1156C35.2952 64.1156 34.3108 64.2141 34.2452 64.05C34.1796 63.8859 37.2202 51.7781 38.4452 44.3625C39.6702 36.9469 40.9717 29.5969 40.9717 29.5969C42.086 30.1018 43.2577 30.4691 44.4608 30.6906C46.2108 30.964 48.4967 30.4172 49.3171 28.6015C50.1374 26.7859 49.4921 23.8219 49.2186 23.1328C48.9745 22.6025 48.6738 22.1001 48.3218 21.6344C48.5495 20.9571 48.6999 20.2563 48.7702 19.5453C48.7702 18.9213 48.6893 18.3 48.5296 17.6969C48.7837 17.4856 49.0895 17.346 49.4155 17.2922C49.9853 17.2154 50.5629 17.2154 51.1327 17.2922C51.4233 17.8027 51.8184 18.2462 52.2921 18.5937C52.8717 18.9 54.4796 18.4625 55.0264 16.4062C55.1507 16.1204 55.2038 15.8087 55.1811 15.4979C55.1583 15.1871 55.0604 14.8864 54.8958 14.6218C54.7312 14.3571 54.5048 14.1364 54.2361 13.9785C53.9674 13.8207 53.6643 13.7305 53.353 13.7156C52.5694 13.8897 51.8767 14.3449 51.4061 14.9953C51.2019 15.339 51.0403 15.7063 50.9249 16.089C50.388 16.0695 49.8505 16.0914 49.3171 16.1547C48.8743 16.2768 48.4396 16.4266 48.0155 16.6031C47.7006 15.589 47.0533 14.7105 46.178 14.1094C45.2973 13.4536 44.2244 13.1075 43.1264 13.125L42.1749 11.0797C42.5353 10.8921 42.8164 10.5813 42.967 10.2039C43.1176 9.82652 43.1276 9.40759 42.9952 9.02342C42.4811 7.65623 41.5624 7.17498 39.9217 7.8203C39.6087 7.92011 39.33 8.10606 39.1177 8.35685C38.9054 8.60765 38.7679 8.91317 38.7211 9.23843C38.6743 9.56369 38.7201 9.89555 38.8531 10.196C38.9861 10.4965 39.2011 10.7535 39.4733 10.9375C40.0078 11.2594 40.6213 11.426 41.2452 11.4187L41.7264 13.0594C41.143 13.0021 40.559 13.1617 40.0858 13.5078C39.6871 13.7719 39.3388 14.1053 39.0577 14.4922C37.6008 14.0326 36.0532 13.9387 34.5514 14.2187C33.4335 14.3483 32.4086 14.9036 31.6895 15.7693C30.9705 16.635 30.6127 17.7445 30.6905 18.8672C30.8876 20.7253 31.6513 22.478 32.878 23.8875C33.2094 24.3379 33.575 24.7621 33.9717 25.1562C31.7323 27.9598 29.6755 30.9044 27.8139 33.9719C24.5327 39.2656 18.2108 49.4156 16.0233 52.9375C13.8358 56.4594 9.46081 63.2625 9.22019 63.3281C8.19768 63.4977 7.15107 63.453 6.14675 63.1969C5.63269 62.8141 5.63269 56.9406 5.70925 53.5937C5.78581 50.2469 5.29362 30.1437 5.228 23.275C5.16237 16.4062 4.2655 10.5875 7.65612 7.91873Z" fill="#1F4863"/>
<path id="Vector_3" d="M15.0719 21.3608C15.6844 21.3608 16.6797 21.3608 16.1656 22.378C15.6515 23.3952 13.8687 25.189 15.3781 28.1968C16.8875 31.2046 17.5656 31.303 18.2875 31.478C19.0093 31.653 19.7531 31.3796 19.9281 31.7187C20.1031 32.0577 20.2672 32.2655 19.9281 32.5718C18.6301 33.3064 17.1357 33.6189 15.6522 33.4661C14.1686 33.3132 12.7693 32.7025 11.6484 31.7187C7.96248 28.4374 9.36248 25.0577 11.0359 23.3843C12.0996 22.2537 13.5296 21.5368 15.0719 21.3608Z" fill="#1D1D1B"/>
<path id="Vector_4" d="M14.0438 22.7938C14.4922 22.6188 14.3829 23.1657 14.2844 23.3735C13.7656 24.1729 13.4896 25.1056 13.4896 26.0586C13.4896 27.0117 13.7656 27.9443 14.2844 28.7438C15.9907 31.8172 16.1001 31.7844 16.0563 31.9157C15.1777 32.0769 14.2706 31.959 13.4624 31.5785C12.6542 31.1979 11.9855 30.5738 11.5501 29.7938C9.90943 27.1688 10.7297 24.0625 14.0438 22.7938Z" fill="#CBE7F5"/>
<path id="Vector_5" d="M24.6093 22.2469C26.3265 21.8969 27.4749 23.1984 26.7968 25.1125C26.1187 27.0266 24.6093 27.3 23.3734 26.2062C23.0709 25.9043 22.8569 25.5253 22.7546 25.1104C22.6523 24.6954 22.6655 24.2604 22.7928 23.8525C22.9202 23.4445 23.1568 23.0792 23.477 22.7962C23.7972 22.5131 24.1888 22.3232 24.6093 22.2469Z" fill="#1D1D1B"/>
<path id="Vector_6" d="M24.7076 23.2532C25.6701 23.0563 26.3045 23.7891 25.9326 24.861C25.5608 25.9329 24.7295 26.0969 24.0186 25.4626C23.8482 25.2948 23.7274 25.0833 23.6693 24.8514C23.6113 24.6195 23.6182 24.376 23.6894 24.1478C23.7606 23.9195 23.8933 23.7153 24.0729 23.5575C24.2525 23.3997 24.4721 23.2944 24.7076 23.2532Z" fill="#FFE19B"/>
<path id="Vector_7" d="M57.9033 18.1343C59.2814 17.8499 60.1892 18.889 59.6533 20.4203C59.1173 21.9515 57.9361 22.1812 56.9298 21.2843C56.6883 21.0452 56.5171 20.7444 56.4345 20.4147C56.352 20.085 56.3615 19.739 56.4618 19.4143C56.5621 19.0896 56.7496 18.7986 57.0037 18.5729C57.2578 18.3472 57.569 18.1956 57.9033 18.1343Z" fill="#1D1D1B"/>
<path id="Vector_8" d="M57.9688 18.9328C58.7344 18.7796 59.2485 19.3593 58.9422 20.2124C58.636 21.0656 57.9797 21.1968 57.4219 20.6937C57.3033 20.5533 57.222 20.3854 57.1854 20.2053C57.1489 20.0252 57.1583 19.8388 57.2128 19.6634C57.2673 19.4879 57.3651 19.329 57.4972 19.2013C57.6294 19.0736 57.7915 18.9812 57.9688 18.9328Z" fill="#FFE19B"/>
<path id="Vector_9" d="M13.1906 39.0253C14.2843 38.4894 16.264 38.6535 15.6843 41.1472C15.1046 43.641 12.6765 43.7831 12.0968 42.7878C11.9021 42.4738 11.7756 42.1224 11.7255 41.7564C11.6754 41.3903 11.7028 41.0178 11.806 40.6631C11.9091 40.3083 12.0856 39.9792 12.3242 39.697C12.5627 39.4149 12.8579 39.186 13.1906 39.0253Z" fill="#1D1D1B"/>
<path id="Vector_10" d="M13.4315 39.9218C14.0658 39.6155 15.1596 39.714 14.8424 41.114C14.5252 42.514 13.1471 42.5905 12.819 42.0327C12.7093 41.8567 12.638 41.6596 12.6096 41.4542C12.5812 41.2488 12.5964 41.0397 12.6542 40.8406C12.712 40.6414 12.811 40.4567 12.945 40.2984C13.0789 40.1401 13.2446 40.0118 13.4315 39.9218Z" fill="#FFE19B"/>
<path id="Vector_11" d="M17.1828 13.9782C17.1828 13.9782 16.6359 12.9501 16.8109 12.8845C17.0287 12.7491 17.2768 12.6701 17.5328 12.6548C17.7563 13.1575 17.9285 13.6815 18.0468 14.2188H18.3859C18.3859 14.2188 18.6265 13.3329 18.8672 13.3001C19.1078 13.2673 19.4468 13.3001 19.3703 13.5079C19.2937 13.7157 19.0312 14.361 19.0312 14.361C19.0312 14.361 20.1906 14.1532 20.2672 14.361C20.3437 14.5688 20.5734 15.0392 20.2672 15.072L19.064 15.2142C19.1031 15.314 19.1176 15.4218 19.1061 15.5284C19.0947 15.6351 19.0578 15.7374 18.9984 15.8267C18.9025 15.9671 18.7752 16.0831 18.6265 16.1657C18.6265 16.1657 19.1406 17.3688 18.8672 17.5767C18.6693 17.7032 18.4445 17.7819 18.2109 17.8063L17.839 16.2751C17.839 16.2751 16.8437 17.4673 16.5703 17.3688C16.2968 17.2704 15.75 16.8548 15.8922 16.7563C16.0343 16.6579 16.9859 15.6626 16.9859 15.6626C16.5082 15.7343 16.0244 15.7563 15.5422 15.7282C15.5422 15.6188 15.3781 15.1157 15.5422 15.0392C15.7062 14.9626 16.3625 14.7657 16.3625 14.7657C16.3625 14.7657 15.6515 14.6017 15.6515 14.4267C15.6515 14.2517 16.0234 13.5079 16.1547 13.6063C16.4909 13.7475 16.8341 13.8716 17.1828 13.9782Z" fill="#E6E4DA"/>
<path id="Vector_12" d="M26.3158 11.2439C26.3158 11.2439 26.1408 10.6205 26.5236 10.5876C26.9064 10.5548 27.508 10.5876 27.508 10.4564C27.508 10.3251 27.2017 8.97983 27.4424 8.84858C27.683 8.71733 28.1642 8.57514 28.1205 8.78295C28.0767 8.99077 28.2299 10.2486 28.2299 10.2486C28.2299 10.2486 29.1158 9.52671 29.3236 9.66889C29.4459 9.7928 29.5393 9.94219 29.597 10.1064L28.6345 10.8611C29.0895 10.9125 29.5371 11.0153 29.9689 11.1673C29.9689 11.2767 30.1767 11.747 29.7283 11.747H28.5361C28.6419 12.0688 28.7774 12.38 28.9408 12.6767C29.1486 12.983 29.3892 13.158 29.2142 13.2892C29.0392 13.4205 28.3611 13.6611 28.2955 13.5626C28.2299 13.4642 27.8908 12.5673 27.7814 12.3705C27.672 12.1736 27.5408 11.922 27.5408 11.922C27.5408 11.922 26.8955 12.6111 26.8299 12.5673C26.7642 12.5236 26.2064 12.0642 26.3486 11.9548L26.9611 11.5173L26.3158 11.2439Z" fill="#E6E4DA"/>
<g id="Group">
<path id="Vector_13" d="M40.8078 8.54218C41.7703 8.3453 42.2406 8.97968 42.2078 9.46093C42.175 9.94218 40.8734 10.6203 40.3594 10.2484C39.8453 9.87655 39.4734 8.81562 40.8078 8.54218Z" fill="#8EC480"/>
<path id="Vector_14" d="M40.4688 14.8639C40.5781 14.7217 41.1578 14.0764 43.4109 14.5249C45.6641 14.9733 46.6922 15.717 47.3047 17.2155C47.6538 18.1383 47.6808 19.152 47.3813 20.092C46.3523 18.9273 45.1926 17.885 43.925 16.9858C42.8634 16.1407 41.7028 15.4282 40.4688 14.8639Z" fill="#8EC480"/>
<path id="Vector_15" d="M53.1126 14.8638C53.922 14.5029 54.272 15.7497 54.0314 16.5701C53.9835 16.7453 53.8961 16.9072 53.776 17.0435C53.6559 17.1799 53.5063 17.2869 53.3385 17.3566C53.1707 17.4262 52.9893 17.4566 52.8079 17.4454C52.6266 17.4342 52.4503 17.3817 52.2923 17.2919C51.7455 16.9091 51.6361 15.5091 53.1126 14.8638Z" fill="#8EC480"/>
</g>
<path id="Vector_16" d="M49.1093 9.39548C49.3551 9.2259 49.6412 9.12382 49.9388 9.09944C50.2365 9.07507 50.5354 9.12925 50.8055 9.25658C51.0757 9.38391 51.3077 9.57993 51.4784 9.82503C51.649 10.0701 51.7523 10.3557 51.778 10.6533C51.9093 12.3377 49.4921 12.5345 48.8358 11.5502C48.1796 10.5658 48.2562 10.0408 49.1093 9.39548Z" fill="#1D1D1B"/>
<path id="Vector_17" d="M49.6889 10.1172C49.7903 10.0477 49.9083 10.0061 50.031 9.99668C50.1536 9.98727 50.2766 10.0103 50.3875 10.0636C50.4984 10.1168 50.5933 10.1983 50.6627 10.2999C50.732 10.4015 50.7734 10.5195 50.7826 10.6422C50.7826 11.3203 49.842 11.4078 49.5795 11.0032C49.317 10.5985 49.3389 10.3907 49.6889 10.1172Z" fill="#FFE19B"/>
<path id="Vector_18" d="M55.0265 27.814C55.1577 27.814 56.4921 27.9562 56.5249 27.814C56.5577 27.6718 56.6015 26.0093 56.9733 26.0093C57.3452 26.0093 57.728 26.0093 57.6515 26.2062C57.5215 26.6609 57.4661 27.1337 57.4874 27.6062C57.5858 27.6062 58.789 26.4468 58.9858 26.5124C59.1827 26.578 59.6093 26.7421 59.4999 26.9171C59.3905 27.0921 57.6952 28.6233 57.6952 28.6233C57.8107 29.3832 57.8546 30.1522 57.8265 30.9202C57.6952 30.9202 57.1046 31.1608 57.0062 30.9202C56.9024 30.3525 56.833 29.7791 56.7983 29.203C56.7983 29.203 55.9124 30.4718 55.7046 30.2968C55.4968 30.1218 55.0921 29.6187 55.2671 29.5202C55.4421 29.4218 56.2187 28.6999 56.2187 28.6999L54.9937 28.4921L55.0265 27.814Z" fill="#E6E4DA"/>
<path id="Vector_19" d="M44.7016 32.9764C44.9366 32.8227 45.2132 32.7451 45.4939 32.7541C45.7745 32.7632 46.0456 32.8584 46.2702 33.0269C46.4948 33.1953 46.6621 33.4289 46.7494 33.6958C46.8366 33.9626 46.8396 34.2499 46.7579 34.5185C46.7149 34.8072 46.5861 35.0763 46.3883 35.2908C46.1904 35.5054 45.9325 35.6554 45.6483 35.7215C45.364 35.7875 45.0664 35.7665 44.7942 35.6612C44.522 35.556 44.2878 35.3712 44.1219 35.131C43.9505 34.7609 43.9147 34.3423 44.0207 33.9485C44.1266 33.5546 44.3677 33.2105 44.7016 32.9764Z" fill="#1D1D1B"/>
<path id="Vector_20" d="M45.0843 33.7203C45.1823 33.6525 45.2991 33.6171 45.4183 33.6192C45.5374 33.6214 45.6529 33.6609 45.7484 33.7322C45.8439 33.8035 45.9146 33.903 45.9505 34.0167C45.9863 34.1303 45.9856 34.2524 45.9484 34.3656C45.9279 34.4835 45.8734 34.5928 45.7916 34.68C45.7097 34.7673 45.6041 34.8286 45.4878 34.8566C45.3715 34.8845 45.2495 34.8777 45.137 34.8371C45.0245 34.7965 44.9263 34.7239 44.8546 34.6281C44.7851 34.473 44.7699 34.299 44.8116 34.1343C44.8533 33.9695 44.9494 33.8237 45.0843 33.7203Z" fill="#FFE19B"/>
<path id="Vector_21" d="M44.7672 49.9627C45.0022 49.809 45.2788 49.7314 45.5594 49.7405C45.8401 49.7495 46.1111 49.8447 46.3357 50.0132C46.5604 50.1817 46.7277 50.4152 46.8149 50.6821C46.9022 50.949 46.9051 51.2362 46.8234 51.5049C46.7805 51.7936 46.6517 52.0626 46.4538 52.2772C46.2559 52.4917 45.9981 52.6417 45.7138 52.7078C45.4295 52.7739 45.1319 52.7529 44.8597 52.6476C44.5875 52.5423 44.3533 52.3575 44.1875 52.1174C44.0183 51.7469 43.9836 51.329 44.0894 50.9357C44.1952 50.5423 44.4349 50.1982 44.7672 49.9627Z" fill="#1D1D1B"/>
<path id="Vector_22" d="M45.1498 50.7066C45.2478 50.6388 45.3646 50.6034 45.4838 50.6056C45.6029 50.6077 45.7184 50.6472 45.8139 50.7185C45.9094 50.7898 45.9801 50.8894 46.0159 51.003C46.0518 51.1167 46.0511 51.2387 46.0138 51.352C45.9934 51.4698 45.9389 51.5791 45.8571 51.6664C45.7752 51.7536 45.6696 51.815 45.5533 51.8429C45.437 51.8708 45.315 51.864 45.2025 51.8234C45.09 51.7829 44.9918 51.7102 44.9201 51.6144C44.8464 51.4601 44.8291 51.2849 44.871 51.1191C44.913 50.9533 45.0116 50.8074 45.1498 50.7066Z" fill="#FFE19B"/>
<path id="Vector_23" d="M56.186 44.8438C56.4191 44.6849 56.696 44.6028 56.9781 44.6087C57.2601 44.6146 57.5333 44.7084 57.7596 44.8769C57.9859 45.0454 58.154 45.2802 58.2405 45.5488C58.327 45.8173 58.3276 46.1061 58.2422 46.375C58.1993 46.6637 58.0705 46.9328 57.8726 47.1473C57.6747 47.3618 57.4169 47.5119 57.1326 47.578C56.8483 47.644 56.5507 47.623 56.2785 47.5177C56.0063 47.4124 55.7721 47.2277 55.6063 46.9875C55.4356 46.619 55.4002 46.2022 55.5062 45.8102C55.6122 45.4182 55.8529 45.076 56.186 44.8438Z" fill="#1D1D1B"/>
<path id="Vector_24" d="M56.5687 45.6094C56.6685 45.5467 56.785 45.5159 56.9028 45.5211C57.0205 45.5263 57.1339 45.5673 57.2278 45.6386C57.3216 45.7099 57.3916 45.8081 57.4282 45.9201C57.4648 46.0321 57.4664 46.1527 57.4327 46.2657C57.4107 46.3827 57.355 46.4907 57.2725 46.5766C57.1899 46.6625 57.0842 46.7224 56.9681 46.7491C56.8521 46.7758 56.7307 46.7681 56.619 46.7269C56.5073 46.6857 56.41 46.6129 56.339 46.5172C56.2695 46.3621 56.2543 46.1881 56.296 46.0234C56.3377 45.8586 56.4338 45.7128 56.5687 45.6094Z" fill="#FFE19B"/>
<path id="Vector_25" d="M56.3282 55.9453C56.5622 55.7887 56.8391 55.7089 57.1206 55.7168C57.402 55.7248 57.674 55.8201 57.8988 55.9896C58.1236 56.1592 58.2901 56.3944 58.3751 56.6628C58.4602 56.9312 58.4596 57.2194 58.3735 57.4875C58.3306 57.7761 58.2018 58.0452 58.0039 58.2598C57.806 58.4743 57.5482 58.6243 57.2639 58.6904C56.9796 58.7564 56.682 58.7355 56.4098 58.6302C56.1376 58.5249 55.9034 58.3401 55.7376 58.1C55.5694 57.7283 55.5364 57.3095 55.6443 56.9161C55.7521 56.5227 55.994 56.1793 56.3282 55.9453Z" fill="#1D1D1B"/>
<path id="Vector_26" d="M56.6998 56.6893C56.7988 56.6243 56.9153 56.5912 57.0337 56.5945C57.1521 56.5977 57.2666 56.6371 57.3619 56.7074C57.4572 56.7777 57.5287 56.8755 57.5668 56.9876C57.6048 57.0997 57.6076 57.2208 57.5748 57.3346C57.5544 57.4524 57.4999 57.5617 57.418 57.649C57.3362 57.7362 57.2306 57.7976 57.1143 57.8255C56.998 57.8534 56.876 57.8467 56.7635 57.8061C56.651 57.7655 56.5528 57.6928 56.4811 57.5971C56.4063 57.4439 56.3872 57.2695 56.4271 57.1038C56.4671 56.9381 56.5635 56.7915 56.6998 56.6893Z" fill="#FFE19B"/>
<path id="Vector_27" d="M49.2187 39.572C49.2187 39.572 48.803 38.5876 49.0109 38.4126C49.2187 38.2376 49.5249 38.0735 49.5905 38.2376C49.6562 38.4017 50.0718 39.6048 50.0718 39.6048C50.0718 39.6048 50.4765 38.7845 50.6515 38.7845C50.8265 38.7845 51.3296 38.7845 51.2968 38.9595C51.1753 39.2452 51.0289 39.5197 50.8593 39.7798C50.8593 39.7798 52.0515 39.9548 52.0515 40.1189C52.016 40.3431 51.9574 40.563 51.8765 40.7751L50.5421 40.9064C50.5421 40.9064 51.3296 42.8532 51.1655 42.9954C51.0015 43.1376 50.5093 43.3017 50.4437 43.1923C50.2911 42.636 50.1085 42.0883 49.8968 41.5517C49.7984 41.5517 48.9015 43.2689 48.7374 43.1595C48.5734 43.0501 48.0155 42.8532 48.1249 42.722C48.2343 42.5907 48.9452 41.8251 48.803 41.7267C48.6609 41.6282 47.9499 41.661 47.9171 41.4204C47.8843 41.1798 47.9171 40.6985 48.0484 40.6657C48.1796 40.6329 48.8359 40.5673 48.8359 40.5673C48.8359 40.5673 47.9827 40.1517 48.0484 39.9876C48.114 39.8235 47.9827 39.3314 48.3984 39.4407C48.6684 39.5035 48.9425 39.5474 49.2187 39.572Z" fill="#E6E4DA"/>
<path id="Vector_28" d="M43.0611 55.9782C43.0611 55.9782 43.3673 55.6391 43.5423 55.7047C43.8467 56.0767 44.1107 56.48 44.3298 56.9078C44.3298 56.9078 44.6033 56.1532 44.8001 56.2188C44.997 56.2844 45.2486 56.2188 45.1829 56.3938C45.1173 56.5688 44.8439 57.8266 44.8439 57.8266C44.8439 57.8266 46.4517 58.3078 46.4517 58.6141C46.4517 58.9203 46.4517 59.1938 46.3423 59.1938C46.2329 59.1938 45.4236 59.0516 45.4236 59.0516C45.4236 59.0516 45.5876 59.7078 45.4236 59.7735L45.1501 59.8719L44.2642 58.8547C44.2642 58.8547 43.8158 60.2547 43.6408 60.2219L42.7876 60.0797L42.8533 59.325C42.8533 59.325 42.4158 59.325 42.3064 59.0188C42.197 58.7125 42.0329 57.761 42.3064 57.7282C42.5798 57.6953 43.6736 57.7282 43.6408 57.6188C43.6079 57.5094 43.0939 56.2188 43.0611 55.9782Z" fill="#E6E4DA"/>
<path id="Vector_29" d="M22.6517 51.7125C23.1438 51.625 24.2595 51.3953 24.5001 51.8766C24.5812 51.9869 24.6386 52.1127 24.6688 52.2463C24.6991 52.3798 24.7014 52.5181 24.6758 52.6526C24.6501 52.7871 24.597 52.9148 24.5197 53.0278C24.4424 53.1408 24.3427 53.2367 24.2267 53.3094C23.92 53.4899 23.5757 53.5967 23.2207 53.6213C22.8658 53.646 22.51 53.5879 22.1813 53.4516C22.0063 53.2438 21.2517 51.9422 22.6517 51.7125Z" fill="#F2910D"/>
<path id="Vector_30" d="M24.0624 54.4796C25.0635 53.6824 26.3046 53.2469 27.5843 53.2437C29.2577 53.3858 29.8483 53.9327 30.0124 54.4796C30.151 54.793 30.1647 55.1474 30.0509 55.4705C29.9371 55.7937 29.7043 56.0613 29.3999 56.2187C28.1456 56.8032 26.7189 56.9006 25.3968 56.4921C23.5155 56.0874 23.439 55.0593 24.0624 54.4796Z" fill="#F2910D"/>
<path id="Vector_31" d="M34.8252 23.9529C34.7595 23.8217 31.9923 20.9779 32.1892 18.8998C32.3861 16.8217 32.8455 14.5248 37.2533 15.6186C41.6611 16.7123 44.6361 18.5826 46.5502 21.317C48.4642 24.0514 48.6283 26.2389 48.4314 26.9607C48.3404 27.316 48.2121 27.6606 48.0486 27.9889C48.0486 27.9889 45.6642 23.7451 45.4892 23.7451C45.3142 23.7451 44.6361 24.1936 44.8002 24.3686C44.9642 24.5436 47.8517 28.8092 47.6111 28.9076C47.3705 29.0061 46.8564 29.2139 46.8564 29.2139C46.8564 29.2139 44.4611 24.9811 44.2533 24.9154C44.0455 24.8498 43.433 25.1123 43.5752 25.2545C43.7173 25.3967 46.1345 29.3232 46.0361 29.3561C45.741 29.3726 45.4452 29.3726 45.1502 29.3561L43.0611 25.9326C43.0611 25.9326 42.5142 26.1076 42.5798 26.2389C42.6455 26.3701 44.4283 29.4217 44.297 29.4217C44.1658 29.4217 42.5798 28.8092 42.3392 28.6998L41.0814 28.1529C41.0814 28.1529 41.9017 24.642 41.1798 23.6467C40.458 22.6514 40.3267 21.7982 38.3798 22.0389C37.0311 22.3096 35.7936 22.9759 34.8252 23.9529Z" fill="#C8DB89"/>
<path id="Vector_32" d="M33.4248 18.5935C33.48 18.2874 33.6169 18.0018 33.821 17.7669C34.025 17.532 34.2887 17.3566 34.5842 17.2592C35.6123 16.9092 36.1264 17.1826 36.2576 17.5326C36.3889 17.8826 36.4982 18.2107 36.1264 18.2763C35.7545 18.342 35.0982 18.0029 34.617 18.517C34.1357 19.031 34.4529 19.2388 34.0373 19.2388C33.6217 19.2388 33.5232 18.7248 33.4248 18.5935Z" fill="#1D1D1B"/>
</g>
</svg>
