<svg width="70" height="70" viewBox="0 0 70 70" fill="none" xmlns="http://www.w3.org/2000/svg">
<g id="alien-2-svgrepo-com">
<path id="Vector" d="M18.1452 15.3128C21.4781 11.9106 25.6515 9.45033 30.2421 8.18157C37.4171 6.39876 43.1593 7.08782 47.053 9.54876C50.9468 12.0097 52.1171 14.3284 52.1171 14.3284L54.6874 12.4144C54.6874 12.4144 52.1608 6.39876 57.4983 4.96595C62.8358 3.53314 63.853 7.90814 63.6452 11.3206C63.4374 14.7331 61.0749 15.4222 60.1561 15.5644C59.1568 15.5524 58.165 15.3902 57.2139 15.0831L54.2827 19.4581C55.2865 21.5858 55.8377 23.8986 55.9014 26.2503C56.013 28.2849 55.9727 30.3249 55.7811 32.3534C55.7811 32.3534 59.7077 33.9941 59.8389 33.9941C59.9702 33.9941 63.0327 32.9003 64.1264 33.8081C65.2202 34.716 64.903 35.5472 64.903 35.5472C64.903 35.5472 67.0905 35.5472 66.5874 37.4613C66.501 37.9643 66.288 38.4371 65.9684 38.8351C65.6489 39.2331 65.2333 39.5432 64.7608 39.7363C65.0536 39.8903 65.2746 40.1526 65.3767 40.4673C65.4789 40.7819 65.4541 41.124 65.3077 41.4206C64.9602 42.0227 64.4071 42.4791 63.7501 42.7061C63.0931 42.9332 62.3762 42.9156 61.7311 42.6566C60.5382 41.7976 59.6464 40.5844 59.1827 39.1894C59.0221 38.6397 58.9159 38.0755 58.8655 37.505L55.3983 36.4113C55.3983 36.4113 52.5764 45.8394 51.3405 49.7113C50.1046 53.5831 49.3827 56.0988 49.3827 56.0988C49.3827 56.0988 53.6155 56.0988 54.1186 58.1878C54.6218 60.2769 54.578 63.5691 54.1186 63.8863C53.6593 64.2035 48.6499 64.6191 44.9202 64.6191C41.1905 64.6191 39.9546 63.755 39.9983 63.1644C40.0421 62.5738 39.9983 54.9066 39.7249 54.7753C38.2721 54.5948 36.8026 54.5948 35.3499 54.7753C33.5233 54.9503 32.1999 55.4535 32.1561 55.8691C32.1124 56.2847 32.4296 63.8425 32.1561 64.3456C31.8827 64.8488 25.3202 65.3847 21.0327 65.4394C16.7452 65.4941 16.0233 65.4394 16.0233 64.98C16.0233 64.5206 15.2905 59.5113 16.7124 58.7347C18.3727 58.154 20.1001 57.7865 21.853 57.641C21.853 57.641 18.7139 49.0769 17.1608 44.7894C15.6077 40.5019 14.5686 37.2206 14.5686 37.2206L11.0139 38.2816C11.0139 38.2816 11.3311 40.0535 10.4671 40.6988C9.60301 41.3441 8.00613 41.7925 7.18582 40.6988C6.95895 40.3688 6.80794 39.9927 6.74365 39.5975C6.67935 39.2022 6.70336 38.7977 6.81394 38.4128C6.36125 38.14 5.98844 37.7527 5.73306 37.29C5.47768 36.8272 5.34875 36.3053 5.35926 35.7769C5.58894 34.18 6.22332 33.5894 6.59519 33.4035C6.90529 33.3214 7.22691 33.2919 7.54676 33.3159C7.54676 33.3159 8.49832 31.5331 9.84363 31.8941C10.2049 31.9572 10.537 32.133 10.7923 32.3962C11.0477 32.6595 11.2133 32.9967 11.2655 33.3597L13.7264 32.4409C13.1264 29.9291 13.0779 27.3171 13.5843 24.7847C13.926 22.6914 14.7872 20.7171 16.0889 19.0425L11.2655 13.9894C10.6174 14.4492 9.88401 14.7751 9.10835 14.9479C8.33269 15.1207 7.53034 15.1369 6.74832 14.9956C4.37488 14.3941 2.18738 12.0316 4.07957 8.43314C5.97176 4.8347 12.0311 4.50657 13.5186 6.56282C15.0061 8.61907 13.5186 11.2988 13.5186 11.2988L18.1452 15.3128Z" fill="#1D1D1B"/>
<path id="Vector_2" d="M9.0998 34.311L8.49824 33.3595C8.49824 33.3595 8.72793 32.2657 9.64668 32.6704C10.5654 33.0751 10.7404 34.4095 10.8717 34.3548C11.0029 34.3001 13.6061 33.3157 13.7482 33.5892C13.8904 33.8626 14.3389 36.2251 14.3389 36.2251C14.3389 36.2251 9.96387 37.3188 9.96387 37.5923C9.96387 37.8657 10.3248 39.3751 9.73418 39.8782C9.14355 40.3813 8.27949 40.4251 8.09355 40.0532C7.90762 39.6813 7.77637 38.7845 8.09355 38.7298C8.41074 38.6751 8.72793 38.511 8.72793 38.3688C8.72793 38.2267 8.64043 37.5923 8.64043 37.5923C8.64043 37.5923 7.54668 37.9642 6.9998 37.3626C6.45293 36.761 5.99355 35.0876 6.5623 34.6829C6.80134 34.5006 7.08936 34.3939 7.38945 34.3764C7.68954 34.3588 7.98804 34.4313 8.24668 34.5845C8.45449 34.8579 9.0998 34.311 9.0998 34.311Z" fill="#DDC07C"/>
<path id="Vector_3" d="M13.2889 34.3545C13.3764 34.4967 13.6061 35.1311 13.3764 35.2732C13.098 35.366 12.8058 35.4104 12.5124 35.4045C12.5124 35.4045 12.1077 34.8139 12.2827 34.6826C12.6047 34.5358 12.9423 34.4257 13.2889 34.3545Z" fill="#1D1D1B"/>
<path id="Vector_4" d="M9.27489 6.56268C11.1671 6.21268 12.7858 7.01112 13.0593 8.75018C13.3327 10.4892 11.0577 13.1252 9.50458 13.7596C7.95146 14.3939 5.86239 14.2627 4.99833 12.9392C4.13427 11.6158 3.84989 7.558 9.27489 6.56268Z" fill="#FAB900"/>
<path id="Vector_5" d="M13.1248 12.2612C14.6835 13.5331 16.1459 14.9187 17.4998 16.4065C17.2985 16.9152 17.022 17.3908 16.6795 17.8175C16.6795 17.8175 12.0311 13.8034 12.1952 13.5737C12.3592 13.344 13.1248 12.2612 13.1248 12.2612Z" fill="#DDC07C"/>
<path id="Vector_6" d="M57.8593 6.28917C59.4015 5.78604 62.0484 6.05948 62.639 9.65792C63.2296 13.2564 60.9984 14.6235 58.7671 14.1751C57.8017 14.0008 56.9392 13.4646 56.3558 12.6759C55.7724 11.8872 55.5121 10.9055 55.6281 9.93136C55.7156 7.92979 56.5796 6.69386 57.8593 6.28917Z" fill="#FAB900"/>
<path id="Vector_7" d="M55.2563 13.2998C55.3985 13.4857 56.5798 14.3936 56.4485 14.5795C56.3173 14.7654 53.9438 17.8607 53.9438 17.8607C53.5302 17.0781 53.1649 16.2709 52.8501 15.4436C52.8938 15.3123 55.2563 13.2998 55.2563 13.2998Z" fill="#DDC07C"/>
<path id="Vector_8" d="M27.6391 10.6204C30.3078 9.39537 37.1219 8.52037 41.8578 9.25318C46.5937 9.98599 51.4062 15.6735 52.5 19.6876C53.1998 22.4096 53.6897 25.1812 53.9656 27.9782C53.9656 27.9782 49.9953 25.6157 49.8094 25.7907C49.6234 25.9657 49.5906 26.611 49.7219 26.7094C49.8531 26.8079 53.8672 28.5251 53.9656 28.8969C54.0641 29.2688 53.9656 31.7188 53.9656 31.7188C52.6772 31.0655 51.3515 30.4884 49.9953 29.9907C49.9078 30.1219 49.4922 30.6688 49.9953 30.811C51.3183 31.428 52.5847 32.16 53.7797 32.9985C53.7797 33.1735 53.4187 35.9516 53.4187 35.9516C53.4187 35.9516 50.4109 34.2672 50.2687 34.311C50.1266 34.3547 49.9516 34.9563 50.1375 35.0001C50.3234 35.0438 53.2766 36.8266 53.2328 37.1001C53.1891 37.3735 49.2187 50.0391 49.0656 50.0829C48.2564 49.7919 47.464 49.4559 46.6922 49.0766C46.6922 49.0766 46.3312 49.7219 46.5062 49.8094C46.6812 49.8969 48.8359 50.761 48.6937 50.9907C48.5516 51.2204 48.2781 52.0844 48.2781 52.0844C47.4694 51.608 46.6159 51.2124 45.7297 50.9032C45.5875 51.0344 45.3578 51.3626 45.5875 51.5376C46.4542 51.8889 47.3013 52.2869 48.125 52.7297C48.125 52.9047 48.125 53.6376 47.9937 53.6376C47.0991 53.2025 46.1786 52.8226 45.2375 52.5001C45.0078 52.5876 44.7344 53.0469 45.0078 53.2219C45.2812 53.3969 47.6984 54.4141 47.6547 54.6876C47.5447 55.0165 47.4056 55.3349 47.2391 55.6391C46.4465 55.122 45.6248 54.6509 44.7781 54.2282C44.6469 54.2282 44.4609 54.9063 44.5922 55.0047C45.3614 55.4099 46.0934 55.882 46.7797 56.4157C46.7797 56.5469 43.8703 56.7329 43.8266 57.0938C43.7446 57.4242 43.7446 57.7696 43.8266 58.1001C43.9141 58.286 47.1078 58.1001 49.1094 58.3735C51.1109 58.6469 51.9859 58.6032 52.0734 59.1063C52.1609 59.6094 52.3906 62.7047 52.0734 62.7922C51.7562 62.8797 45.8281 62.7922 44.3297 62.7047C42.8312 62.6172 42 62.3438 42 62.0704C42 61.7969 41.9125 53.5938 41.6828 53.3204C41.4531 53.0469 38.1281 52.6313 35.4375 52.7735C33.7625 52.8684 32.1145 53.2379 30.5594 53.8672C30.1274 53.4396 29.6548 53.055 29.1484 52.7188C28.9625 52.7188 28.5141 53.0469 28.6453 53.2657C28.7766 53.4844 30.0125 54.5016 30.0125 54.6329C29.9949 54.8168 29.9657 54.9995 29.925 55.1797C28.8925 54.4043 27.7946 53.7199 26.6437 53.1344C26.4578 53.2657 26.2391 53.8126 26.4578 53.9547C27.6544 54.7271 28.7981 55.5784 29.8812 56.5032C29.8812 56.7329 29.9687 57.8266 29.9687 57.8266C29.9687 57.8266 27.1031 55.9126 26.9172 56.186C26.7312 56.4594 26.6875 57.0501 26.8297 57.1485C26.9719 57.2469 29.8812 58.5157 29.925 58.8329C30.0394 60.1977 30.0394 61.5696 29.925 62.9344C29.75 63.1641 18.3094 64.0282 18.1672 63.5688C18.025 63.1094 18.0359 59.7407 18.3531 59.511C18.6703 59.2813 25.4187 58.4172 25.5062 58.1876C25.5937 57.9579 25.5937 57.3672 25.375 57.3235C25.1562 57.2797 23.8656 57.3235 23.8219 57.236C23.7781 57.1485 17.7625 41.7813 16.4391 36.2251C15.1156 30.6688 14.6125 23.286 18.5937 18.0469C22.575 12.8079 24.3578 12.1188 27.6391 10.6204Z" fill="#8EC480"/>
<g id="Group">
<path id="Vector_9" d="M36.4436 12.7093C36.8045 12.7093 36.8045 13.803 36.6623 13.803C34.0295 13.6662 31.4233 14.3878 29.2358 15.8593C25.5498 18.4077 25.1342 19.3265 24.8608 19.228C24.5873 19.1296 24.0951 18.9546 24.1826 18.7249C25.6165 16.844 27.4646 15.3189 29.5834 14.268C31.7022 13.2172 34.0347 12.6688 36.3998 12.6655L36.4436 12.7093Z" fill="#1D1D1B"/>
<path id="Vector_10" d="M48.0156 16.3081C48.9042 16.5456 49.7199 17.0004 50.389 17.6315C50.389 17.8612 50.389 18.2769 50.1593 18.1347C49.4059 17.8209 48.6749 17.4554 47.9718 17.0409C47.8734 16.855 47.7859 16.494 48.0156 16.3081Z" fill="#1D1D1B"/>
<path id="Vector_11" d="M48.7481 19.3706C48.7481 19.3706 51.7997 20.5956 52.0294 21.23C52.259 21.8644 52.3903 22.0065 52.1169 21.9628C50.9092 21.4974 49.7483 20.9188 48.6497 20.2347C48.6059 20.005 48.6059 19.4581 48.7481 19.3706Z" fill="#1D1D1B"/>
<path id="Vector_12" d="M49.295 22.7827C50.4727 23.302 51.6003 23.928 52.6638 24.653C52.7513 24.9702 53.0685 25.4296 52.6638 25.2437C51.4597 24.7555 50.2871 24.193 49.1528 23.5593C49.1699 23.2958 49.2176 23.0352 49.295 22.7827Z" fill="#1D1D1B"/>
</g>
<path id="Vector_13" d="M55.9891 33.4468C56.175 33.5343 59.9047 35.1312 60.0469 35.1749C60.1891 35.2187 62.2344 34.2233 63.3281 34.5405C64.4219 34.8577 64.1484 35.4483 64.05 35.7218C63.9516 35.9952 63.6453 36.5421 63.875 36.728C64.1047 36.914 64.1047 37.0452 64.2359 37.0452C64.3672 37.0452 64.8266 36.3671 65.1984 36.5968C65.4233 36.8124 65.561 37.1033 65.5852 37.4139C65.6094 37.7246 65.5184 38.0333 65.3297 38.2812C64.8424 38.8275 64.256 39.2765 63.6016 39.6046C63.4156 39.6046 63.3281 40.1515 63.5141 40.2827C63.7 40.414 64.6953 40.7421 64.4656 41.1468C64.3442 41.375 64.173 41.5731 63.9649 41.7264C63.7567 41.8797 63.5168 41.9844 63.2628 42.0327C63.0088 42.081 62.7472 42.0716 62.4973 42.0054C62.2473 41.9391 62.0155 41.8177 61.8187 41.6499C60.5062 40.5562 60.0906 37.6358 60.0469 37.4171C59.9399 37.0459 59.7533 36.7025 59.5 36.4108C58.2037 36.0645 56.926 35.652 55.6719 35.1749C55.6719 34.9999 55.9891 33.4468 55.9891 33.4468Z" fill="#DDC07C"/>
<path id="Vector_14" d="M35.6231 42.7438C35.7981 42.7438 39.6263 43.2031 42.4044 41.8359C45.1825 40.4688 46.8778 38.2813 47.2388 38.3688C47.5997 38.4563 48.1028 39.0031 48.0153 39.1891C46.8561 41.2099 45.082 42.8078 42.9513 43.75C39.495 45.2922 36.0716 45.4344 35.7981 45.1609C35.5247 44.8875 35.1638 42.8313 35.6231 42.7438Z" fill="#1D1D1B"/>
<path id="Vector_15" d="M33.5671 19.8625C37.625 18.9657 43.4984 20.0922 45.7843 24.9266C48.0703 29.761 47.4687 36.225 42.1859 39.2328C36.9031 42.2407 29.8265 42.1532 26.5453 39.0032C23.264 35.8532 20.9015 22.6953 33.5671 19.8625Z" fill="#1D1D1B"/>
<path id="Vector_16" d="M33.8295 21.3172C37.3295 20.5406 42.4045 21.5141 44.3732 25.6922C46.342 29.8703 45.8279 35.4484 41.267 38.0406C36.706 40.6328 30.6248 40.5562 27.7701 37.8437C24.9154 35.1312 22.892 23.7562 33.8295 21.3172Z" fill="#E6E4DA"/>
<path id="Vector_17" d="M34.4093 27.3438C35.1405 27.1966 35.9001 27.3029 36.5627 27.6452C37.2254 27.9875 37.7517 28.5454 38.0549 29.2269C38.3581 29.9083 38.42 30.6728 38.2305 31.3942C38.041 32.1156 37.6114 32.7509 37.0125 33.1954C35.4156 34.1032 33.2828 34.0813 32.2875 33.1298C31.8928 32.6485 31.6306 32.0725 31.5267 31.4588C31.4228 30.8451 31.4809 30.2149 31.6952 29.6305C31.9096 29.0462 32.2726 28.5279 32.7487 28.1268C33.2247 27.7258 33.7971 27.4559 34.4093 27.3438Z" fill="#1D1D1B"/>
<path id="Vector_18" d="M35.2516 28.4377C35.5598 28.355 35.8847 28.3582 36.1913 28.4469C36.4978 28.5355 36.7742 28.7063 36.9907 28.9408C37.4391 29.4877 35.8969 30.7564 35.711 30.6689C35.5251 30.5814 34.4313 28.8861 35.2516 28.4377Z" fill="#E6E4DA"/>
</g>
</svg>
