<svg width="70" height="70" viewBox="0 0 70 70" fill="none" xmlns="http://www.w3.org/2000/svg">
<g id="astronaut-svgrepo-com" clip-path="url(#clip0_14_772)">
<path id="Vector" d="M68.4338 6.0868H62.3468V1.52148H53.2163V13.6955H57.7816V18.2606H68.4338L66.8614 12.1737L68.4338 6.0868Z" fill="#FFFE9F"/>
<g id="Group">
<path id="Vector_2" d="M6.82303 68.4781H1.56592V44.8218C1.56592 41.9184 3.91953 39.5649 6.82275 39.5649V68.4781H6.82303Z" fill="#87DFD6"/>
<path id="Vector_3" d="M43.6216 39.5649V68.4781H48.8784V56.3042V47.1738V44.8219C48.8786 41.9187 46.5248 39.5649 43.6216 39.5649Z" fill="#87DFD6"/>
<path id="Vector_4" d="M40.0938 21.166C40.6752 22.8105 40.9928 24.5793 40.9928 26.4229V31.6797H41.9127C43.6184 31.6797 45.001 30.2969 45.001 28.5913V24.2544C45.001 22.5487 43.6182 21.166 41.9127 21.166H40.0938Z" fill="#87DFD6"/>
<path id="Vector_5" d="M10.3506 21.166C9.76914 22.8105 9.45154 24.5793 9.45154 26.4229V31.6797H8.5317C6.826 31.6797 5.44336 30.2969 5.44336 28.5913V24.2544C5.44336 22.5487 6.82613 21.166 8.5317 21.166H10.3506Z" fill="#87DFD6"/>
</g>
<path id="Vector_6" d="M40.9926 39.565V26.4226C40.9926 23.5498 40.2251 20.8568 38.8819 18.5372C38.1905 17.34 37.3444 16.2426 36.373 15.2714C33.52 12.417 29.5773 10.6519 25.2218 10.6519C19.3853 10.6519 14.2887 13.8232 11.5618 18.5372C10.2187 20.8568 9.45117 23.5498 9.45117 26.4226V39.565H6.82275V68.4781H43.6211V39.565H40.9926Z" fill="#DFF5F2"/>
<g id="Group_2">
<path id="Vector_7" d="M38.3639 44.8228H30.4785V50.0796H38.3639V44.8228Z" fill="#4A7DBA"/>
<path id="Vector_8" d="M31.7045 34.3085H18.7393C16.513 34.3085 14.708 32.5037 14.708 30.2772V23.859C14.708 22.1534 15.7807 20.6332 17.3873 20.0609C19.4054 19.3421 22.3137 18.5376 25.2217 18.5376C28.1297 18.5376 31.038 19.3421 33.0561 20.0609C34.6628 20.6332 35.7354 22.1533 35.7354 23.859V30.2772C35.7358 32.5036 33.9309 34.3085 31.7045 34.3085Z" fill="#4A7DBA"/>
<path id="Vector_9" d="M22.7812 62.3911H13.6509H6.82275V68.4781H43.6211V62.3911H22.7812Z" fill="#4A7DBA"/>
</g>
<path id="Vector_10" d="M30.4792 51.601H38.3646C39.2049 51.601 39.8863 50.9197 39.8863 50.0793V44.8225C39.8863 43.982 39.2049 43.3008 38.3646 43.3008H30.4792C29.6388 43.3008 28.9575 43.982 28.9575 44.8225V50.0793C28.9574 50.9197 29.6388 51.601 30.4792 51.601ZM32.0009 46.344H36.8428V48.5573H32.0009V46.344Z" fill="black"/>
<path id="Vector_11" d="M50.1437 50.8947C50.0873 50.811 50.025 50.7334 49.9535 50.6634C49.8835 50.5934 49.8058 50.5295 49.7221 50.4732C49.64 50.4184 49.5517 50.3727 49.4602 50.3347C49.3675 50.2967 49.2717 50.2662 49.1758 50.248C48.6795 50.1476 48.1547 50.3104 47.8017 50.6635C47.7317 50.7335 47.6678 50.8112 47.613 50.8949C47.5582 50.977 47.511 51.0653 47.473 51.1582C47.435 51.2495 47.406 51.3453 47.3863 51.4427C47.3665 51.54 47.356 51.6405 47.356 51.7394C47.356 51.8382 47.3665 51.9387 47.3863 52.036C47.4061 52.1334 47.435 52.2294 47.473 52.3206C47.511 52.4134 47.5582 52.5017 47.613 52.5839C47.6678 52.6676 47.7317 52.7452 47.8017 52.8152C47.8717 52.8852 47.9493 52.9491 48.033 53.0039C48.1152 53.0587 48.2035 53.1059 48.2963 53.1439C48.3876 53.1819 48.4833 53.2109 48.5808 53.2306C48.6782 53.2504 48.7787 53.261 48.8775 53.261C48.9762 53.261 49.0768 53.2504 49.1758 53.2306C49.2717 53.2107 49.3675 53.1819 49.4602 53.1439C49.5517 53.1059 49.64 53.0587 49.7221 53.0039C49.8058 52.9491 49.8835 52.8852 49.9535 52.8152C50.025 52.7452 50.0873 52.6676 50.1437 52.5839C50.1985 52.5017 50.2456 52.4134 50.2837 52.3206C50.3217 52.2292 50.3506 52.1334 50.3703 52.036C50.3902 51.9387 50.3992 51.8382 50.3992 51.7394C50.3992 51.6404 50.3899 51.54 50.3703 51.4427C50.3506 51.3453 50.3217 51.2494 50.2837 51.1582C50.2456 51.0652 50.1983 50.9769 50.1437 50.8947Z" fill="black"/>
<path id="Vector_12" d="M43.6212 38.0435H42.5145V33.161C44.7731 32.865 46.5229 30.9294 46.5229 28.5913V24.2543C46.5229 21.7123 44.4549 19.6442 41.9128 19.6442H41.1316C40.8592 19.0046 40.5496 18.3802 40.2 17.7767C39.4476 16.4734 38.5223 15.2685 37.4496 14.1959C34.1847 10.9293 29.8421 9.13037 25.2221 9.13037C19.0686 9.13037 13.3294 12.4431 10.2452 17.775C9.89529 18.3791 9.58535 19.0041 9.31273 19.6443H8.53139C5.98938 19.6443 3.92123 21.7123 3.92123 24.2545V28.5915C3.92123 30.9295 5.67109 32.8652 7.92969 33.1612V38.0437H6.82309C3.0852 38.0437 0.0444336 41.0846 0.0444336 44.8223V68.4783C0.0444336 69.3188 0.725703 70 1.56611 70H6.82295H43.6213H48.878C49.7183 70 50.3997 69.3188 50.3997 68.4783V56.3045C50.3997 55.4641 49.7183 54.7828 48.878 54.7828C48.0378 54.7828 47.3564 55.4641 47.3564 56.3045V66.9567H45.143V62.3915V41.4112C46.4461 41.995 47.3564 43.3042 47.3564 44.8222V47.174C47.3564 48.0144 48.0378 48.6957 48.878 48.6957C49.7183 48.6957 50.3997 48.0144 50.3997 47.174V44.8222C50.3997 41.0844 47.359 38.0435 43.6212 38.0435ZM42.1114 22.7003C42.8818 22.7984 43.4792 23.458 43.4792 24.2545V28.5915C43.4792 29.2423 43.0804 29.8017 42.5142 30.0381V26.4231C42.5142 26.2455 42.5109 26.0685 42.5056 25.8915C42.5042 25.8449 42.5018 25.7984 42.5 25.752C42.4948 25.6166 42.4882 25.4815 42.48 25.3466C42.4773 25.3013 42.4741 25.2562 42.4709 25.211C42.4609 25.0656 42.4488 24.9204 42.435 24.7756C42.4322 24.7458 42.4296 24.716 42.4266 24.6862C42.3598 24.0173 42.2554 23.3546 42.1114 22.7003ZM6.96459 28.5913V24.2543C6.96459 23.4578 7.56205 22.7983 8.33232 22.7001C8.18836 23.3549 8.08404 24.0181 8.01719 24.6871C8.01432 24.7158 8.01172 24.7446 8.00898 24.7733C7.99518 24.9189 7.98314 25.0649 7.97289 25.2111C7.96975 25.2559 7.9666 25.3009 7.96373 25.3458C7.95539 25.4808 7.94897 25.6162 7.94363 25.7518C7.94186 25.7982 7.93953 25.8447 7.93803 25.891C7.9327 26.0679 7.92941 26.2451 7.92941 26.4226V30.0375C7.3634 29.8014 6.96459 29.2422 6.96459 28.5913ZM10.9729 31.6799V26.4231C10.9729 26.2409 10.9774 26.0592 10.9843 25.8776C10.9867 25.8139 10.9904 25.75 10.9937 25.6863C10.9996 25.5694 11.0071 25.4527 11.016 25.3363C11.0217 25.2599 11.0277 25.1833 11.0348 25.1072C11.0444 25.0022 11.0562 24.8976 11.0682 24.793C11.0772 24.7141 11.0852 24.6351 11.0954 24.5563C11.1161 24.3978 11.14 24.2398 11.1662 24.0823C11.1822 23.9862 11.2007 23.8904 11.2186 23.7946C11.2334 23.7157 11.2481 23.6369 11.2643 23.5584C11.2841 23.4618 11.3049 23.3655 11.3266 23.2693C11.3451 23.1883 11.3645 23.1075 11.3843 23.0269C11.4066 22.9362 11.4283 22.8453 11.4524 22.7551C11.4927 22.6033 11.5354 22.4522 11.5808 22.3017C11.6009 22.2353 11.6227 22.1694 11.6438 22.1031C11.6811 21.9862 11.7188 21.8693 11.7592 21.7533C12.0535 20.9035 12.4272 20.0811 12.8796 19.3001C15.4217 14.9044 20.1512 12.174 25.2221 12.174C29.0289 12.174 32.607 13.6562 35.2972 16.3479C36.1818 17.2326 36.9447 18.2255 37.5653 19.3003C38.017 20.0802 38.3902 20.9013 38.6842 21.7501C38.7256 21.8694 38.7647 21.9895 38.8028 22.1096C38.8212 22.1671 38.8406 22.2241 38.8581 22.2816C38.9056 22.4387 38.9499 22.5966 38.9922 22.7552C39.0161 22.845 39.0377 22.9353 39.0597 23.0255C39.0797 23.1066 39.0991 23.1877 39.1176 23.2691C39.1393 23.3651 39.1602 23.4615 39.1799 23.558C39.1959 23.6365 39.2108 23.7153 39.2254 23.794C39.2433 23.89 39.2618 23.986 39.2778 24.0822C39.3038 24.2396 39.3277 24.3973 39.3483 24.5557C39.3589 24.6348 39.3667 24.7145 39.3757 24.7938C39.3876 24.8979 39.3993 25.0021 39.4089 25.1065C39.4159 25.1831 39.422 25.2599 39.4278 25.3366C39.4367 25.4528 39.4439 25.5694 39.4498 25.6862C39.4532 25.7499 39.4568 25.8138 39.4592 25.8775C39.4661 26.059 39.4706 26.2407 39.4706 26.423V31.6798V38.0437H10.9729V31.6799ZM3.08766 44.822C3.08766 43.3041 3.99779 41.9948 5.301 41.411V62.3912V66.9564H3.08766V44.822ZM8.34449 63.913H13.651C14.4914 63.913 15.1726 63.2318 15.1726 62.3913C15.1726 61.5509 14.4914 60.8697 13.651 60.8697H8.34449V41.087H9.45109H40.9925H42.0993V60.8697H22.7814C21.941 60.8697 21.2598 61.5509 21.2598 62.3913C21.2598 63.2318 21.941 63.913 22.7814 63.913H42.0997V66.9565H8.34449V63.913Z" fill="black"/>
<path id="Vector_13" d="M33.5672 18.627C31.5033 17.8919 28.3802 17.0156 25.2221 17.0156C22.0641 17.0156 18.941 17.8919 16.8771 18.627C14.6696 19.4133 13.1865 21.5157 13.1865 23.8585V30.2769C13.1865 33.3389 15.6777 35.8299 18.7395 35.8299H31.7047C34.7666 35.8299 37.2576 33.3388 37.2576 30.2769V23.8587C37.2576 21.5157 35.7746 19.4133 33.5672 18.627ZM34.2143 30.2771C34.2143 31.6608 33.0885 32.7865 31.7048 32.7865H18.7396C17.3559 32.7865 16.2302 31.6609 16.2302 30.2771V23.8587C16.2302 22.7998 16.9006 21.8495 17.8984 21.4943C19.7363 20.8396 22.4987 20.0593 25.2223 20.0593C27.9456 20.0593 30.7081 20.8396 32.5462 21.4943C33.5439 21.8496 34.2144 22.7999 34.2144 23.8587L34.2143 30.2771Z" fill="black"/>
<path id="Vector_14" d="M68.4327 12.1738L69.9069 6.46748C70.0245 6.01166 69.9247 5.52727 69.6366 5.15512C69.3483 4.78283 68.9041 4.56518 68.4334 4.56518H63.8682V1.52168C63.8682 0.68127 63.1868 0 62.3465 0H53.216C52.3757 0 51.6943 0.68127 51.6943 1.52168V13.6955V68.4783C51.6943 69.3187 52.3757 70 53.216 70C54.0563 70 54.7377 69.3187 54.7377 68.4783V15.2173H56.2594V18.2608C56.2594 19.1012 56.9408 19.7825 57.7811 19.7825H68.4332C68.9039 19.7825 69.3481 19.5647 69.6363 19.1926C69.9246 18.8206 70.0244 18.336 69.9066 17.8802L68.4327 12.1738ZM54.7378 3.0435H60.8248V6.08699V12.174H57.7813H54.7378V3.0435ZM65.3875 12.5545L66.4687 16.7392H59.303V15.2175H62.3465C63.1868 15.2175 63.8682 14.5362 63.8682 13.6958V7.60867H66.4687L65.3877 11.7934C65.3233 12.0429 65.3233 12.305 65.3875 12.5545Z" fill="black"/>
<path id="Vector_15" d="M19.6205 61.8081C19.5825 61.7168 19.5369 61.6286 19.482 61.5464C19.4257 61.4628 19.3619 61.3851 19.2919 61.3151C19.2219 61.2451 19.1442 61.1813 19.0605 61.1264C18.9784 61.0716 18.89 61.0244 18.7988 60.9864C18.706 60.9484 18.6102 60.9179 18.5143 60.8998C18.318 60.8602 18.1157 60.8602 17.9193 60.8998C17.822 60.9181 17.726 60.9484 17.6348 60.9864C17.542 61.0244 17.4537 61.0716 17.3715 61.1264C17.2878 61.1813 17.2102 61.2451 17.1402 61.3151C17.0702 61.3851 17.0063 61.4628 16.9515 61.5464C16.8967 61.6286 16.8495 61.7169 16.8115 61.8081C16.7735 61.9009 16.7445 61.9968 16.7248 62.0943C16.705 62.1916 16.6943 62.2921 16.6943 62.3909C16.6943 62.4898 16.705 62.5903 16.7248 62.6876C16.7446 62.785 16.7735 62.8809 16.8115 62.9721C16.8495 63.065 16.8967 63.1533 16.9515 63.2355C17.0063 63.3191 17.0702 63.3968 17.1402 63.4668C17.2102 63.5368 17.2878 63.6006 17.3715 63.6555C17.4537 63.7103 17.542 63.7574 17.6348 63.7955C17.7262 63.8335 17.822 63.8624 17.9193 63.8821C18.0167 63.902 18.1172 63.9126 18.216 63.9126C18.3149 63.9126 18.4154 63.902 18.5143 63.8821C18.6102 63.8623 18.706 63.8335 18.7988 63.7955C18.8902 63.7574 18.9784 63.7103 19.0605 63.6555C19.1442 63.6006 19.2219 63.5368 19.2919 63.4668C19.3619 63.3968 19.4257 63.3191 19.482 63.2355C19.5369 63.1533 19.5825 63.065 19.6205 62.9721C19.6585 62.8808 19.689 62.785 19.7088 62.6876C19.7287 62.5903 19.7377 62.4898 19.7377 62.3909C19.7377 62.2921 19.7285 62.1916 19.7088 62.0943C19.6889 61.9968 19.6585 61.9009 19.6205 61.8081Z" fill="black"/>
</g>
<defs>
<clipPath id="clip0_14_772">
<rect width="70" height="70" fill="white"/>
</clipPath>
</defs>
</svg>
