<svg width="70" height="70" viewBox="0 0 70 70" fill="none" xmlns="http://www.w3.org/2000/svg">
<g id="nasa-6-logo-svgrepo-com">
<path id="Vector" d="M61.3814 35.0006C61.3814 50.8575 48.3184 63.908 32.4446 63.908C16.5713 63.908 3.50781 50.8567 3.50781 35.0006C3.50781 19.1428 16.2658 6.09326 32.4446 6.09326C48.0114 6.09326 61.3814 19.1435 61.3814 35.0006Z" fill="#0F3A97"/>
<path id="Vector_2" d="M38.9718 50.2148C51.3344 55.3005 49.1895 42.449 42.5994 32.6085C38.8643 27.0336 33.9932 22.3888 30.9209 20.1474C20.7339 12.7125 14.4452 17.2218 21.6386 31.8846C23.9645 36.6253 26.9516 39.825 29.2848 42.8409C31.0666 45.1434 34.5372 46.2963 33.3147 47.3883C31.9368 48.6204 28.6009 43.1864 28.6009 43.1864C26.1372 40.2152 23.7888 37.0447 21.3684 32.6934C15.839 22.7557 16.6363 12.6126 26.6456 17.0309C35.1399 20.7825 43.2534 31.3045 46.5159 38.7767C48.0224 42.2274 52.1302 55.8787 39.0466 50.3593" fill="white"/>
<path id="Vector_3" d="M0.527832 43.5697C5.96649 39.9477 11.1229 37.6091 19.898 34.7105C32.2288 30.637 41.5091 27.8989 52.8965 22.1753C57.9936 19.6139 66.8376 13.8695 70 8.87598C69.0533 10.8087 66.1198 14.5706 64.7927 16.2341C49.3428 35.5792 16.433 34.4823 0.745005 43.7695" fill="#F7410A"/>
<path id="Vector_4" d="M8.41763 29.4309C13.3952 29.47 12.9069 29.4209 12.965 29.4793C13.0519 29.4793 16.9394 36.1739 16.9394 36.232C16.9394 36.2602 16.9105 33.8527 16.9105 30.8415C16.9105 30.4937 15.9537 29.4795 15.9821 29.4795C17.403 29.4795 19.2599 29.5085 19.2599 29.5085C18.5642 30.32 18.425 30.253 18.4191 30.7548C18.3995 32.3671 18.3813 35.3476 18.4191 38.6948C18.4245 39.1966 18.7963 39.3905 19.4056 40.2599H14.8506C13.3711 37.7966 10.66 33.1756 10.6735 33.1891C10.6944 33.2102 10.6151 36.0877 10.702 38.4055C10.7312 39.1713 11.0794 39.4197 11.7179 40.1156C11.7179 40.1156 12.4524 40.096 8.14941 40.1443C9.45491 39.4486 9.28141 38.5795 9.28092 38.5505C9.23405 35.3476 9.27111 32.6093 9.27111 30.8415C9.27111 30.5516 9.25148 30.5804 8.3526 29.4793M23.981 34.3773C24.3989 32.9263 24.7559 31.6297 24.9255 30.7838C24.9542 30.6388 24.6065 30.1173 24.0553 29.5956L24.0163 29.5146C26.6742 29.5232 29.4508 29.5382 29.4508 29.5382C30.1762 31.3055 31.8294 36.261 33.077 39.3043C33.4068 40.108 33.9764 40.2604 33.9764 40.2604C31.7136 40.2317 27.5144 40.2513 27.5367 40.2317C28.6678 39.2167 28.5227 39.2167 28.0295 37.74H24.4907C23.7653 39.4204 24.7167 40.2091 24.8384 40.203C24.033 40.2447 21.2996 40.203 21.2996 40.203C22.779 39.1591 22.6917 38.8405 22.6917 38.8405C23.0981 37.3947 23.569 35.8107 23.9812 34.3771L25.4332 34.3773L24.8094 36.3768H27.6241L26.0573 32.3774L25.4335 34.3768L23.9815 34.3766M48.2921 34.5221C48.7093 33.0716 49.0666 31.7744 49.2362 30.9286C49.2646 30.7838 48.9164 30.2623 48.3655 29.7401L48.3265 29.6596C50.9851 29.6682 53.7622 29.683 53.7622 29.683C54.4864 31.4508 56.1401 36.4058 57.3872 39.4491C57.7167 40.2538 58.2858 40.4052 58.2858 40.4052C56.0245 40.3765 51.8251 40.3961 51.8469 40.3765C52.9782 39.3623 52.8336 39.3623 52.3404 37.8847H48.8008C48.0754 39.5654 49.0263 40.3539 49.1481 40.3483C48.3434 40.3895 45.6092 40.3483 45.6092 40.3483C47.0887 39.3048 47.0021 38.9858 47.0021 38.9858C47.4085 37.5395 47.8791 35.9562 48.2921 34.5221H49.7439C49.4312 35.5226 49.1206 36.5223 49.1206 36.5223H51.9338L50.3669 32.5224C50.3669 32.5224 50.056 33.5219 49.7439 34.5216L48.2921 34.5221ZM43.7158 32.1467C43.6581 30.0879 43.7158 29.4219 43.7158 29.4219C42.8162 30.1467 43.2704 30.0542 41.0184 29.6827C34.5292 28.6121 34.0348 34.6701 37.5662 36.0288C40.5306 37.1699 41.5806 37.3937 41.134 38.4629C40.989 38.8118 38.2914 40.0864 35.5066 37.5068L35.5633 41.1006C35.9118 40.7421 36.8695 40.0864 36.8695 40.0864C36.8978 40.0864 39.8879 41.4034 42.5838 40.0285C46.7327 37.9135 44.662 34.4895 40.2344 33.1315C36.5498 32.0012 40.0312 29.3637 43.6858 32.1752M32.852 8.71849C32.8518 8.78095 32.8269 8.84081 32.7828 8.88502C32.7387 8.92924 32.6788 8.95423 32.6164 8.95455C32.5539 8.95417 32.4942 8.92916 32.4501 8.88495C32.4059 8.84075 32.3811 8.78093 32.3808 8.71849C32.3808 8.59039 32.4876 8.4834 32.6164 8.4834C32.6787 8.48359 32.7385 8.50841 32.7826 8.55244C32.8267 8.59647 32.8516 8.65615 32.852 8.71849ZM34.4863 12.287C34.4863 12.446 34.3543 12.5773 34.1962 12.5773C34.1193 12.577 34.0456 12.5463 33.9912 12.4919C33.9368 12.4376 33.9061 12.3639 33.9057 12.287C33.9057 12.1285 34.0367 11.9977 34.1962 11.9977C34.3545 11.9977 34.4863 12.1282 34.4863 12.287ZM38.7262 18.119C38.7262 18.2775 38.5961 18.4088 38.4359 18.4088C38.3592 18.4083 38.2857 18.3776 38.2314 18.3234C38.1772 18.2692 38.1464 18.1958 38.1458 18.119C38.1458 17.96 38.2673 17.8285 38.4271 17.8285C38.5871 17.829 38.7262 17.96 38.7262 18.119ZM31.9097 14.2975C31.9094 14.3599 31.8845 14.4196 31.8403 14.4637C31.7962 14.5078 31.7364 14.5326 31.6741 14.5328C31.6116 14.5326 31.5518 14.5078 31.5076 14.4637C31.4634 14.4197 31.4384 14.3599 31.438 14.2975C31.438 14.1687 31.5447 14.0619 31.6741 14.0619C31.7365 14.0621 31.7963 14.087 31.8404 14.1311C31.8846 14.1753 31.9095 14.2351 31.9097 14.2975ZM34.4495 15.6381C34.449 15.7003 34.4241 15.7599 34.38 15.8039C34.336 15.8479 34.2764 15.8728 34.2141 15.8732C34.1518 15.8729 34.0921 15.848 34.048 15.804C34.0039 15.76 33.9788 15.7004 33.9783 15.6381C33.9783 15.5093 34.0851 15.4028 34.2141 15.4028C34.343 15.4028 34.4495 15.5093 34.4495 15.6381ZM31.1489 11.8882C31.1489 12.0473 31.0179 12.1785 30.8589 12.1785C30.6999 12.1785 30.5688 12.048 30.5688 11.8882C30.5688 11.7297 30.6999 11.5982 30.8589 11.5982C31.0179 11.5982 31.1489 11.7292 31.1489 11.8882ZM27.3061 14.2251C27.3061 14.3544 27.1998 14.4607 27.0702 14.4607C27.0079 14.4604 26.9481 14.4355 26.904 14.3913C26.8599 14.3472 26.835 14.2875 26.8347 14.2251C26.8347 14.0963 26.9412 13.9895 27.0702 13.9895C27.1327 13.9897 27.1925 14.0146 27.2367 14.0587C27.2809 14.1029 27.3058 14.1627 27.3061 14.2251ZM27.9932 14.6955C27.9929 14.7581 27.968 14.818 27.9237 14.8622C27.8795 14.9064 27.8196 14.9313 27.7571 14.9316C27.6946 14.9313 27.6347 14.9063 27.5905 14.8621C27.5463 14.8179 27.5214 14.758 27.521 14.6955C27.5238 14.6348 27.5499 14.5775 27.5939 14.5354C27.6378 14.4934 27.6963 14.47 27.7571 14.47C27.8179 14.47 27.8764 14.4934 27.9203 14.5354C27.9643 14.5775 27.9904 14.6348 27.9932 14.6955ZM28.6827 15.1667C28.6825 15.2292 28.6577 15.289 28.6135 15.3332C28.5694 15.3774 28.5096 15.4024 28.4471 15.4028C28.3847 15.4024 28.3248 15.3775 28.2807 15.3332C28.2365 15.289 28.2116 15.2292 28.2113 15.1667C28.2113 15.0384 28.3181 14.9319 28.4471 14.9319C28.5765 14.9319 28.6827 15.0381 28.6827 15.1667ZM27.6324 16.0727C27.6318 16.1351 27.6067 16.1947 27.5626 16.2387C27.5184 16.2828 27.4587 16.3078 27.3964 16.3083C27.3339 16.3079 27.2742 16.283 27.23 16.2389C27.1858 16.1948 27.1608 16.1351 27.1603 16.0727C27.1603 15.9439 27.2668 15.8374 27.3964 15.8374C27.5252 15.8374 27.6324 15.9439 27.6324 16.0727ZM22.1562 19.9124C22.1558 19.9748 22.1308 20.0345 22.0866 20.0785C22.0424 20.1225 21.9826 20.1473 21.9202 20.1474C21.7908 20.1474 21.6843 20.0414 21.6843 19.9124C21.6843 19.7833 21.7911 19.6765 21.9202 19.6765C22.0492 19.6765 22.1562 19.783 22.1562 19.9124ZM23.1712 21.1445C23.1707 21.2068 23.1456 21.2665 23.1015 21.3105C23.0574 21.3545 22.9977 21.3794 22.9354 21.3798C22.873 21.3794 22.8133 21.3545 22.7691 21.3105C22.725 21.2665 22.6999 21.2068 22.6993 21.1445C22.6993 21.0149 22.806 20.9089 22.9354 20.9089C23.0647 20.9089 23.1712 21.0149 23.1712 21.1445ZM22.3643 41.0324C22.3639 41.0948 22.339 41.1545 22.2948 41.1986C22.2506 41.2426 22.1909 41.2675 22.1285 41.2677C21.9992 41.2677 21.8929 41.1612 21.8929 41.0324C21.8929 40.9036 21.9992 40.7966 22.1285 40.7966C22.2581 40.7966 22.3643 40.9036 22.3643 41.0324ZM22.5094 46.5192C22.5094 46.6782 22.3783 46.8092 22.2193 46.8092C22.0603 46.8092 21.9292 46.6789 21.9292 46.5192C21.9292 46.3606 22.0603 46.2296 22.2193 46.2296C22.296 46.23 22.3695 46.2606 22.4238 46.3148C22.4781 46.369 22.5088 46.4424 22.5094 46.5192ZM19.3902 49.3294C19.3897 49.3917 19.3648 49.4512 19.3207 49.4952C19.2767 49.5392 19.2171 49.5641 19.1548 49.5645C19.0925 49.5642 19.0328 49.5393 18.9887 49.4953C18.9446 49.4513 18.9195 49.3917 18.919 49.3294C18.919 49.1996 19.0257 49.0936 19.1548 49.0936C19.2837 49.0936 19.3902 49.1994 19.3902 49.3294ZM15.6558 50.4675C15.6552 50.5444 15.6245 50.618 15.5701 50.6723C15.5157 50.7266 15.4421 50.7572 15.3652 50.7576C15.2884 50.7573 15.2147 50.7267 15.1604 50.6724C15.1061 50.618 15.0754 50.5444 15.0752 50.4675C15.0752 50.3088 15.2062 50.1775 15.3652 50.1775C15.442 50.1779 15.5156 50.2086 15.57 50.2629C15.6244 50.3172 15.6552 50.3907 15.6558 50.4675ZM14.8941 47.9329C14.8941 48.0912 14.763 48.2222 14.6045 48.2222C14.5278 48.2218 14.4544 48.1912 14.4001 48.1371C14.3458 48.0829 14.315 48.0096 14.3144 47.9329C14.3148 47.856 14.3454 47.7823 14.3997 47.7279C14.454 47.6734 14.5276 47.6426 14.6045 47.6421C14.763 47.6428 14.8941 47.7736 14.8941 47.9329ZM14.4595 49.5451C14.4595 49.6744 14.3527 49.7804 14.2236 49.7804C14.0946 49.7804 13.9876 49.6744 13.9876 49.5451C13.9876 49.4168 14.0946 49.3095 14.2236 49.3095C14.3527 49.3095 14.4595 49.416 14.4595 49.5451ZM11.6666 48.2055C11.6663 48.2678 11.6414 48.3274 11.5974 48.3714C11.5534 48.4154 11.4938 48.4404 11.4316 48.4408C11.3692 48.4406 11.3094 48.4157 11.2652 48.3717C11.221 48.3276 11.1959 48.2679 11.1955 48.2055C11.1955 48.0772 11.302 47.9702 11.4316 47.9702C11.5601 47.9702 11.6666 48.0764 11.6666 48.2055ZM21.421 52.7328C21.421 52.8621 21.3236 52.9686 21.1948 52.9686C21.0655 52.9686 20.9496 52.8621 20.9496 52.7328C20.9496 52.6039 21.0564 52.4972 21.1852 52.4972C21.315 52.4972 21.421 52.6037 21.421 52.7328ZM24.3589 50.5782C24.3589 50.7372 24.2372 50.8688 24.0777 50.8688C23.9187 50.8688 23.7788 50.738 23.7788 50.5782C23.7788 50.4197 23.9098 50.2887 24.0688 50.2887C24.1456 50.289 24.219 50.3197 24.2733 50.3739C24.3276 50.4281 24.3584 50.5015 24.3589 50.5782ZM24.6951 53.3487C24.6951 53.478 24.579 53.585 24.4504 53.585C24.3879 53.5846 24.328 53.5596 24.2838 53.5154C24.2396 53.4711 24.2147 53.4112 24.2144 53.3487C24.2144 53.2204 24.3209 53.1139 24.4504 53.1139C24.579 53.1136 24.6951 53.2196 24.6951 53.3487ZM36.7684 50.7034C36.768 50.7657 36.7431 50.8253 36.6991 50.8694C36.6552 50.9135 36.5956 50.9386 36.5334 50.9392C36.4709 50.9388 36.411 50.9139 36.3668 50.8697C36.3225 50.8256 36.2974 50.7659 36.2968 50.7034C36.2968 50.574 36.4033 50.468 36.5334 50.468C36.6619 50.468 36.7684 50.574 36.7684 50.7034ZM31.1489 52.6957C31.1487 52.7581 31.1238 52.8178 31.0796 52.8619C31.0355 52.906 30.9757 52.9309 30.9134 52.9311C30.851 52.9307 30.7913 52.9058 30.7472 52.8618C30.7031 52.8177 30.6782 52.7581 30.6778 52.6957C30.6778 52.5674 30.7845 52.4604 30.9134 52.4604C31.0429 52.4604 31.1489 52.5669 31.1489 52.6957ZM46.2703 55.5595C46.2698 55.6218 46.2448 55.6814 46.2007 55.7255C46.1565 55.7695 46.0968 55.7944 46.0345 55.7948C45.9721 55.7945 45.9123 55.7697 45.868 55.7256C45.8238 55.6816 45.7987 55.6219 45.7982 55.5595C45.7982 55.4309 45.9052 55.3241 46.0345 55.3241C46.1633 55.3241 46.2703 55.4304 46.2703 55.5595ZM47.502 44.4188C47.5015 44.4957 47.4707 44.5694 47.4163 44.6237C47.3619 44.6781 47.2883 44.7088 47.2114 44.7091C47.1346 44.7087 47.061 44.678 47.0066 44.6236C46.9523 44.5693 46.9216 44.4957 46.9211 44.4188C46.9211 44.2598 47.0519 44.1285 47.2114 44.1285C47.2883 44.1289 47.362 44.1595 47.4164 44.2139C47.4708 44.2683 47.5016 44.3419 47.502 44.4188ZM45.183 45.9943C45.1825 46.0568 45.1575 46.1166 45.1132 46.1607C45.069 46.2048 45.0092 46.2298 44.9467 46.2301C44.8181 46.2301 44.7113 46.1233 44.7113 45.9943C44.7113 45.8652 44.8181 45.7592 44.9467 45.7592C45.0762 45.7592 45.183 45.8649 45.183 45.9943ZM47.4681 46.4482C47.4681 46.607 47.3373 46.7388 47.1775 46.7388C47.0178 46.7388 46.887 46.6077 46.887 46.4482C46.887 46.2897 47.0178 46.1582 47.1775 46.1582C47.3373 46.1582 47.4681 46.2897 47.4681 46.4482ZM45.183 49.2555C45.1825 49.318 45.1575 49.3777 45.1132 49.4218C45.069 49.4659 45.0091 49.4907 44.9467 49.4909C44.8844 49.4904 44.8248 49.4655 44.7808 49.4215C44.7367 49.3774 44.7118 49.3178 44.7113 49.2555C44.7113 49.1262 44.8181 49.0197 44.9467 49.0197C45.0762 49.0197 45.183 49.126 45.183 49.2555ZM51.0921 42.8434C51.0921 42.972 50.9848 43.079 50.8562 43.079C50.7939 43.0785 50.7344 43.0535 50.6903 43.0094C50.6463 42.9653 50.6214 42.9057 50.6209 42.8434C50.6209 42.7143 50.7274 42.6083 50.8562 42.6083C50.9851 42.6083 51.0921 42.7143 51.0921 42.8434ZM51.6638 44.2741C51.6638 44.4328 51.5429 44.5644 51.3831 44.5644C51.2238 44.5644 51.0837 44.4336 51.0837 44.2741C51.0837 44.115 51.2145 43.9842 51.3735 43.9842C51.533 43.9847 51.6638 44.115 51.6638 44.2741ZM55.7349 45.9771C55.7349 46.1359 55.6053 46.2671 55.4446 46.2671C55.3677 46.2669 55.294 46.2363 55.2396 46.1819C55.1852 46.1276 55.1545 46.054 55.1541 45.9771C55.1545 45.9002 55.1853 45.8266 55.2397 45.7722C55.2941 45.7179 55.3677 45.6872 55.4446 45.6868C55.5215 45.687 55.5952 45.7177 55.6496 45.7721C55.704 45.8265 55.7347 45.9002 55.7349 45.9771ZM51.5998 49.003C51.5992 49.0654 51.5741 49.1251 51.5299 49.1691C51.4856 49.2132 51.4259 49.2381 51.3635 49.2384C51.3011 49.238 51.2414 49.2132 51.1972 49.1691C51.1531 49.1251 51.1281 49.0654 51.1277 49.003C51.1277 48.8737 51.2346 48.7672 51.3635 48.7672C51.4923 48.7672 51.5998 48.873 51.5998 49.003ZM54.211 46.539C54.2107 46.6014 54.1858 46.661 54.1417 46.7051C54.0977 46.7492 54.038 46.7741 53.9757 46.7744C53.9134 46.774 53.8537 46.7491 53.8096 46.705C53.7655 46.661 53.7406 46.6014 53.7401 46.539C53.7401 46.4105 53.8473 46.3035 53.9757 46.3035C54.1045 46.3035 54.211 46.4097 54.211 46.539ZM53.73 50.3426C53.7297 50.405 53.7048 50.4646 53.6608 50.5087C53.6167 50.5528 53.557 50.5777 53.4947 50.578C53.4323 50.5778 53.3724 50.553 53.3281 50.509C53.2838 50.4649 53.2588 50.4051 53.2584 50.3426C53.2584 50.2143 53.3649 50.1071 53.4947 50.1071C53.6236 50.1071 53.73 50.2136 53.73 50.3426ZM54.8368 44.0213C54.8368 44.2203 54.6729 44.3835 54.4738 44.3835C54.2751 44.3835 54.1114 44.2203 54.1114 44.0213C54.1114 43.8225 54.2751 43.6593 54.4738 43.6593C54.6729 43.6593 54.8368 43.8225 54.8368 44.0213Z" fill="white"/>
<path id="Vector_5" d="M54.4731 42.917L54.3653 43.913L53.3771 44.022L54.3739 44.13L54.4829 45.1628L54.5918 44.13L55.5705 44.0029L54.583 43.9123L54.4731 42.917ZM52.2969 50.3227C52.2969 50.522 52.1332 50.6857 51.9342 50.6857C51.8381 50.6853 51.746 50.6469 51.678 50.5789C51.61 50.511 51.5717 50.4189 51.5713 50.3227C51.5713 50.124 51.7352 49.9608 51.9342 49.9608C52.0302 49.9612 52.1221 49.9994 52.19 50.0672C52.2579 50.1349 52.2963 50.2268 52.2969 50.3227Z" fill="white"/>
<path id="Vector_6" d="M51.9366 49.2181L51.8277 50.2146L50.8399 50.3229L51.8367 50.4318L51.9459 51.4637L52.0549 50.4318L53.033 50.3047L52.0448 50.2139L51.9366 49.2181ZM25.2474 20.4005C25.2474 20.5993 25.0837 20.7627 24.8849 20.7627C24.7889 20.7625 24.6968 20.7243 24.6288 20.6564C24.5608 20.5886 24.5224 20.4966 24.522 20.4005C24.522 20.2013 24.6854 20.0381 24.8849 20.0381C25.0837 20.0386 25.2474 20.2018 25.2474 20.4005Z" fill="white"/>
<path id="Vector_7" d="M24.884 19.2961L24.7751 20.2922L23.7866 20.4011L24.7839 20.5088L24.8929 21.5422L25.0013 20.5088L25.9804 20.3827L24.992 20.2917L24.884 19.2961ZM38.7362 11.6349C38.7362 11.8337 38.5723 11.9974 38.3733 11.9974C38.1743 11.9974 38.0111 11.8337 38.0111 11.6349C38.0111 11.4357 38.174 11.272 38.3733 11.272C38.5726 11.272 38.7362 11.4361 38.7362 11.6349Z" fill="white"/>
<path id="Vector_8" d="M38.3732 10.5293L38.2652 11.5261L37.2773 11.635L38.2743 11.7433L38.3823 12.7759L38.4912 11.7433L39.4698 11.6161L38.4816 11.5256L38.3732 10.5293ZM22.3367 56.1217C22.3367 56.321 22.173 56.4842 21.9743 56.4842C21.8782 56.4838 21.7861 56.4456 21.7182 56.3777C21.6502 56.3098 21.6118 56.2178 21.6113 56.1217C21.6113 55.9232 21.775 55.759 21.9743 55.759C22.173 55.7593 22.3367 55.9234 22.3367 56.1217Z" fill="white"/>
<path id="Vector_9" d="M21.9829 55.0151L21.8744 56.0119L20.8862 56.1204L21.8833 56.2286L21.992 57.2612L22.1004 56.2286L23.0796 56.102L22.0916 56.0112L21.9829 55.0151Z" fill="white"/>
<path id="Vector_10" d="M69.9973 8.87598C65.5874 21.9584 47.9217 32.0605 33.0509 41.704C24.0795 47.524 15.1725 54.2225 9.04056 59.922C7.4244 61.4251 9.36988 59.3598 8.75051 59.9947C17.3079 50.1419 27.1516 44.273 32.5912 40.5786C41.7908 34.3287 47.0233 32.7535 62.8949 18.1342" fill="#F7410A"/>
<path id="Vector_11" d="M4.20605 41.2876C2.62228 42.0618 1.20366 42.8272 0 43.5744L0.732255 43.8409C1.78499 43.1928 3.04877 42.5168 4.38003 41.9212M12.5671 55.9275C11.0603 57.2415 9.57845 58.5837 8.12228 59.9535L8.05603 60.9525C9.43023 59.5363 11.1183 58.0082 13.0665 56.3862" fill="#EE293D"/>
<path id="Vector_12" d="M38.9719 50.2148C51.3346 55.3006 49.1896 42.4491 42.5995 32.6086C38.8642 27.0337 34.2581 22.6113 30.9208 20.1475C27.0239 17.2703 26.6436 17.0317 26.6436 17.0317C35.3457 21.162 43.2513 31.3051 46.5133 38.7778C48.0203 42.2283 52.1279 55.8795 39.044 50.3601" fill="white"/>
</g>
</svg>
