<svg width="70" height="70" viewBox="0 0 70 70" fill="none" xmlns="http://www.w3.org/2000/svg">
<g id="planet-svgrepo-com">
<path id="Vector" opacity="0.5" d="M58.3332 34.9998C58.3332 47.8866 47.8865 58.3332 34.9998 58.3332C22.1132 58.3332 11.6665 47.8866 11.6665 34.9998C11.6665 22.1132 22.1132 11.6665 34.9998 11.6665C47.8865 11.6665 58.3332 22.1132 58.3332 34.9998Z" fill="#1C274C"/>
<path id="Vector_2" d="M51.6613 15.9055C54.7147 15.3415 57.5121 15.1504 59.8192 15.4602C62.0659 15.762 64.2983 16.6087 65.5227 18.5659C66.8244 20.6463 66.4322 23.0621 65.4872 25.1506C64.5267 27.2728 62.8091 29.5219 60.6102 31.766C56.1903 36.2772 49.4219 41.1754 41.3687 45.4659C33.3125 49.758 25.3437 52.7103 18.9297 53.9814C15.7345 54.6143 12.81 54.8537 10.4052 54.5679C8.07144 54.2908 5.73951 53.4514 4.47729 51.434C3.10412 49.2392 3.61267 46.6792 4.68026 44.494C5.77404 42.2552 7.69265 39.8688 10.141 37.4856L11.6668 36.2148C11.6668 36.8518 11.9099 38.2833 12.1571 39.557C12.287 40.2261 12.4179 40.8514 12.5153 41.2953C10.6142 43.2358 9.31315 44.9779 8.61117 46.4147C7.80258 48.0696 8.00398 48.8224 8.18618 49.1134C8.3986 49.4529 9.07591 50.0042 10.9213 50.2235C12.6956 50.4344 15.1203 50.276 18.0794 49.6898C23.974 48.5217 31.5345 45.7479 39.3115 41.6045C47.0917 37.4596 53.462 32.8104 57.4853 28.7042C59.508 26.6396 60.838 24.8128 61.5012 23.3469C62.1797 21.8473 61.9869 21.1629 61.8139 20.8864C61.6092 20.559 60.9707 20.0292 59.2367 19.7963C57.6577 19.5842 55.527 19.6759 52.9277 20.1235L49.2034 16.4966C50.1916 16.2007 51.1229 15.9987 51.6613 15.9055Z" fill="#1C274C"/>
</g>
</svg>
