<svg width="70" height="70" viewBox="0 0 70 70" fill="none" xmlns="http://www.w3.org/2000/svg">
<g id="space-invader-svgrepo-com">
<path id="Vector" d="M13.7044 32.9762C13.643 31.9872 13.6759 30.9947 13.8028 30.0121C13.9778 30.0121 17.2591 30.1105 17.2591 30.0121C17.2591 29.9137 17.0403 25.3637 17.445 25.134C19.1055 24.8942 20.7777 24.7445 22.4544 24.6855V21.9512C22.4544 21.9512 18.2216 22.1262 18.1778 21.7652C18.1341 21.4043 17.4888 15.8371 17.9044 15.7058C18.32 15.5746 24.4669 15.2902 24.4669 15.7933C24.4669 16.2965 24.6419 20.8137 24.6419 20.8137C24.6419 20.8137 29.0169 20.4418 29.2028 20.8137C29.3888 21.1855 29.2903 24.4996 29.7497 24.5433C30.2091 24.5871 37.3185 24.8605 37.3185 24.5433C37.2778 23.2484 37.3547 21.9525 37.5481 20.6715C37.7669 20.4965 42.9185 20.4418 42.9185 20.4418C42.8398 18.9831 42.8727 17.5205 43.0169 16.0668C43.2356 15.7496 50.0278 15.7058 50.0278 16.1215C49.9931 18.0231 49.858 19.9216 49.6231 21.809C49.4372 21.809 44.2419 21.9074 44.2419 21.9074V23.1324C44.2419 23.1324 52.4888 23.3621 52.5763 23.7777C52.6638 24.1933 52.3575 29.8371 52.5763 29.8371C52.795 29.8371 56.6778 29.8371 56.7216 30.2418C56.7653 30.6465 56.7216 34.0699 56.7216 34.0699C56.7216 34.0699 61.0966 34.1683 61.2278 34.6605C61.3591 35.1527 60.9106 49.109 60.4075 49.3387C58.6762 49.5357 56.9251 49.473 55.2122 49.1527C55.081 48.8793 55.2122 39.8558 54.9825 39.7683C54.7528 39.6808 52.2044 39.7683 52.2044 39.7683C52.2044 39.7683 52.4778 49.6121 52.1169 49.973C51.756 50.334 46.2325 50.2465 46.2325 50.2465C46.2325 50.2465 46.6481 54.0308 46.3747 54.1183C46.1013 54.2058 35.3388 54.7637 35.3388 54.348C35.3388 53.9324 35.2513 48.8793 35.6669 48.6496C36.0825 48.4199 43.5966 48.4308 43.5419 48.2012C43.4872 47.9715 43.5419 46.1887 43.4106 46.1449C43.2794 46.1012 26.2497 46.3308 26.2497 46.6043C26.1583 47.2537 26.1583 47.9127 26.2497 48.5621C26.3919 48.5621 34.0919 48.748 34.1356 48.8793C34.2724 50.7179 34.2724 52.5641 34.1356 54.4027C30.8275 54.5777 27.5125 54.5777 24.2044 54.4027C23.8325 54.173 23.7013 49.9293 23.7013 49.9293C23.7013 49.9293 17.6419 49.2949 17.5981 48.9777C17.5544 48.6605 17.5981 39.8558 17.4122 39.7246C16.8114 39.585 16.1865 39.585 15.5856 39.7246C15.5856 39.8668 15.7716 48.4746 15.5856 48.5621C15.3997 48.6496 9.02315 49.2949 9.02315 48.5621C9.02315 47.8293 8.56377 33.9058 8.96846 33.6215C10.526 33.2728 12.1103 33.0569 13.7044 32.9762Z" fill="#1D1D1B"/>
<g id="Group">
<path id="Vector_2" d="M11.0687 35.3505C11.9529 35.1514 12.8536 35.0343 13.7593 35.0005C13.7593 35.0005 13.8906 47.0317 13.7593 47.0317C13.6281 47.0317 11.1562 47.3927 11.0687 47.0317C10.9812 46.6708 10.9374 35.5802 11.0687 35.3505Z" fill="#C8DB89"/>
<path id="Vector_3" d="M15.9469 31.7189C16.3393 31.5572 16.7796 31.5572 17.1719 31.7189C17.1719 31.8501 17.2594 37.822 17.1719 37.822C17.0844 37.822 15.9907 38.0517 15.936 37.822C15.8813 37.5923 15.8048 31.8392 15.9469 31.7189Z" fill="#C8DB89"/>
<path id="Vector_4" d="M19.9499 17.2595C20.1468 17.1282 22.4109 17.1173 22.5093 17.3907C22.6413 18.2681 22.6413 19.1603 22.5093 20.0376C21.6567 20.081 20.8025 20.081 19.9499 20.0376C19.7537 19.122 19.7537 18.1751 19.9499 17.2595Z" fill="#C8DB89"/>
<path id="Vector_5" d="M44.9314 17.4999C45.8737 17.4203 46.8224 17.4644 47.7532 17.6312C47.8142 18.4376 47.7849 19.2484 47.6657 20.0484C46.7564 20.1362 45.8407 20.1362 44.9314 20.0484C44.8803 19.1996 44.8803 18.3486 44.9314 17.4999Z" fill="#C8DB89"/>
</g>
<path id="Vector_6" d="M24.325 22.4986C25.3526 22.3422 26.3937 22.2946 27.4313 22.3565C27.4371 23.715 27.5432 25.0713 27.7485 26.4143C27.9235 26.4143 39.0907 26.3268 39.1344 26.0971C39.1782 25.8674 39.3641 22.5424 39.5063 22.4111C40.4104 22.2471 41.3366 22.2471 42.2407 22.4111C42.2407 22.5861 42.0985 25.0471 42.3282 25.1018C42.5578 25.1565 50.1703 25.3752 50.2578 25.5502C50.3453 25.7252 50.0719 35.6236 50.0719 35.6236C50.0719 35.6236 48.3875 33.7971 48.2563 33.983C48.125 34.169 47.7094 34.7158 47.8844 34.8033C48.6845 35.4579 49.4173 36.1907 50.0719 36.9908C50.1176 37.5988 50.1176 38.2094 50.0719 38.8174C49.2284 38.025 48.3292 37.2939 47.3813 36.6299C47.2828 36.7611 47.0094 37.3518 47.1516 37.494C47.2938 37.6361 50.0719 40.2283 50.0719 40.4033C50.0719 40.5783 50.0719 42.0002 50.0719 42.0002C49.1804 41.2999 48.2531 40.6465 47.2938 40.0424C47.1625 40.0424 46.7907 41.0049 46.9766 41.0486C48.0635 41.5856 49.0871 42.2422 50.0282 43.0065C50.0282 43.2799 50.1266 44.6033 50.1266 44.6033C50.1266 44.6033 47.1625 42.6565 47.0313 42.6565C46.9 42.6565 46.8016 43.608 46.8016 43.608C47.9508 44.3196 49.0473 45.1128 50.0828 45.9815C50.1152 46.4366 50.1152 46.8935 50.0828 47.3486C49.1921 46.6788 48.2484 46.0826 47.261 45.5658C47.1188 45.708 46.8453 46.2986 47.075 46.3861C47.3047 46.4736 49.1313 47.9393 48.9453 47.983C47.9492 48.1249 46.9402 48.1543 45.9375 48.0705C45.9375 47.8955 45.9375 44.1549 45.7516 44.1111C45.5657 44.0674 36.9141 43.8815 34.9125 43.969C32.911 44.0565 24.3797 44.5158 24.2485 44.844C24.1172 45.1721 24.3797 47.8518 24.2485 47.8518C22.6747 47.8219 21.1042 47.6977 19.5453 47.4799C19.4141 47.3049 18.9985 26.9721 19.4141 26.8408C19.8297 26.7096 24.3797 26.5674 24.3797 26.4252C24.3797 26.283 24.3688 22.6299 24.325 22.4986Z" fill="#8EC480"/>
<path id="Vector_7" d="M23.6467 30.2418C25.7086 29.8837 27.8094 29.8065 29.892 30.0121C30.0924 32.1023 30.1362 34.2045 30.0233 36.3012C27.9484 36.5115 25.8602 36.559 23.7779 36.4433C23.598 34.3813 23.5542 32.3096 23.6467 30.2418Z" fill="#1D1D1B"/>
<path id="Vector_8" d="M25.7905 31.9267C26.4758 31.7517 27.1942 31.7517 27.8795 31.9267C27.8795 32.0689 28.1967 34.3001 27.8795 34.4423C27.1657 34.632 26.4188 34.6619 25.692 34.5298C25.6532 33.6608 25.6861 32.7902 25.7905 31.9267Z" fill="#FAB900"/>
<path id="Vector_9" d="M38.5877 29.8374C40.6532 29.4788 42.7577 29.4015 44.8439 29.6077C45.0532 31.6973 45.1007 33.7999 44.9861 35.8968C42.9106 36.098 40.8229 36.1418 38.7408 36.028C38.5538 33.9701 38.5027 31.9021 38.5877 29.8374Z" fill="#1D1D1B"/>
<path id="Vector_10" d="M40.7314 31.5216C41.419 31.3352 42.1438 31.3352 42.8314 31.5216C42.8314 31.6528 43.1485 33.895 42.8314 34.0263C42.1184 34.2216 41.3702 34.2515 40.6439 34.1138C40.607 33.2488 40.6362 32.3822 40.7314 31.5216Z" fill="#FAB900"/>
<path id="Vector_11" d="M20.7812 28.3281C20.7812 28.6124 21.875 28.0984 21.875 28.3281C21.875 28.5577 22.1047 32.8015 21.9734 32.889C21.8422 32.9765 20.8797 33.1187 20.8797 32.889C20.8797 32.6593 20.7812 28.2406 20.7812 28.3281Z" fill="#1D1D1B"/>
<path id="Vector_12" d="M52.4998 31.3361C52.631 31.2048 54.6873 31.0627 54.6873 31.4345C54.6873 31.8064 54.6873 37.7673 54.4576 37.7673C53.6978 37.8086 52.9359 37.7756 52.1826 37.6689C52.1279 37.5377 52.3576 31.4345 52.4998 31.3361Z" fill="#C8DB89"/>
<path id="Vector_13" d="M57.2796 35.8969C57.4983 35.8204 59.2812 35.7547 59.3249 35.9844C59.3687 36.2141 58.7343 47.3813 58.5483 47.4688C58.0941 47.5212 57.6354 47.5212 57.1812 47.4688C57.1812 47.4688 57.1374 35.9407 57.2796 35.8969Z" fill="#C8DB89"/>
<path id="Vector_14" d="M26.0643 50.2468C28.1432 50.1539 30.2261 50.2014 32.2986 50.389V52.85L26.0533 52.7078C25.9644 51.8897 25.9681 51.0641 26.0643 50.2468Z" fill="#C8DB89"/>
<path id="Vector_15" d="M37.3187 50.4766C39.5006 50.2829 41.6912 50.2062 43.8812 50.2469C43.8812 50.4329 44.0562 52.2594 43.8812 52.3469C43.7062 52.4344 37.1875 52.5 37.1875 52.5C37.1875 52.5 37.1875 50.5204 37.3187 50.4766Z" fill="#C8DB89"/>
</g>
</svg>
