<svg width="70" height="70" viewBox="0 0 70 70" fill="none" xmlns="http://www.w3.org/2000/svg">
<g id="space-svgrepo-com (1)">
<path id="Vector" d="M3.52588 35.0905C3.52588 43.4378 6.84185 51.4433 12.7443 57.3457C18.6468 63.2482 26.6523 66.5642 34.9996 66.5642C43.347 66.5642 51.3525 63.2482 57.2549 57.3457C63.1574 51.4433 66.4734 43.4378 66.4734 35.0905C66.4734 26.7431 63.1574 18.7376 57.2549 12.8351C51.3525 6.93267 43.347 3.6167 34.9996 3.6167C26.6523 3.6167 18.6468 6.93267 12.7443 12.8351C6.84185 18.7376 3.52588 26.7431 3.52588 35.0905Z" fill="#FFC700"/>
<path id="Vector_2" d="M34.9999 67.2216C17.2826 67.2216 2.86816 52.8076 2.86816 35.0899C2.86816 17.3722 17.2826 2.9585 34.9999 2.9585C52.7173 2.9585 67.1317 17.3726 67.1317 35.0903C67.1317 52.808 52.7173 67.2216 34.9999 67.2216ZM34.9999 4.2745C18.0078 4.2745 4.18416 18.0981 4.18416 35.0903C4.18416 52.0824 18.0078 65.9057 34.9999 65.9057C51.9921 65.9057 65.8157 52.0821 65.8157 35.0899C65.8157 18.0977 51.9921 4.2745 34.9999 4.2745Z" fill="#6C0000"/>
<path id="Vector_3" d="M16.2583 42.1996C16.2583 51.5964 20.4902 59.9901 27.1272 65.5313C29.6476 66.1816 32.2757 66.5638 34.9994 66.5638C52.3822 66.5638 66.4735 52.4724 66.4735 35.09C66.4735 27.5433 63.8114 20.6221 59.3832 15.1999C55.3705 13.1611 50.8568 11.9858 46.0622 11.9858C29.6024 11.9862 16.2583 25.5133 16.2583 42.1996Z" fill="#FFEC43"/>
<path id="Vector_4" d="M34.9992 67.2217C32.3752 67.2217 29.6715 66.8672 26.9625 66.1682L26.819 66.1311L26.7049 66.0359C19.6475 60.144 15.6001 51.4556 15.6001 42.1995C15.6001 25.1769 29.2651 11.3281 46.062 11.3281C50.8083 11.3281 55.3899 12.4338 59.6812 14.6132L59.8047 14.6766L59.8926 14.784C64.5606 20.4999 67.1317 27.7109 67.1317 35.09C67.1317 52.8077 52.7169 67.2217 34.9992 67.2217ZM27.435 64.931C29.9889 65.5778 32.5331 65.9061 34.9995 65.9061C51.9917 65.9061 65.8157 52.0825 65.8157 35.0903C65.8157 28.0602 63.3825 21.1887 58.9613 15.7245C54.8928 13.6805 50.5535 12.6445 46.0623 12.6445C29.991 12.6445 16.9164 25.9028 16.9164 42.1999C16.9161 51.0146 20.7479 59.2911 27.435 64.931Z" fill="#6B0204"/>
<path id="Vector_5" d="M16.6885 24.3648C16.6885 25.187 16.8504 26.0011 17.1651 26.7607C17.4797 27.5203 17.9409 28.2105 18.5222 28.7919C19.1036 29.3732 19.7938 29.8344 20.5534 30.149C21.313 30.4637 22.1271 30.6256 22.9493 30.6256C23.7715 30.6256 24.5856 30.4637 25.3452 30.149C26.1048 29.8344 26.795 29.3732 27.3763 28.7919C27.9577 28.2105 28.4189 27.5203 28.7335 26.7607C29.0481 26.0011 29.2101 25.187 29.2101 24.3648C29.2101 22.7043 28.5505 21.1119 27.3763 19.9377C26.2022 18.7636 24.6097 18.104 22.9493 18.104C21.2888 18.104 19.6963 18.7636 18.5222 19.9377C17.3481 21.1119 16.6885 22.7043 16.6885 24.3648Z" fill="#FFEC43"/>
<path id="Vector_6" d="M22.9494 31.2839C19.1344 31.2839 16.0303 28.1804 16.0303 24.3651C16.0303 20.5501 19.1344 17.4463 22.9494 17.4463C26.7644 17.4463 29.8682 20.5501 29.8682 24.3651C29.8682 28.1801 26.7648 31.2839 22.9494 31.2839ZM22.9494 18.7623C19.8596 18.7623 17.3459 21.2753 17.3459 24.3651C17.3459 27.4549 19.8596 29.9679 22.9494 29.9679C26.0392 29.9679 28.5522 27.4549 28.5522 24.3651C28.5522 21.2753 26.0392 18.7623 22.9494 18.7623Z" fill="#6B0204"/>
<path id="Vector_7" d="M39.2583 13.0381C39.2583 13.9523 39.6214 14.829 40.2678 15.4754C40.9142 16.1218 41.791 16.4849 42.7051 16.4849C43.6192 16.4849 44.496 16.1218 45.1424 15.4754C45.7888 14.829 46.1519 13.9523 46.1519 13.0381C46.1519 12.124 45.7888 11.2473 45.1424 10.6009C44.496 9.95445 43.6192 9.59131 42.7051 9.59131C41.791 9.59131 40.9142 9.95445 40.2678 10.6009C39.6214 11.2473 39.2583 12.124 39.2583 13.0381Z" fill="#FFEC43"/>
<path id="Vector_8" d="M42.7044 17.1432C40.4413 17.1432 38.5996 15.3015 38.5996 13.0384C38.5996 10.7753 40.4413 8.93359 42.7044 8.93359C44.9675 8.93359 46.8092 10.7753 46.8092 13.0384C46.8092 15.3015 44.9675 17.1432 42.7044 17.1432ZM42.7044 10.2496C41.1669 10.2496 39.9156 11.5008 39.9156 13.0384C39.9156 14.5759 41.1669 15.8272 42.7044 15.8272C44.242 15.8272 45.4932 14.5759 45.4932 13.0384C45.4932 11.5008 44.2423 10.2496 42.7044 10.2496Z" fill="#6B0204"/>
<path id="Vector_9" d="M25.6825 10.7615C25.8505 11.2233 26.275 11.5704 26.8626 11.7264C27.4502 11.8824 28.1527 11.8346 28.8157 11.5934C29.4787 11.3522 30.0478 10.9374 30.3978 10.4403C30.7478 9.94325 30.85 9.40455 30.682 8.94274C30.514 8.48093 30.0895 8.13384 29.5019 7.97783C28.9143 7.82183 28.2118 7.86968 27.5488 8.11086C26.8858 8.35204 26.3168 8.7668 25.9668 9.26389C25.6168 9.76098 25.5145 10.2997 25.6825 10.7615Z" fill="#FFEC43"/>
<path id="Vector_10" d="M27.5881 12.4763C26.3648 12.4763 25.3978 11.9061 25.0639 10.9881C24.8224 10.3248 24.955 9.55867 25.4286 8.88667C25.858 8.27732 26.5311 7.78277 27.3238 7.49402C27.7886 7.32198 28.28 7.23278 28.7756 7.23047C29.9989 7.23047 30.9663 7.80132 31.2998 8.71937C31.5413 9.38262 31.4087 10.1488 30.9351 10.8208C30.5057 11.4301 29.8326 11.9247 29.0399 12.2134C28.575 12.3851 28.0836 12.4741 27.5881 12.4763ZM28.7756 8.54647C28.4336 8.54959 28.0947 8.61188 27.7739 8.73057C27.2384 8.92482 26.7761 9.25802 26.5041 9.64407C26.3739 9.82887 26.1744 10.1911 26.3008 10.5383C26.508 11.1074 27.6049 11.337 28.5905 10.9769C29.1253 10.7826 29.588 10.4494 29.8599 10.0634C29.9901 9.87822 30.1896 9.51632 30.0633 9.16912C29.9257 8.79077 29.4203 8.54647 28.7756 8.54647Z" fill="#6B0204"/>
<path id="Vector_11" d="M8.47197 33.2934C8.68073 33.4184 8.9228 33.4832 9.18434 33.484C9.44589 33.4848 9.72179 33.4216 9.9963 33.2981C10.2708 33.1746 10.5386 32.9931 10.7842 32.7641C11.0299 32.535 11.2487 32.2629 11.4282 31.9632C11.6077 31.6635 11.7442 31.3421 11.8301 31.0174C11.9161 30.6927 11.9496 30.371 11.9289 30.0707C11.9082 29.7704 11.8336 29.4973 11.7094 29.2671C11.5852 29.037 11.4138 28.8541 11.205 28.7291C10.7834 28.4767 10.2351 28.475 9.68072 28.7245C9.12631 28.9739 8.61125 29.4541 8.24882 30.0594C7.88639 30.6646 7.70629 31.3454 7.74814 31.9519C7.78999 32.5584 8.05036 33.041 8.47197 33.2934Z" fill="#FFEC43"/>
<path id="Vector_12" d="M9.18948 34.1414C8.81859 34.145 8.45388 34.0464 8.13528 33.8565C6.92743 33.1331 6.73003 31.3162 7.68553 29.7202C8.60428 28.1869 10.3802 27.4669 11.5439 28.1638C12.7518 28.8872 12.9492 30.7041 11.9937 32.3001C11.3241 33.4187 10.2234 34.1414 9.18948 34.1414ZM10.4901 29.1949C10.0141 29.1949 9.31163 29.5659 8.81428 30.3957C8.20808 31.4083 8.32603 32.4373 8.81113 32.7278C9.28433 33.0106 10.2192 32.7026 10.8653 31.6242C11.4715 30.6117 11.3535 29.5827 10.8684 29.2922C10.7535 29.226 10.6227 29.1924 10.4901 29.1949Z" fill="#6B0204"/>
<path id="Vector_13" d="M12.4998 50.7989C13.2097 50.6947 13.8311 50.1899 14.2274 49.3956C14.6236 48.6012 14.7622 47.5824 14.6126 46.5632C14.4631 45.5441 14.0376 44.608 13.4298 43.961C12.8221 43.3141 12.0818 43.0091 11.3718 43.1133C10.6619 43.2175 10.0405 43.7223 9.64421 44.5166C9.24797 45.3109 9.1094 46.3298 9.25897 47.3489C9.40854 48.3681 9.83401 49.3041 10.4418 49.9511C11.0495 50.5981 11.7898 50.9031 12.4998 50.7989Z" fill="#FFEC43"/>
<path id="Vector_14" d="M12.2221 51.4784C10.4998 51.4784 8.94614 49.7448 8.60839 47.446C8.23914 44.926 9.41164 42.7378 11.2768 42.4631C13.1437 42.1939 14.9028 44.0038 15.2643 46.4688C15.4341 47.627 15.2755 48.7711 14.8167 49.6902C14.3186 50.6888 13.5301 51.3139 12.5959 51.4511C12.4722 51.4692 12.3472 51.4783 12.2221 51.4784ZM11.6509 43.7518C11.5897 43.7517 11.5285 43.7561 11.4679 43.7651C10.3703 43.9261 9.65664 45.5242 9.91039 47.2546C10.1638 48.979 11.289 50.3132 12.4052 50.1487C12.9008 50.0759 13.339 49.7049 13.6393 49.1033C13.9788 48.4222 14.0939 47.5545 13.962 46.6592C13.7233 45.0289 12.7079 43.7518 11.6509 43.7518Z" fill="#6B0204"/>
<path id="Vector_15" d="M26.6374 20.504C27.2213 21.3611 27.5336 22.3741 27.5338 23.4111C27.5338 26.3403 25.0887 28.7147 22.0724 28.7147C20.732 28.7176 19.4363 28.2332 18.4264 27.3518C19.4026 28.7941 21.0812 29.7482 22.9915 29.7482C26.0078 29.7482 28.4529 27.3738 28.4529 24.4447C28.4529 22.8781 27.7494 21.4749 26.6374 20.504ZM36.2253 42.5127C36.9019 43.4917 37.2981 44.6614 37.2981 45.9207C37.2981 49.3545 34.371 52.1377 30.7604 52.1377C29.0808 52.1377 27.5541 51.5301 26.3959 50.54C27.5642 52.2308 29.5739 53.3494 31.8605 53.3494C35.4711 53.3494 38.3981 50.5659 38.3981 47.1324C38.3985 45.2959 37.5564 43.6509 36.2253 42.5127ZM13.8001 46.6256C13.5789 44.9802 12.5482 43.7825 11.4978 43.9509C11.4593 43.9572 11.4222 43.9687 11.3848 43.9782C12.2388 44.1931 12.9885 45.2515 13.1733 46.6256C13.3864 48.2107 12.7694 49.6296 11.7852 49.8823C11.9539 49.9247 12.1261 49.9373 12.299 49.9096C13.3493 49.7413 14.0217 48.2709 13.8001 46.6256ZM10.9305 31.6781C11.383 30.8696 11.2091 29.8651 10.542 29.435C10.5175 29.4192 10.4919 29.4063 10.4667 29.3926C10.885 29.8924 10.9455 30.703 10.5675 31.3785C10.1318 32.1576 9.27393 32.4688 8.61523 32.1062C8.69783 32.2049 8.79303 32.2927 8.90293 32.3634C9.57003 32.7936 10.4779 32.487 10.9305 31.6781ZM28.5946 10.815C29.4577 10.4405 29.9533 9.70338 29.7013 9.16928C29.6922 9.14968 29.68 9.13183 29.6691 9.11328C29.6824 9.60258 29.2197 10.1675 28.4991 10.4804C27.6675 10.8412 26.8002 10.7331 26.5121 10.2473C26.5149 10.3439 26.5342 10.4377 26.5758 10.5259C26.8271 11.0603 27.7312 11.1898 28.5946 10.815ZM44.4692 11.229C44.7296 11.6578 44.8666 12.1501 44.8651 12.6518C44.8651 14.0854 43.7853 15.2474 42.4532 15.2474C41.8334 15.2474 41.2702 14.9936 40.8429 14.5803C41.2741 15.2862 42.0154 15.7531 42.8589 15.7531C44.191 15.7531 45.2707 14.5911 45.2707 13.1575C45.2707 12.391 44.9603 11.704 44.4692 11.229ZM54.0477 27.9132C54.3488 28.3694 54.5091 28.9041 54.5086 29.4507C54.5086 30.9998 53.2507 32.2556 51.6995 32.2556C51.0068 32.2559 50.3385 31.9991 49.8242 31.535C50.0797 31.9245 50.4281 32.2444 50.838 32.4656C51.248 32.6869 51.7065 32.8026 52.1724 32.8023C53.7239 32.8023 54.9815 31.5465 54.9815 29.9974C54.9815 29.6038 54.8983 29.2147 54.7374 28.8555C54.5764 28.4963 54.3414 28.1752 54.0477 27.9132Z" fill="#FFBD00"/>
</g>
</svg>
