<svg width="70" height="70" viewBox="0 0 70 70" fill="none" xmlns="http://www.w3.org/2000/svg">
<g id="space-satellite-dish-svgrepo-com">
<path id="Vector" d="M20.7813 37.5049C18.5306 32.7102 18.1637 27.2449 19.7532 22.1924C22.4875 13.9893 28.2954 9.00179 31.511 7.56898C34.7266 6.13616 38.8282 4.8346 40.1188 6.0596C41.4094 7.2846 47.4688 24.2705 47.4688 24.2705L51.986 23.6252C51.986 23.6252 52.0735 20.7815 55.5844 20.7815C59.0953 20.7815 59.9594 24.883 58.9969 26.2502C58.0344 27.6174 54.9938 27.7596 54.3922 27.5737L53.3532 27.344C52.1508 28.0608 50.993 28.8498 49.886 29.7065C49.886 29.8924 56.4485 46.0252 56.3063 46.8455C55.8432 48.0049 55.0527 49.0044 54.0313 49.7221C53.211 50.269 48.8797 53.3205 41.2235 52.4018C35.7796 51.6425 30.6791 49.2995 26.5563 45.6643C24.9484 44.1229 23.5509 42.376 22.4 40.469L20.486 41.6721L26.6438 52.2049C26.6438 52.2049 33.7532 51.7893 38.675 55.7596C43.5969 59.7299 43.4985 63.8205 43.1813 64.1377C42.8641 64.4549 10.7844 64.5315 10.6969 64.2362C10.6094 63.9408 10.2375 61.0424 13.3766 57.969C15.7182 55.897 18.4011 54.2466 21.3063 53.0909C21.3063 53.0909 17.6204 44.4284 17.3907 44.3409C16.5868 44.2042 15.8309 43.8655 15.1938 43.3566C14.5567 42.8477 14.0594 42.1853 13.7485 41.4315C13.5567 40.9876 13.4589 40.5089 13.4613 40.0254C13.4638 39.5419 13.5664 39.0641 13.7627 38.6222C13.9589 38.1804 14.2446 37.784 14.6017 37.458C14.9589 37.132 15.3796 36.8836 15.8375 36.7284C16.4667 36.5913 17.1178 36.5896 17.7477 36.7235C18.3775 36.8574 18.9717 37.1238 19.4907 37.5049C19.7141 37.6987 19.8996 37.9324 20.0375 38.194L20.7813 37.5049Z" fill="#1D1D1B"/>
<path id="Vector_2" d="M38.2811 7.40496C38.8936 7.33934 46.0358 25.6378 46.0358 25.6378C46.0358 25.6378 44.4389 25.4956 44.4826 25.6378C44.5264 25.78 44.3514 26.3596 44.5701 26.3596C44.7889 26.3596 46.3092 26.5018 46.3529 26.6878C46.3967 26.8737 47.9936 30.7893 47.9936 30.7893C47.0627 30.2931 46.0934 29.8725 45.0951 29.5315C45.0076 29.6628 44.7779 30.1222 45.0951 30.3518C45.4123 30.5815 48.1248 31.8284 48.2451 32.0581C48.3654 32.2878 50.3451 36.4331 50.3451 36.4331C50.3451 36.4331 44.8764 32.419 44.8217 32.605C44.767 32.7909 44.417 33.4253 44.6029 33.5128C44.7889 33.6003 50.4764 37.4393 50.6623 37.7565C50.8483 38.0737 53.0248 42.9956 52.8498 42.9518C52.6748 42.9081 44.7779 37.1878 44.6467 37.2971C44.5154 37.4065 44.1873 38.2596 44.3733 38.3909C44.5592 38.5221 53.1233 43.8596 53.3529 44.2753C53.7428 45.0656 54.0613 45.8892 54.3045 46.7362C54.2681 46.8598 54.2037 46.9733 54.1165 47.0681C54.0293 47.1629 53.9215 47.2365 53.8014 47.2831C53.6264 47.2831 44.1436 40.994 43.8701 41.0815C43.5967 41.169 43.2358 41.7706 43.4108 41.9018C43.5858 42.0331 53.1233 47.83 52.8936 48.0596C52.6639 48.2893 50.3889 49.4268 50.3889 49.4268C50.3889 49.4268 42.6561 44.4503 42.4154 44.4503C42.1748 44.4503 41.7264 44.8221 41.8686 44.9534C42.0108 45.0846 49.6561 49.744 49.4264 49.8753C48.7224 50.1783 47.9895 50.4091 47.2389 50.5643C46.8804 50.6457 46.512 50.6752 46.1451 50.6518C46.1451 50.6518 40.9498 46.6378 40.7311 46.6378C40.5123 46.6378 39.8561 47.0096 40.1842 47.2393C40.5123 47.469 45.1936 50.6956 44.9639 50.794C41.1406 50.905 37.347 50.0908 33.9061 48.4206C28.4373 45.7737 22.5858 39.3096 21.2623 33.4253C20.6804 30.3132 20.7402 27.115 21.438 24.0269C22.1357 20.9387 23.4568 18.0255 25.3201 15.4659C28.8748 11.0034 34.2998 7.86434 38.2811 7.40496Z" fill="#CBE7F5"/>
<path id="Vector_3" d="M32.4295 12.1845C32.8123 12.086 33.1623 13.2782 33.0201 13.5517C32.8779 13.8251 30.3295 14.7876 29.4654 16.8329C28.6014 18.8782 28.6451 19.3923 28.4701 19.6657C28.2951 19.9392 27.5951 20.0704 27.4639 19.797C27.5229 18.3481 28.0143 16.9501 28.8748 15.7829C30.1107 13.8251 31.4232 12.4579 32.4295 12.1845Z" fill="#1D1D1B"/>
<path id="Vector_4" d="M48.0156 25.1564C48.1141 24.9486 52.7516 24.4673 52.8937 24.1939C53.0359 23.9205 53.2109 20.9127 56.2625 21.6892C59.3141 22.4658 58.0891 26.0642 56.6344 26.4798C55.1797 26.8955 53.5281 26.0205 53.1672 26.2502C51.9854 27.1009 50.7506 27.8754 49.4703 28.5689C48.8248 27.5068 48.335 26.3576 48.0156 25.1564Z" fill="#E6E4DA"/>
<path id="Vector_5" d="M15.9798 37.6687C16.3524 37.4483 16.7773 37.332 17.2102 37.332C17.6431 37.332 18.0681 37.4483 18.4407 37.6687C19.3923 38.2155 19.5345 38.5765 19.447 38.664C19.3595 38.7515 18.4407 39.3093 18.572 39.4843C18.7032 39.6593 18.7579 40.3046 19.0751 40.0858C19.3923 39.8671 21.0329 38.303 21.2626 38.5327C21.4923 38.7624 22.1704 39.4405 21.8532 39.6265C21.536 39.8124 19.3048 41.2671 19.436 41.5405C19.5673 41.814 25.8235 51.9749 25.5063 52.1171C25.1891 52.2593 22.2251 52.7077 22.2251 52.7077L18.2985 43.8593C18.2985 43.8593 19.0751 43.4108 19.0313 43.1812C18.9876 42.9515 19.0313 42.5358 18.8454 42.5905C18.3072 42.9125 17.6995 43.1 17.0735 43.1374C16.3845 43.039 14.3391 42.0437 14.4704 40.2171C14.6016 38.3905 15.247 37.9421 15.9798 37.6687Z" fill="#E6E4DA"/>
<path id="Vector_6" d="M17.664 38.7081C17.9265 38.7081 17.5765 39.255 17.4343 39.3971C17.2921 39.5393 16.3405 39.8565 16.5265 40.4909C16.7124 41.1253 17.4343 41.0815 17.6202 41.5846C17.8061 42.0878 17.8936 42.2628 17.6202 42.2628C17.3468 42.2628 15.564 42.58 15.2905 40.8518C15.0171 39.1237 16.5702 38.4893 17.664 38.7081Z" fill="#1D1D1B"/>
<path id="Vector_7" d="M13.4312 62.2239C12.8406 62.1146 14.525 58.0786 19.4906 55.8911C24.4562 53.7036 26.3266 53.2005 32.6156 54.6661C38.9047 56.1317 41.0484 62.3224 40.7312 62.6396C39.6072 62.8957 38.4435 62.9254 37.3078 62.7271C37.2203 62.5521 34.4422 58.9974 34.0266 58.8989C33.6109 58.8005 33.1625 58.9974 33.3375 59.2161C34.3036 60.3011 35.2022 61.4444 36.0281 62.6396C35.8531 62.6396 34.7047 62.6396 34.7047 62.6396C33.9118 61.6224 33.0296 60.678 32.0687 59.8177C31.7953 59.8177 31.2484 60.1786 31.4781 60.3646C31.7078 60.5505 33.6656 62.5521 33.4797 62.5521C33.2937 62.5521 32.2984 62.5521 32.2984 62.5521C31.6734 61.8539 31.001 61.1998 30.2859 60.5942C30.0562 60.5942 29.6516 60.8677 29.6953 61.0536C29.7391 61.2396 31.1062 62.4208 30.7891 62.5521C30.4719 62.6833 14.1094 62.3442 13.4312 62.2239Z" fill="#E7413E"/>
<g id="Group">
<path id="Vector_8" d="M35.4811 58.1225C35.3171 57.8818 35.9843 57.5318 36.3014 57.674C37.5088 58.8606 38.5666 60.1902 39.4514 61.6334C39.3093 61.8631 38.7624 62.0928 38.6311 61.9506C38.4999 61.8084 35.5796 58.2647 35.4811 58.1225Z" fill="#1D1D1B"/>
<path id="Vector_9" d="M17.2593 60.1566C17.0952 60.0582 17.478 59.0629 18.0796 58.3738C18.6812 57.6847 18.8015 57.466 19.1734 57.5097C19.5452 57.5535 20.0374 57.6957 19.8515 58.0129C19.6655 58.3301 18.7577 58.8332 18.6265 59.4238C18.4952 60.0144 18.528 60.1129 18.353 60.2004C18.1782 60.2715 17.9901 60.3044 17.8014 60.2969C17.6128 60.2893 17.4279 60.2415 17.2593 60.1566Z" fill="#1D1D1B"/>
<path id="Vector_10" d="M22.8156 56.58C23.1411 56.3979 23.5055 56.2965 23.8783 56.2844C24.251 56.2724 24.6212 56.35 24.9578 56.5107C25.2943 56.6715 25.5873 56.9107 25.8122 57.2083C26.0371 57.5058 26.1872 57.853 26.25 58.2207C26.6984 60.2222 23.1 61.9066 21.875 60.1347C21.6285 59.8644 21.4537 59.5367 21.3666 59.1814C21.2795 58.8261 21.2829 58.4546 21.3765 58.101C21.4701 57.7474 21.6508 57.4229 21.9023 57.1571C22.1537 56.8914 22.4677 56.693 22.8156 56.58Z" fill="#1D1D1B"/>
</g>
<path id="Vector_11" d="M23.2968 57.4987C23.4735 57.3996 23.6714 57.3442 23.8739 57.3372C24.0764 57.3302 24.2776 57.3718 24.4608 57.4586C24.6439 57.5453 24.8036 57.6747 24.9265 57.8358C25.0494 57.9969 25.1319 58.1851 25.1671 58.3847C25.4077 59.4784 23.4608 60.3753 22.8265 59.4237C22.6967 59.2782 22.6043 59.1033 22.5572 58.9141C22.51 58.7249 22.5096 58.5271 22.5559 58.3377C22.6021 58.1483 22.6938 57.9729 22.8228 57.8268C22.9519 57.6806 23.1145 57.5681 23.2968 57.4987Z" fill="#FAB900"/>
<path id="Vector_12" d="M27.8251 55.3002C28.226 55.0532 28.6958 54.9422 29.1647 54.9836C29.6337 55.0249 30.0768 55.2165 30.4282 55.5298C30.8767 56.1205 30.3298 57.1267 29.422 57.6298C28.5142 58.133 27.2345 57.6298 27.0485 56.9845C26.9284 56.6582 26.9428 56.2975 27.0884 55.9817C27.234 55.6659 27.4989 55.4208 27.8251 55.3002Z" fill="#1D1D1B"/>
<path id="Vector_13" d="M28.8313 55.661C29.4985 55.5188 29.9251 55.8469 29.6516 56.3063C29.3782 56.7656 28.4704 57.1703 28.0985 56.8531C27.7266 56.536 27.7813 55.8906 28.8313 55.661Z" fill="#FAB900"/>
</g>
</svg>
