<svg width="70" height="70" viewBox="0 0 70 70" fill="none" xmlns="http://www.w3.org/2000/svg">
<g id="space-shuttle-svgrepo-com" clip-path="url(#clip0_14_986)">
<g id="Group">
<g id="Group_2">
<g id="Group_3">
<path id="Vector" d="M20.9871 17.53V67.1637H11.502V17.53C11.502 15.1232 14.2808 11.5957 16.2454 11.5957C18.2076 11.5958 20.9871 15.1232 20.9871 17.53Z" fill="#DBDCDC"/>
<path id="Vector_2" d="M20.9871 21.2339H11.502V23.1413H20.9871V21.2339Z" fill="#BCBCBB"/>
<path id="Vector_3" d="M20.9871 33.0513H11.502V34.9562H20.9871V33.0513Z" fill="#BCBCBB"/>
</g>
<g id="Group_4">
<path id="Vector_4" d="M58.7206 17.53V67.1637H49.2354V17.53C49.2354 15.1232 52.0142 11.5957 53.98 11.5957C55.9429 11.5958 58.7206 15.1232 58.7206 17.53Z" fill="#DBDCDC"/>
<path id="Vector_5" d="M58.7206 21.2339H49.2354V23.1413H58.7206V21.2339Z" fill="#BCBCBB"/>
<path id="Vector_6" d="M58.7206 33.0513H49.2354V34.9562H58.7206V33.0513Z" fill="#BCBCBB"/>
</g>
</g>
<path id="Vector_7" d="M47.231 16.6477V67.1634H22.7686V16.6477C22.7686 9.89379 29.9348 0 34.9998 0C40.0661 0 47.231 9.89379 47.231 16.6477Z" fill="#DB471D"/>
<path id="Vector_8" d="M47.2308 17.2334H22.7686V19.1384H47.2308V17.2334Z" fill="#DF6548"/>
<path id="Vector_9" d="M47.2308 29.6201H22.7686V31.5263H47.2308V29.6201Z" fill="#DF6548"/>
<path id="Vector_10" d="M60.6328 58.9674C60.4579 60.7981 59.5244 61.5301 58.031 61.7494C57.6608 61.8042 57.2576 61.8284 56.8209 61.8284H13.1785C12.7425 61.8284 12.3381 61.8041 11.9697 61.7505C10.4745 61.5301 9.54086 60.7981 9.36736 58.9674C9.16761 56.8713 10.7814 55.5009 15.5233 52.1076C20.7484 48.3659 26.9415 43.7922 27.7276 34.4964C27.7819 33.8473 27.811 33.1761 27.811 32.4782V20.4722C27.811 20.3479 27.8154 20.2189 27.8232 20.0911C28.0247 16.3238 31.1611 11.1338 34.9997 11.1338C38.8382 11.1338 41.9752 16.3238 42.1767 20.0911C42.1841 20.2189 42.1877 20.3479 42.1877 20.4722V32.4782C42.1877 33.1761 42.2169 33.8473 42.2717 34.4964C43.0573 43.7922 49.2503 48.3659 54.4768 52.1076C59.2186 55.5009 60.8324 56.8711 60.6328 58.9674Z" fill="white"/>
<path id="Vector_11" d="M39.1924 25.2458C39.1924 26.7013 30.8071 26.7013 30.8071 25.2458C30.8071 23.7915 32.6852 22.6123 35.0002 22.6123C37.3155 22.6123 39.1924 23.7914 39.1924 25.2458Z" fill="#BEDFE0"/>
<g id="Group_5">
<path id="Vector_12" d="M34.3864 70.0005L33.4668 63.5645H28.8676L27.9487 70.0005H34.3864Z" fill="#5A5553"/>
<path id="Vector_13" d="M42.0512 70.0005L41.131 63.5645H36.533L35.6128 70.0005H42.0512Z" fill="#5A5553"/>
</g>
<path id="Vector_14" d="M29.4682 54.7754C29.4682 56.7217 27.8885 58.3015 25.9421 58.3015C23.9953 58.3015 22.416 56.7217 22.416 54.7754C22.416 52.8277 23.9951 51.2505 25.9421 51.2505C27.8885 51.2504 29.4682 52.8277 29.4682 54.7754Z" fill="#DBDCDC"/>
<path id="Vector_15" d="M41.9556 59.9214H28.043V63.9225H41.9556V59.9214Z" fill="white"/>
<path id="Vector_16" d="M36.5249 64.8764C36.5249 65.7181 35.8428 66.4026 34.9999 66.4026C34.1576 66.4026 33.4751 65.7181 33.4751 64.8764V52.4892C33.4751 51.6464 34.1577 50.9644 34.9999 50.9644C35.8428 50.9644 36.5249 51.6464 36.5249 52.4892V64.8764Z" fill="#5A5553"/>
<path id="Vector_17" d="M42.1768 20.0911H27.8232C28.0248 16.3238 31.1612 11.1338 34.9997 11.1338C38.8383 11.1338 41.9753 16.3238 42.1768 20.0911Z" fill="#5A5553"/>
<path id="Vector_18" d="M27.7275 34.4966V40.8632C27.7275 43.5318 23.7257 48.6779 19.914 51.7252C16.1021 54.7753 13.2375 57.244 12.4811 57.8238C11.3624 58.6825 10.7912 60.2537 11.9697 61.7506C10.4745 61.5303 9.54086 60.7983 9.36736 58.9676C9.16761 56.8714 10.7814 55.5011 15.5233 52.1077C20.7482 48.366 26.9413 43.7924 27.7275 34.4966Z" fill="#5A5553"/>
<path id="Vector_19" d="M42.272 34.4966V40.8632C42.272 43.5318 46.2748 48.6779 50.0855 51.7252C53.8973 54.7753 56.7625 57.244 57.5183 57.8238C58.6378 58.6825 59.2083 60.2537 58.031 61.7506C59.5242 61.5303 60.4579 60.7983 60.6328 58.9676C60.8325 56.8714 59.2187 55.5011 54.4769 52.1077C49.2512 48.366 43.0577 43.7924 42.272 34.4966Z" fill="#5A5553"/>
</g>
</g>
<defs>
<clipPath id="clip0_14_986">
<rect width="70" height="70" fill="white"/>
</clipPath>
</defs>
</svg>
