<svg width="70" height="70" viewBox="0 0 70 70" fill="none" xmlns="http://www.w3.org/2000/svg">
<g id="space-ship-3-svgrepo-com">
<path id="Vector" d="M15.925 36.5862C11.9 29.2362 12.9172 22.094 14.6453 16.8987C16.3734 11.7034 22.7609 5.46898 30.6906 4.09085C38.6203 2.71273 44.8437 3.36898 51.5594 10.5221C58.275 17.6752 56.875 29.794 55.6172 32.9002C54.3594 36.0065 52.5 41.4205 47.5125 44.4721C44.5932 46.3065 41.3412 47.5478 37.9422 48.1252V50.2252C37.9422 50.2252 40.1297 50.3565 40.4578 50.958C40.6594 51.9143 40.7511 52.8904 40.7312 53.8674C40.7312 53.8674 53.5937 47.119 53.5937 46.8455C53.5937 46.5721 53.2765 42.8315 53.5937 42.4705C53.9109 42.1096 55.7812 41.869 57.6078 41.869C59.4343 41.869 61.25 43.0174 61.25 43.5205C61.25 44.0237 62.114 60.244 61.6984 60.6049C61.1174 60.8924 60.4857 61.0633 59.839 61.108C59.839 61.108 59.0625 66.5768 57.7828 66.4893C56.5031 66.4018 54.6875 61.6112 54.6875 61.6112C54.6875 61.6112 53.4078 61.7862 53.3203 61.3377C53.2328 60.8893 52.9265 54.6877 52.9265 54.6877L41.0375 60.8346C41.0375 60.8346 41.3109 63.9299 40.8953 64.1158C40.4797 64.3018 29.4656 65.2096 29.1375 64.258C28.9108 63.2082 28.7899 62.1383 28.7765 61.0643C28.7765 61.0643 23.45 57.969 21.2078 56.8752C18.9656 55.7815 17.9265 55.3768 17.9265 55.3768C18.0199 56.7424 18.0199 58.1128 17.9265 59.4784C17.7515 59.8393 16.8328 59.883 16.8328 59.883C16.8328 59.883 15.739 64.9471 13.7812 65.0784C11.8234 65.2096 9.9531 60.4846 9.9531 60.4846C9.9531 60.4846 8.74998 60.0143 8.74998 59.7846C8.74998 59.5549 8.01716 42.4705 8.2906 42.1971C8.56404 41.9237 10.0515 40.9174 13.125 40.9612C16.1984 41.0049 17.2703 42.2846 17.3578 42.8315C17.4453 43.3783 17.5437 48.8471 17.5437 48.8471L27.639 53.594C27.639 53.594 27.5515 50.9909 28.4594 50.5315C29.1977 50.2471 29.9883 50.1241 30.7781 50.1705L30.6469 47.983C30.6469 47.983 21.9406 47.5674 15.925 36.5862Z" fill="#1D1D1B"/>
<path id="Vector_2" d="M34.0159 6.05994C40.5784 5.4365 46.9112 7.24119 51.0674 12.7099C55.2237 18.1787 55.3002 29.4334 52.8393 34.5849C50.3784 39.7365 46.9659 44.7021 41.1252 45.9381C35.2846 47.174 26.3158 46.3099 21.9408 41.2021C17.5658 36.0943 14.4705 28.8537 15.3783 22.8381C16.2862 16.8224 20.9893 7.28494 34.0159 6.05994Z" fill="#E6E4DA"/>
<path id="Vector_3" d="M27.5515 19.2284C29.1812 17.8174 33.9718 16.7237 36.8484 16.3518C39.725 15.9799 41.989 17.3143 41.5406 20.7268C41.0921 24.1393 39.7578 32.2112 37.5703 33.7643C35.3828 35.3174 31.8718 34.7596 31.1937 33.994C30.5156 33.2284 27.4093 25.244 27.0484 23.7784C26.6875 22.3128 26.25 20.3659 27.5515 19.2284Z" fill="#1D1D1B"/>
<path id="Vector_4" d="M29.7389 19.8193C30.3842 19.4474 37.942 17.6318 38.8061 18.3099C39.6701 18.988 38.8061 22.1927 38.8061 22.1927C38.8061 22.1927 37.8983 21.6896 37.7123 21.8209C37.5264 21.9521 37.0233 22.3677 37.3514 22.5537C37.6795 22.7396 38.5326 22.8709 38.5326 23.1005C38.4828 23.4702 38.4061 23.8358 38.303 24.1943C38.303 24.1943 35.9295 22.9146 35.7545 23.2755C35.5795 23.6365 35.4811 23.6912 35.6561 23.8771C35.8311 24.063 38.2155 24.6974 38.1717 25.0584C38.128 25.4193 38.0295 25.9224 38.0295 25.9224C36.9663 25.4486 35.8695 25.0538 34.7483 24.7412C34.6608 24.8724 34.3873 25.463 34.5186 25.6052C34.6498 25.7474 37.7123 26.699 37.6686 27.0162C37.6248 27.3334 37.4389 28.0224 37.4389 28.0224C36.3857 27.4749 35.288 27.0176 34.1576 26.6552C34.0701 26.8302 33.7967 27.2459 34.0701 27.4318C34.3436 27.6177 37.4389 28.799 37.3514 29.0177C37.2639 29.2365 37.1655 29.8927 36.9795 29.838C36.7936 29.7834 33.7967 28.3396 33.5233 28.5255C33.2498 28.7115 33.1076 29.2037 33.3373 29.3459C34.5456 29.786 35.7193 30.3161 36.8483 30.9318C36.8483 31.1615 36.8483 31.6209 36.6623 31.6646C36.4764 31.7084 33.6108 30.5709 33.4686 30.6584C33.3264 30.7459 33.1076 31.2052 33.4686 31.4349C33.8295 31.6646 36.4326 32.2115 36.2029 32.4412C35.5673 32.8104 34.8488 33.0136 34.1139 33.0318C33.2389 33.0318 32.8342 33.2177 31.5983 30.3412C30.4009 27.5858 29.4848 24.7165 28.8639 21.7771C28.8639 20.7818 28.7764 20.3662 29.7389 19.8193Z" fill="#92A0D1"/>
<g id="Group">
<path id="Vector_5" d="M31.5986 8.24753C31.6643 8.06159 32.5174 7.97409 32.6924 8.24753C33.1236 9.84307 33.3984 11.4768 33.5127 13.1257C33.3377 13.3553 32.9221 13.585 32.8346 13.3991C32.327 11.7063 31.9144 9.98639 31.5986 8.24753Z" fill="#1D1D1B"/>
<path id="Vector_6" d="M37.2966 7.78758C37.4728 7.67514 37.6859 7.63621 37.8904 7.67916C38.0949 7.7221 38.2744 7.84348 38.3904 8.01727C38.5087 9.62436 38.3571 11.2399 37.942 12.797C37.6685 12.8954 37.2529 12.8954 37.2091 12.7095C37.1289 11.0687 37.1582 9.42444 37.2966 7.78758Z" fill="#1D1D1B"/>
<path id="Vector_7" d="M45.5438 11.7469C45.8938 11.5173 46.5501 12.5673 46.1891 12.8407C45.8282 13.1141 43.0829 15.5751 42.9079 15.5313C42.7329 15.4876 42.2626 15.4001 42.4485 15.2141C42.6344 15.0282 45.4126 11.8454 45.5438 11.7469Z" fill="#1D1D1B"/>
<path id="Vector_8" d="M43.6841 20.9127C43.6841 20.7705 49.0544 19.5455 49.2841 19.819C49.5138 20.0924 49.9185 20.683 49.4701 20.8252C47.5612 21.2527 45.6294 21.5704 43.6841 21.7768C43.4982 21.6893 43.7497 21.0986 43.6841 20.9127Z" fill="#1D1D1B"/>
<path id="Vector_9" d="M43.8594 25.4735C44.0344 25.386 50.739 25.7907 50.739 26.1079C50.739 26.4251 51.0125 26.7423 50.6078 26.786C48.3649 26.7286 46.1267 26.5497 43.9031 26.2501C43.6844 26.1079 43.4984 25.6485 43.8594 25.4735Z" fill="#1D1D1B"/>
<path id="Vector_10" d="M43.7499 30.713C43.9249 30.6474 48.803 32.1677 48.6718 32.5286C48.5405 32.8896 48.4421 33.1739 48.2124 33.1739C46.5342 32.7289 44.8895 32.166 43.2905 31.4896C42.9952 31.2161 43.4546 30.8005 43.7499 30.713Z" fill="#1D1D1B"/>
<path id="Vector_11" d="M40.7206 35.0876C40.8846 34.9673 45.5987 39.911 45.4128 40.1407C45.2268 40.3704 44.8659 40.786 44.5924 40.6876C44.319 40.5892 39.7581 35.8095 39.944 35.5907C40.175 35.3836 40.4371 35.2138 40.7206 35.0876Z" fill="#1D1D1B"/>
<path id="Vector_12" d="M33.0641 37.5486C34.9016 36.4549 38.5328 37.6361 37.8 41.0596C37.6798 41.6481 37.4004 42.1924 36.9922 42.633C36.5839 43.0737 36.0626 43.3938 35.4849 43.5585C34.9073 43.7232 34.2955 43.7262 33.7162 43.5672C33.137 43.4081 32.6125 43.0931 32.2 42.6565C31.8852 42.2783 31.6559 41.8365 31.5278 41.3614C31.3997 40.8863 31.3759 40.3891 31.458 39.9039C31.54 39.4188 31.7261 38.9571 32.0033 38.5505C32.2805 38.144 32.6424 37.8022 33.0641 37.5486Z" fill="#1D1D1B"/>
</g>
<path id="Vector_13" d="M33.6439 38.5989C33.9839 38.3999 34.3746 38.3045 34.7681 38.3244C35.1616 38.3442 35.5407 38.4786 35.859 38.7109C36.1772 38.9431 36.4207 39.2633 36.5596 39.632C36.6984 40.0007 36.7267 40.4019 36.6408 40.7864C36.5776 41.1675 36.4095 41.5234 36.1553 41.8142C35.9011 42.105 35.5709 42.3193 35.2017 42.4329C34.8326 42.5465 34.439 42.5549 34.0653 42.4573C33.6916 42.3597 33.3525 42.1598 33.0861 41.8802C32.8832 41.6374 32.7354 41.3534 32.6529 41.048C32.5703 40.7425 32.5551 40.4228 32.6081 40.1109C32.6611 39.7989 32.7812 39.5022 32.96 39.2412C33.1388 38.9802 33.3722 38.761 33.6439 38.5989Z" fill="#F2910D"/>
<path id="Vector_14" d="M26.5016 34.858C26.7859 34.8033 27.1797 34.9893 27.0922 35.3612C26.0484 36.8013 24.8408 38.1153 23.4937 39.2768C23.2203 39.2768 22.6734 39.0908 22.8047 38.7737C22.9359 38.4565 25.9984 35.0002 26.5016 34.858Z" fill="#1D1D1B"/>
<path id="Vector_15" d="M18.7469 31.2161C18.8235 30.7895 23.8547 28.9739 24.0844 29.2036C24.3141 29.4333 24.5875 29.9802 24.3141 30.1223C24.0407 30.2645 19.2938 32.2552 19.1188 32.2114C18.9438 32.1677 18.7032 31.4895 18.7469 31.2161Z" fill="#1D1D1B"/>
<path id="Vector_16" d="M17.292 23.647C19.3466 23.8881 21.3847 24.2534 23.3951 24.7407C23.5811 24.9157 23.7232 25.2438 23.4498 25.3313C23.1764 25.4188 17.0186 24.6423 17.0186 24.6423C17.0186 24.6423 17.0623 23.7782 17.292 23.647Z" fill="#1D1D1B"/>
<path id="Vector_17" d="M19.2063 17.5C19.3813 17.4343 24.1719 19.0859 24.1719 19.3593C24.1719 19.6328 23.8985 20.1796 23.7235 20.1359C23.5485 20.0921 19.0751 18.5937 18.8891 18.4953C18.7032 18.3968 18.9329 17.6312 19.2063 17.5Z" fill="#1D1D1B"/>
<path id="Vector_18" d="M24.7627 11.6156C24.7627 11.4515 25.5393 10.839 25.7689 10.9812C25.9986 11.1234 29.3236 14.9843 29.0502 15.3562C28.7768 15.7281 28.4158 16.0015 28.2736 15.8593C28.1314 15.7171 24.8174 11.8453 24.7627 11.6156Z" fill="#1D1D1B"/>
<path id="Vector_19" d="M31.9701 48.2123C32.0904 48.1248 33.0639 48.3873 34.5623 48.5295C36.0607 48.6717 36.6186 48.2123 36.7498 48.5295C36.8906 49.1302 36.8906 49.7553 36.7498 50.356C36.6186 50.356 34.792 50.1701 33.742 50.2138C32.692 50.2576 32.0576 50.4435 32.0139 50.2138C31.9701 49.9842 31.7186 48.3873 31.9701 48.2123Z" fill="#DDC07C"/>
<path id="Vector_20" d="M10.2266 43.1483C10.4782 42.7764 12.1844 42.4702 13.5079 42.5139C14.8313 42.5577 15.6954 43.1483 15.8376 43.5202C15.9798 43.8921 16.2969 57.4655 15.8376 57.553C14.7373 57.5312 13.6378 57.6228 12.5563 57.8264C11.4626 58.1874 10.686 58.5046 10.686 58.5046C10.686 58.5046 9.9532 43.5639 10.2266 43.1483Z" fill="#E6E4DA"/>
<path id="Vector_21" d="M11.5498 43.9687C11.8889 43.6406 12.6436 43.6953 12.7311 43.9687C12.8186 44.2422 12.9608 47.4797 12.6436 47.7969C12.3264 48.114 11.4623 48.114 11.4623 47.7969C11.3761 46.5208 11.4054 45.2395 11.5498 43.9687Z" fill="#1D1D1B"/>
<path id="Vector_22" d="M11.4189 60.1564C11.4189 59.6861 12.7861 59.3798 13.9236 59.4345C15.0611 59.4892 15.6518 59.708 15.6518 59.9814C15.6518 60.2548 14.558 63.7548 13.8799 63.897C13.2018 64.0392 11.4189 60.8345 11.4189 60.1564Z" fill="#F2910D"/>
<path id="Vector_23" d="M17.9812 50.5749C18.2437 50.378 28.1421 55.0483 28.1421 55.278C28.2627 56.4882 28.2919 57.7057 28.2296 58.9202C28.0437 59.0077 27.453 58.6468 27.453 58.6468C27.4971 57.6881 27.4384 56.7274 27.278 55.7811C27.0484 55.6936 26.1843 55.6936 26.1843 55.8796C26.1843 56.0655 26.589 58.428 26.3593 58.3405C26.1296 58.253 25.0468 57.739 25.0468 57.564C25.0468 57.389 25.2655 56.0108 25.0468 55.9233C24.828 55.8358 24.0405 55.4202 24.0843 55.6499C24.128 55.8796 24.0843 57.0608 24.0843 57.0608C24.0843 57.0608 17.8937 54.5999 17.8937 54.3265C17.827 53.0755 17.8562 51.8213 17.9812 50.5749Z" fill="#DDC07C"/>
<path id="Vector_24" d="M30.056 52.2702C30.22 52.0077 38.62 51.8108 38.7075 52.2702C38.8604 53.5072 38.908 54.7549 38.8497 55.9999C38.7075 55.9124 37.756 54.9061 37.6138 55.0921C37.4716 55.278 37.1653 55.7264 37.2966 55.8686C37.4278 56.0108 38.981 57.0499 39.0357 57.4108C39.0903 57.7718 39.1232 58.9202 39.1232 58.9202C39.1232 58.9202 37.4388 56.8749 37.1872 56.9624C36.9357 57.0499 36.5966 57.5968 36.7716 57.7827C37.6568 58.708 38.4928 59.6792 39.2763 60.6921C39.4185 61.0202 39.6482 62.2889 39.3747 62.3327C39.0439 62.4109 38.6993 62.4109 38.3685 62.3327C38.2372 62.2452 36.181 59.1499 35.995 59.1499C35.8091 59.1499 35.3607 59.4233 35.4044 59.5546C36.0174 60.4397 36.5587 61.3723 37.0232 62.3436C36.5599 62.459 36.0755 62.459 35.6122 62.3436C35.174 61.5743 34.6728 60.8427 34.1138 60.1561C33.8841 60.1561 33.1075 60.4733 33.2388 60.703C33.37 60.9327 34.1138 62.2561 33.9278 62.2999C33.7419 62.3436 31.106 62.6608 30.7778 62.2999C30.4497 61.9389 29.87 52.4999 30.056 52.2702Z" fill="#E6E4DA"/>
<path id="Vector_25" d="M31.5109 53.452C31.7515 53.3317 32.2875 53.1786 32.375 53.5395C32.4625 53.9004 32.7469 56.8207 32.375 56.9192C32.0031 57.0176 31.7843 57.3676 31.6093 57.0067C31.4343 56.6457 31.2375 53.5942 31.5109 53.452Z" fill="#1D1D1B"/>
<path id="Vector_26" d="M41.125 54.9066C41.4422 54.8191 53.0688 48.2128 53.1563 48.4863C53.2965 50.0315 53.344 51.5838 53.2985 53.1347C50.6457 54.7676 47.8911 56.229 45.0516 57.5097C45.0516 57.28 45.2266 55.005 45.0516 54.9066C44.8766 54.8082 44.3297 54.7316 44.3297 54.9066C44.3297 55.0816 44.5594 57.8707 44.3297 57.9144C44.1 57.9582 43.236 58.7347 43.236 58.4613C43.252 57.4263 43.1899 56.3916 43.05 55.366C42.9188 55.366 41.9563 55.6832 41.9563 55.9566C41.9563 56.23 42.3719 58.8332 42.0985 59.0082C41.7444 59.2108 41.3793 59.3934 41.0047 59.555C41.0047 59.555 40.8079 55.005 41.125 54.9066Z" fill="#DDC07C"/>
<path id="Vector_27" d="M55.2124 43.4659C55.464 43.0721 56.9843 43.3783 58.078 43.608C58.5867 43.6874 59.0807 43.8422 59.5437 44.0674C59.5437 44.0674 59.7187 55.7705 59.5437 55.5955C59.3687 55.4205 58.4499 54.3159 58.1765 54.3159C57.903 54.3159 57.6296 55.0924 57.7171 55.2784C57.8046 55.4643 59.4452 56.5034 59.4999 56.7768C59.5233 57.0497 59.5233 57.3242 59.4999 57.5971C59.4999 57.5971 57.5858 56.0002 57.3999 56.0987C57.214 56.1971 56.9405 56.8643 57.1702 57.0502C58.0507 57.7088 58.8739 58.4405 59.6312 59.2377C59.6312 59.4674 59.6312 59.7846 59.314 59.6534C58.9968 59.5221 57.2577 57.969 56.8749 58.0565C56.7841 58.0903 56.701 58.142 56.6306 58.2086C56.5602 58.2752 56.504 58.3553 56.4652 58.4441C56.4264 58.5329 56.4059 58.6286 56.4049 58.7255C56.4039 58.8223 56.4224 58.9185 56.4593 59.008C56.7444 59.2776 57.0518 59.5228 57.378 59.7409C57.378 59.7409 55.6827 60.3315 55.5077 59.9705C55.3327 59.6096 54.9827 43.8377 55.2124 43.4659Z" fill="#E6E4DA"/>
<path id="Vector_28" d="M55.9893 61.2505C55.9893 60.8896 57.6736 61.0208 58.0783 60.9771C58.381 60.9806 58.6723 61.0932 58.8986 61.2942C58.8986 61.2942 58.1221 64.7177 57.6736 64.7614C57.2252 64.8052 56.033 61.6989 55.9893 61.2505Z" fill="#F2910D"/>
</g>
</svg>
