<svg width="70" height="70" viewBox="0 0 70 70" fill="none" xmlns="http://www.w3.org/2000/svg">
<g id="space-galaxy-svgrepo-com 1" clip-path="url(#clip0_27_304)">
<path id="Vector" d="M60.0527 40.8949H9.9475C6.69195 40.8949 4.05273 38.2557 4.05273 35.0001V9.9475C4.05273 6.69195 6.69195 4.05273 9.9475 4.05273H60.0527C63.3083 4.05273 65.9475 6.69195 65.9475 9.9475V35.0001C65.9475 38.2557 63.3083 40.8949 60.0527 40.8949Z" fill="#727C7C"/>
<path id="Vector_2" d="M7.3376 52.684C4.3198 47.7594 2.5791 41.9676 2.5791 35.7686C2.5791 17.8629 17.0945 3.34766 35.0002 3.34766C52.9058 3.34766 67.4212 17.8629 67.4212 35.7687C67.4212 41.9677 65.6805 47.7595 62.6628 52.6841H7.3376V52.684Z" fill="#C7D7D8"/>
<path id="Vector_3" d="M43.8422 18.7898C43.8422 21.2316 41.863 23.2108 39.4212 23.2108C36.9794 23.2108 35.0001 21.2316 35.0001 18.7898C35.0001 16.348 36.9794 14.3687 39.4212 14.3687C41.8628 14.3687 43.8422 16.348 43.8422 18.7898ZM33.5264 35.0002C31.8986 35.0002 30.579 36.3197 30.579 37.9476C30.579 39.5755 31.8985 40.895 33.5264 40.895C35.1543 40.895 36.4738 39.5755 36.4738 37.9476C36.4738 36.3197 35.1542 35.0002 33.5264 35.0002ZM15.1053 24.6844C12.2567 24.6844 9.94748 26.9937 9.94748 29.8422C9.94748 32.6908 12.2567 35.0002 15.1053 35.0002C17.954 35.0002 20.2632 32.6909 20.2632 29.8424C20.2632 26.9939 17.954 24.6844 15.1053 24.6844ZM59.3159 9.94762C57.2813 9.94762 55.6318 11.5971 55.6318 13.6318C55.6318 15.6664 57.2813 17.3159 59.3159 17.3159C61.3507 17.3159 63.0001 15.6664 63.0001 13.6318C63.0001 11.5971 61.3506 9.94762 59.3159 9.94762ZM4.78963 1.10547C2.75498 1.10547 1.10547 2.75498 1.10547 4.78963C1.10547 6.82428 2.75498 8.47379 4.78963 8.47379C6.82428 8.47379 8.47379 6.82428 8.47379 4.78963C8.47379 2.75498 6.82428 1.10547 4.78963 1.10547Z" fill="#A9B9BB"/>
<path id="Vector_4" d="M68.895 65.9473C68.895 67.5751 67.5755 68.8947 65.9476 68.8947H4.05285C2.42508 68.8947 1.10547 67.5752 1.10547 65.9473V52.6841H68.895V65.9473Z" fill="#DBCB9C"/>
<path id="Vector_5" d="M60.0528 41.9998H46.7896V34.6313H60.0528C60.8667 34.6313 61.5265 35.2912 61.5265 36.105V40.5261C61.5265 41.34 60.8667 41.9998 60.0528 41.9998Z" fill="#FF8950"/>
<path id="Vector_6" d="M57.8185 58.6528H35.7607C35.7607 53.1581 40.215 48.7036 45.7099 48.7036H47.8697C53.3642 48.7036 57.8185 53.1581 57.8185 58.6528Z" fill="#DBCB9C"/>
<path id="Vector_7" d="M6.63154 61.5263C6.63154 62.1368 6.13662 62.6315 5.52631 62.6315H1.10523C0.494785 62.6315 0 62.1366 0 61.5263C0 60.916 0.494922 60.4211 1.10523 60.4211H5.52631C6.13676 60.4211 6.63154 60.9159 6.63154 61.5263ZM34.6315 52.6842C34.6315 52.0737 34.1366 51.5789 33.5263 51.5789H7.96359C5.16182 46.7973 3.68416 41.345 3.68416 35.7688C3.68416 18.5012 17.7324 4.45307 35 4.45307C41.0934 4.45307 46.9998 6.20416 52.0804 9.51686C52.5916 9.85018 53.2764 9.70607 53.6099 9.19461C53.9432 8.68328 53.799 7.99859 53.2876 7.66514C47.8468 4.11769 41.523 2.24273 34.9999 2.24273C26.0445 2.24273 17.6255 5.73002 11.2931 12.0623C4.9607 18.3946 1.47369 26.8137 1.47369 35.7688C1.47369 41.3078 2.83664 46.7343 5.43006 51.5789H1.10523C0.494785 51.5789 0 52.0738 0 52.6842C0 53.2945 0.494922 53.7894 1.10523 53.7894H7.31992C7.32607 53.7894 7.33236 53.7895 7.33852 53.7895C7.34467 53.7895 7.35096 53.7895 7.35711 53.7894H33.5263C34.1368 53.7895 34.6315 53.2946 34.6315 52.6842ZM0 4.78953C0 2.14867 2.14867 0 4.78953 0C7.43039 0 9.57906 2.14867 9.57906 4.78953C9.57906 7.43039 7.43025 9.57893 4.78953 9.57893C2.14881 9.57893 0 7.43025 0 4.78953ZM2.21047 4.78953C2.21047 6.21154 3.36752 7.36846 4.78939 7.36846C6.21127 7.36846 7.36832 6.21141 7.36832 4.78953C7.36832 3.36766 6.21127 2.21061 4.78939 2.21061C3.36752 2.21061 2.21047 3.36752 2.21047 4.78953ZM54.5263 13.6315C54.5263 10.9907 56.675 8.84201 59.3158 8.84201C61.9567 8.84201 64.1054 10.9907 64.1054 13.6315C64.1054 16.2724 61.9567 18.4211 59.3158 18.4211C56.675 18.4211 54.5263 16.2724 54.5263 13.6315ZM56.7368 13.6315C56.7368 15.0536 57.8938 16.2105 59.3157 16.2105C60.7377 16.2105 61.8946 15.0534 61.8946 13.6315C61.8946 12.2097 60.7376 11.0526 59.3157 11.0526C57.8938 11.0526 56.7368 12.2097 56.7368 13.6315ZM62.9504 19.2929C62.4146 19.5854 62.217 20.2567 62.5095 20.7926C64.9996 25.3565 66.3158 30.5353 66.3158 35.7689C66.3158 41.3448 64.8382 46.7973 62.0364 51.5791H60.0526C59.4422 51.5791 58.9474 52.074 58.9474 52.6843C58.9474 53.2946 59.4423 53.7895 60.0526 53.7895H62.6429C62.649 53.7895 62.6553 53.7897 62.6615 53.7897C62.6676 53.7897 62.6739 53.7897 62.6801 53.7895H67.4211C68.0315 53.7895 68.5263 53.2946 68.5263 52.6843C68.5263 52.074 68.0314 51.5791 67.4211 51.5791H64.5699C67.1634 46.7344 68.5263 41.3081 68.5263 35.7689C68.5263 30.1663 67.1167 24.6215 64.4499 19.7337C64.1576 19.1979 63.4863 19.0006 62.9504 19.2929ZM39.4211 22.1052C38.8106 22.1052 38.3158 22.6002 38.3158 23.2105C38.3158 23.8209 38.8108 24.3157 39.4211 24.3157C42.4684 24.3157 44.9474 21.8367 44.9474 18.7894C44.9474 15.7421 42.4684 13.2631 39.4211 13.2631C36.3738 13.2631 33.8948 15.7421 33.8948 18.7894C33.8948 20.1517 34.3947 21.4603 35.3026 22.4744C35.7098 22.9291 36.4086 22.9678 36.8633 22.5606C37.3181 22.1535 37.3568 21.4547 36.9496 20.9999C36.4052 20.3919 36.1054 19.6068 36.1054 18.7895C36.1054 16.9612 37.5927 15.4737 39.4212 15.4737C41.2496 15.4737 42.7371 16.9611 42.7371 18.7895C42.7371 20.618 41.2494 22.1052 39.4211 22.1052ZM33.5263 39.7895C32.5105 39.7895 31.6842 38.9632 31.6842 37.9474C31.6842 37.3369 31.1892 36.8421 30.5789 36.8421C29.9685 36.8421 29.4737 37.3371 29.4737 37.9474C29.4737 40.1821 31.2916 42 33.5263 42C35.761 42 37.5789 40.1821 37.5789 37.9474C37.5789 35.7127 35.761 33.8948 33.5263 33.8948C32.9159 33.8948 32.4211 34.3897 32.4211 35C32.4211 35.6105 32.916 36.1052 33.5263 36.1052C34.5421 36.1052 35.3685 36.9316 35.3685 37.9474C35.3685 38.9632 34.5421 39.7895 33.5263 39.7895ZM52.6842 63.3685H42.3683C41.7579 63.3685 41.2631 63.8634 41.2631 64.4737C41.2631 65.084 41.758 65.5789 42.3683 65.5789H52.6842C53.2946 65.5789 53.7894 65.084 53.7894 64.4737C53.7894 63.8634 53.2946 63.3685 52.6842 63.3685ZM27.6315 63.3685H24.6842C24.0737 63.3685 23.5789 63.8634 23.5789 64.4737C23.5789 65.084 24.0738 65.5789 24.6842 65.5789H27.6315C28.242 65.5789 28.7368 65.084 28.7368 64.4737C28.7368 63.8634 28.242 63.3685 27.6315 63.3685ZM68.8948 67.7895H64.4737C63.8632 67.7895 63.3685 68.2845 63.3685 68.8948C63.3685 69.5051 63.8634 70 64.4737 70H68.8948C69.5052 70 70 69.5051 70 68.8948C70 68.2845 69.5051 67.7895 68.8948 67.7895ZM63.3685 58.5789C63.3685 59.1894 62.8735 59.6842 62.2632 59.6842H32.0526C31.4422 59.6842 30.9474 59.1892 30.9474 58.5789C30.9474 57.9686 31.4423 57.4737 32.0526 57.4737H34.7102C35.2659 51.9039 39.9736 47.5377 45.6843 47.5245V33.0842C45.6843 32.4737 46.1792 31.9789 46.7895 31.9789C47.3998 31.9789 47.8948 32.4738 47.8948 33.0842V33.4526H60.0526C61.4746 33.4526 62.6315 34.6097 62.6315 36.0315V40.4526C62.6315 41.8746 61.4745 43.0315 60.0526 43.0315H47.8948V47.5245C53.6055 47.5377 58.3131 51.9038 58.8689 57.4737H62.2632C62.8735 57.4737 63.3685 57.9686 63.3685 58.5789ZM47.8948 40.8211H60.0526C60.2556 40.8211 60.4211 40.6558 60.4211 40.4526V36.0315C60.4211 35.8285 60.2558 35.6631 60.0526 35.6631H47.8948V40.8211ZM56.6445 57.4737C56.0991 53.1167 52.3719 49.7351 47.8695 49.7351H45.7097C41.2073 49.7351 37.4801 53.1167 36.9347 57.4737H56.6445ZM15.1052 25.7895C15.7157 25.7895 16.2105 25.2946 16.2105 24.6843C16.2105 24.0738 15.7155 23.5791 15.1052 23.5791C11.6517 23.5791 8.84201 26.3886 8.84201 29.8423C8.84201 33.2959 11.6516 36.1055 15.1052 36.1055C18.5589 36.1055 21.3685 33.2959 21.3685 29.8423C21.3685 28.1455 20.701 26.5568 19.4891 25.3691C19.0533 24.9419 18.3534 24.949 17.9262 25.3847C17.4989 25.8206 17.5059 26.5204 17.9417 26.9477C18.7261 27.7163 19.158 28.7444 19.158 29.8423C19.158 32.077 17.34 33.8949 15.1054 33.8949C12.8707 33.8949 11.0528 32.077 11.0528 29.8423C11.0528 27.6076 12.8706 25.7895 15.1052 25.7895ZM14.3685 67.7895H9.94738C9.33693 67.7895 8.84215 68.2845 8.84215 68.8948C8.84215 69.5051 9.33693 70 9.94738 70H14.3685C14.9789 70 15.4737 69.5051 15.4737 68.8948C15.4737 68.2845 14.9788 67.7895 14.3685 67.7895ZM17.3158 57.4737H14.3685C13.758 57.4737 13.2632 57.9686 13.2632 58.5789C13.2632 59.1892 13.7581 59.6842 14.3685 59.6842H17.3158C17.9263 59.6842 18.4211 59.1892 18.4211 58.5789C18.4211 57.9686 17.9262 57.4737 17.3158 57.4737Z" fill="black"/>
</g>
<defs>
<clipPath id="clip0_27_304">
<rect width="70" height="70" fill="white"/>
</clipPath>
</defs>
</svg>
