<svg width="70" height="70" viewBox="0 0 70 70" fill="none" xmlns="http://www.w3.org/2000/svg">
<g id="space-svgrepo-com">
<path id="Vector" d="M20.1128 34.6498C20.1128 36.6812 20.5129 38.6927 21.2903 40.5695C22.0677 42.4463 23.2072 44.1516 24.6436 45.5881C26.08 47.0245 27.7853 48.164 29.6621 48.9414C31.5389 49.7188 33.5505 50.1189 35.5819 50.1189C37.6133 50.1189 39.6249 49.7188 41.5017 48.9414C43.3785 48.164 45.0838 47.0245 46.5202 45.5881C47.9567 44.1516 49.0961 42.4463 49.8735 40.5695C50.6509 38.6927 51.051 36.6812 51.051 34.6498C51.051 32.6183 50.6509 30.6068 49.8735 28.73C49.0961 26.8532 47.9567 25.1479 46.5202 23.7115C45.0838 22.275 43.3785 21.1356 41.5017 20.3582C39.6249 19.5808 37.6133 19.1807 35.5819 19.1807C33.5505 19.1807 31.5389 19.5808 29.6621 20.3582C27.7853 21.1356 26.08 22.275 24.6436 23.7115C23.2072 25.1479 22.0677 26.8532 21.2903 28.73C20.5129 30.6068 20.1128 32.6183 20.1128 34.6498Z" fill="#228E9D"/>
<path id="Vector_2" d="M19.3561 53.5606C19.3561 54.3862 20.0254 55.0554 20.851 55.0554C20.0254 55.0554 19.3561 55.7247 19.3561 56.5502C19.3561 55.7246 18.6869 55.0554 17.8614 55.0554C18.6869 55.0554 19.3561 54.3862 19.3561 53.5606Z" fill="#ED8F27"/>
<path id="Vector_3" d="M20.1145 57.9822H18.5973V56.55C18.5973 56.1441 18.2674 55.8142 17.8614 55.8142H16.4292V54.297H17.8614C18.2674 54.297 18.5973 53.9666 18.5973 53.5606V52.1284H20.1145V53.5606C20.1145 53.9666 20.4448 54.297 20.8508 54.297V55.8142C20.4449 55.8142 20.1145 56.1441 20.1145 56.55V57.9822ZM22.283 55.8142H20.8508V54.297H22.283V55.8142Z" fill="#ED8F27"/>
<path id="Vector_4" d="M61.0738 39.9535C61.0738 40.5062 61.5219 40.9542 62.0746 40.9542C61.5219 40.9542 61.0738 41.4022 61.0738 41.955C61.0738 41.4022 60.6258 40.9542 60.0731 40.9542C60.6258 40.9542 61.0738 40.5062 61.0738 39.9535Z" fill="#ED8F27"/>
<path id="Vector_5" d="M61.5816 42.9137H60.5658V41.9549C60.5658 41.6831 60.3449 41.4619 60.0731 41.4619H59.1143V40.4462H60.0731C60.2038 40.4461 60.329 40.3941 60.4214 40.3018C60.5137 40.2094 60.5657 40.0841 60.5658 39.9535V38.9946H61.5816V39.9535C61.5816 40.2253 61.8028 40.4462 62.0746 40.4462V41.4619C61.8028 41.4619 61.5816 41.6831 61.5816 41.9549V42.9137ZM63.0334 41.4619H62.0745V40.4461H63.0334V41.4619Z" fill="#ED8F27"/>
<path id="Vector_6" d="M54.6121 43.1104C54.6121 43.9359 55.2813 44.6051 56.1068 44.6051C55.2812 44.6051 54.6121 45.2744 54.6121 46.0999C54.6121 45.2743 53.9428 44.6051 53.1173 44.6051C53.9428 44.6052 54.6121 43.9359 54.6121 43.1104Z" fill="#ED8F27"/>
<path id="Vector_7" d="M55.3708 47.5321H53.8536V46.0998C53.8536 45.6939 53.5232 45.364 53.1173 45.364H51.6851V43.8469H53.1173C53.5232 43.8469 53.8536 43.5164 53.8536 43.1105V41.6782H55.3708V43.1104C55.3708 43.5163 55.7007 43.8468 56.1067 43.8468V45.364C55.7007 45.364 55.3708 45.6939 55.3708 46.0998V47.5321ZM57.5389 45.364H56.1068V43.8468H57.5389V45.364Z" fill="#ED8F27"/>
<path id="Vector_8" d="M49.023 53.2763C49.023 53.84 49.4801 54.297 50.0438 54.297H51.0217H50.0438C49.4801 54.297 49.0231 54.754 49.0231 55.3178C49.0231 54.754 48.5661 54.297 48.0024 54.297C48.5661 54.2971 49.023 53.8401 49.023 53.2763Z" fill="#ED8F27"/>
<path id="Vector_9" d="M49.5413 56.2961H48.5053V55.318C48.5053 55.0409 48.2797 54.8152 48.0024 54.8152H47.0244V53.7791H48.0024C48.2796 53.7791 48.5053 53.5536 48.5053 53.2763V52.2983H49.5413V53.2764C49.5413 53.5536 49.7669 53.7792 50.0442 53.7792V54.8153C49.7669 54.8153 49.5413 55.0408 49.5413 55.3181L49.5413 56.2961ZM51.0221 54.8152H50.0441V53.7791H51.0221V54.8152Z" fill="#ED8F27"/>
<path id="Vector_10" d="M10.2243 27.9293C10.2243 28.7548 10.8935 29.424 11.7191 29.424C10.8935 29.424 10.2243 30.0933 10.2243 30.9188C10.2243 30.0933 9.555 29.4241 8.72949 29.4241C9.55507 29.4241 10.2243 28.7548 10.2243 27.9293Z" fill="#ED8F27"/>
<path id="Vector_11" d="M10.9831 32.3514H9.46593V30.9192C9.46593 30.5133 9.13548 30.1828 8.72956 30.1828H7.29736V28.6656H8.72956C9.13555 28.6656 9.46593 28.3352 9.46593 27.9293V26.4971H10.9831V27.9293C10.9831 28.3352 11.313 28.6656 11.7189 28.6656V30.1828C11.313 30.1828 10.9831 30.5132 10.9831 30.9192V32.3514ZM13.1512 30.1828H11.7189V28.6656H13.1512V30.1828Z" fill="#ED8F27"/>
<path id="Vector_12" d="M40.8424 50.4843C32.0685 53.4001 22.5579 48.634 19.6422 39.86C16.7264 31.086 21.4926 21.5755 30.2666 18.6598C39.0406 15.744 48.551 20.5102 51.4668 29.2842C54.3825 38.0581 49.6163 47.5686 40.8424 50.4843ZM30.745 20.0995C22.765 22.7513 18.43 31.4014 21.082 39.3815C23.7338 47.3616 32.3839 51.6965 40.3639 49.0446C48.344 46.3927 52.6789 37.7427 50.027 29.7626C47.3751 21.7825 38.725 17.4475 30.745 20.0995Z" fill="#300604"/>
<path id="Vector_13" d="M20.6989 48.3382C16.3009 49.7997 12.82 50.2029 11.8234 48.5055C10.399 46.0795 15.2255 41.4977 19.526 38.0811L20.4695 39.2695C13.5833 44.7402 12.8378 47.2373 13.1316 47.7377C14.0726 49.3401 24.176 46.541 37.8641 38.5049C43.9861 34.9102 49.4582 31.0615 53.2725 27.668C57.6267 23.7933 58.2538 21.8779 57.977 21.4062C57.6805 20.9011 55.1082 20.3361 46.8755 23.7423L46.2952 22.3406C51.4293 20.2155 57.8517 18.1962 59.2851 20.6384C60.2481 22.2784 58.6113 24.9483 54.281 28.8016C50.3948 32.259 44.8373 36.1699 38.6319 39.8131C33.3033 42.9422 26.2662 46.4881 20.6989 48.3382Z" fill="#300604"/>
<path id="Vector_14" d="M13.7729 22.7606C13.7729 23.087 13.8372 23.4101 13.9621 23.7116C14.087 24.0132 14.2701 24.2871 14.5008 24.5179C14.7316 24.7487 15.0056 24.9317 15.3071 25.0566C15.6086 25.1815 15.9318 25.2458 16.2582 25.2458C16.5845 25.2458 16.9077 25.1815 17.2092 25.0566C17.5107 24.9317 17.7847 24.7487 18.0155 24.5179C18.2462 24.2871 18.4293 24.0132 18.5542 23.7116C18.6791 23.4101 18.7434 23.087 18.7434 22.7606C18.7434 22.4342 18.6791 22.1111 18.5542 21.8096C18.4293 21.508 18.2462 21.2341 18.0155 21.0033C17.7847 20.7725 17.5107 20.5895 17.2092 20.4646C16.9077 20.3397 16.5845 20.2754 16.2582 20.2754C15.9318 20.2754 15.6086 20.3397 15.3071 20.4646C15.0056 20.5895 14.7316 20.7725 14.5008 21.0033C14.2701 21.2341 14.087 21.508 13.9621 21.8096C13.8372 22.1111 13.7729 22.4342 13.7729 22.7606Z" fill="#B12800"/>
<path id="Vector_15" d="M16.2584 26.0041C14.4696 26.0041 13.0142 24.5492 13.0142 22.7604C13.0142 20.9716 14.4696 19.5166 16.2584 19.5166C18.0473 19.5166 19.5021 20.9716 19.5021 22.7604C19.5021 24.5492 18.0473 26.0041 16.2584 26.0041ZM16.2584 21.0338C15.3062 21.0338 14.5313 21.8083 14.5313 22.7605C14.5313 23.7126 15.3062 24.487 16.2584 24.487C17.2106 24.487 17.985 23.7126 17.985 22.7605C17.985 21.8082 17.2106 21.0338 16.2584 21.0338Z" fill="#300604"/>
<path id="Vector_16" d="M43.9535 20.9448C44.6583 19.5621 44.8321 17.9097 44.304 16.3206C43.2572 13.1707 39.8551 11.4656 36.7051 12.5124C33.9781 13.4187 32.3379 16.0903 32.6246 18.8351C36.6269 18.0849 40.6478 18.9096 43.9535 20.9448Z" fill="#FCE3C3"/>
<path id="Vector_17" d="M44.2564 22.022L43.5557 21.5908C40.3177 19.5974 36.4854 18.8839 32.7646 19.5813L31.9562 19.7328L31.8706 18.9145C31.5429 15.7816 33.4756 12.7865 36.4662 11.7927C40.0079 10.6157 43.8469 12.5396 45.024 16.0818C45.599 17.8121 45.4591 19.6619 44.6296 21.2891L44.2564 22.022ZM33.3586 17.9501C36.8834 17.4798 40.4568 18.1461 43.5889 19.8568C43.9428 18.7904 43.9448 17.6453 43.5843 16.5604C42.671 13.8121 39.6925 12.3194 36.9447 13.2326C34.883 13.9176 33.4699 15.8278 33.3586 17.9501Z" fill="#300604"/>
<path id="Vector_18" d="M27.9399 48.6494C26.9266 50.0573 26.5754 51.9119 27.1642 53.6838C28.1388 56.6166 31.3064 58.204 34.2392 57.2294C37.0863 56.2832 38.6581 53.2708 37.8562 50.4123C34.3746 50.9222 30.9086 50.2545 27.9399 48.6494Z" fill="#ED8F27"/>
<path id="Vector_19" d="M34.4787 57.949C31.1535 59.0541 27.5494 57.2478 26.4443 53.9226C25.8046 51.9973 26.1337 49.8604 27.3241 48.2059L27.7137 47.6648L28.3004 47.9819C31.2173 49.5585 34.4835 50.1395 37.7464 49.6615L38.4064 49.5645L38.5866 50.2071C39.504 53.4781 37.6994 56.8787 34.4787 57.949ZM28.2127 49.6425C27.5927 50.8056 27.4656 52.1848 27.8841 53.4442C28.7252 55.9754 31.469 57.3505 34.0002 56.5093C36.2433 55.7639 37.5834 53.5323 37.2593 51.2509C34.142 51.5753 31.0414 51.0242 28.2127 49.6425ZM44.5387 27.2545C44.5266 27.2335 43.2337 25.0178 40.9326 23.8646C38.6187 22.705 36.2227 22.8841 36.1988 22.886L36.0724 21.3874C36.1866 21.3777 38.9009 21.1643 41.6063 22.5201C44.3257 23.8829 45.7844 26.4032 45.8452 26.5097L44.5387 27.2545ZM46.4471 27.4826L47.2582 29.143L45.9069 29.8031L45.0959 28.1426L46.4471 27.4826Z" fill="#300604"/>
</g>
</svg>
