<svg width="70" height="70" viewBox="0 0 70 70" fill="none" xmlns="http://www.w3.org/2000/svg">
<g id="space-craft-svgrepo-com 1" clip-path="url(#clip0_27_320)">
<path id="Vector" d="M25.1562 24.062C25.1562 29.4985 29.5635 33.9058 35 33.9058C40.4365 33.9058 44.8438 29.4985 44.8438 24.062H25.1562Z" fill="#1D71B8"/>
<path id="Vector_2" d="M35 33.9058C29.5635 33.9058 25.1562 29.4985 25.1562 24.062H35V33.9058Z" fill="#77AAD4"/>
<path id="Vector_3" d="M53.5946 53.5928H16.4067V56.874H53.5946V53.5928Z" fill="#1D71B8"/>
<path id="Vector_4" d="M52.5 44.8428H17.5V53.5928H52.5V44.8428Z" fill="#F9B233"/>
<g id="Group">
<path id="Vector_5" d="M36.0799 59.0615H33.9194V68.9047H36.0799V59.0615Z" fill="#1D1D1B"/>
<path id="Vector_6" d="M37.187 16.4194H32.812V18.5799H37.187V16.4194Z" fill="#1D1D1B"/>
<path id="Vector_7" d="M39.374 10.9502H30.624V13.1106H39.374V10.9502Z" fill="#1D1D1B"/>
<path id="Vector_8" d="M42.6554 5.48145H27.3433V7.64187H42.6554V5.48145Z" fill="#1D1D1B"/>
<path id="Vector_9" d="M47.0308 0.0131836H22.9688V2.17361H47.0308V0.0131836Z" fill="#1D1D1B"/>
</g>
<g id="Group_2">
<path id="Vector_10" d="M45.9363 48.1382H24.062V50.2986H45.9363V48.1382Z" fill="white"/>
<path id="Vector_11" d="M50.3121 48.1382H48.1245V50.2986H50.3121V48.1382Z" fill="white"/>
<path id="Vector_12" d="M21.8756 48.1382H19.688V50.2986H21.8756V48.1382Z" fill="white"/>
</g>
<g id="Group_3">
<path id="Vector_13" d="M50.2991 62.3569V57.9549H53.5939V55.7944H16.4064V57.9549H19.7012V62.3569H3.29492V68.9059H5.45535V64.5175H21.8616V57.9549H48.1387V64.5175H64.5449V68.9059H66.7054V62.3569H50.2991Z" fill="#1D1D1B"/>
<path id="Vector_14" d="M33.9199 34.9325V40.482H30.6251V42.6424H39.3751V40.482H36.0804V34.9325C41.5987 34.3883 45.9241 29.7212 45.9241 24.0624V22.9821H36.0804V20.7812H33.9199V22.9821H24.0762V24.0624C24.076 29.7213 28.4017 34.3883 33.9199 34.9325ZM43.6974 25.1427C43.1635 29.467 39.4666 32.826 35.0001 32.826C30.5337 32.826 26.8368 29.4671 26.3029 25.1427H43.6974Z" fill="#1D1D1B"/>
<path id="Vector_15" d="M13.1117 50.299H16.4201V54.674H53.5805V50.299H56.8888V51.4062H59.0492V37.1875H56.8888V48.1385H53.5805V43.7635H16.4201V48.1385H13.1117V37.1875H10.9512V51.4062H13.1116L13.1117 50.299ZM18.5805 45.924H51.4201V52.5135H18.5805V45.924Z" fill="#1D1D1B"/>
</g>
<g id="Group_4">
<path id="Vector_16" d="M8.75 67.8262H0V69.9866H8.75V67.8262Z" fill="#F9B233"/>
<path id="Vector_17" d="M39.3745 67.8262H30.6245V69.9866H39.3745V67.8262Z" fill="#F9B233"/>
<path id="Vector_18" d="M70 67.8262H61.25V69.9866H70V67.8262Z" fill="#F9B233"/>
</g>
</g>
<defs>
<clipPath id="clip0_27_320">
<rect width="70" height="70" fill="white"/>
</clipPath>
</defs>
</svg>
