<svg width="70" height="70" viewBox="0 0 70 70" fill="none" xmlns="http://www.w3.org/2000/svg">
<g id="space-rocket-svgrepo-com">
<path id="Vector" d="M58.9969 53.4515C59.4563 52.9921 59.686 39.4625 59.2266 38.139C58.7672 36.8156 51.4063 32.3968 51.4063 32.3968C51.4063 32.3968 51.0016 29.2578 50.6844 26.8406C50.3672 24.4234 48.8797 19.8187 44.8438 12.0312C40.8079 4.24371 36.6954 1.68434 35.7766 1.72809C33.5762 2.11475 31.5525 3.18206 29.9907 4.77965C25.9822 8.92879 22.8501 13.8426 20.7813 19.2281C19.3749 23.2419 18.6611 27.4656 18.6704 31.7187C16.111 33.1843 10.7407 36.8703 10.1938 37.8328C9.64693 38.7953 10.6422 53.9218 10.686 54.1406C10.7297 54.3593 13.7485 54.4687 16.3844 52.9156C18.504 51.4587 20.4203 49.7263 22.0829 47.764C22.0829 47.764 23.7672 51.0453 24.1391 51.6796C24.511 52.314 25.6813 52.5984 25.6813 52.5984C25.6813 52.5984 26.0969 54.1406 26.2719 54.5125C26.4469 54.8843 27.5079 54.9171 27.5079 54.9171C27.5079 54.9171 28.4594 58.1984 28.5141 58.3406C29.0655 58.4785 29.6303 58.5555 30.1985 58.5703C29.6987 59.2469 29.3993 60.0504 29.3344 60.889C29.3344 62.0703 30.7016 62.8031 32.4735 63.3062C33.0302 63.4857 33.5398 63.7869 33.9655 64.188C34.3912 64.5891 34.7222 65.08 34.9344 65.625C35.0615 65.7438 35.2152 65.8306 35.3826 65.8782C35.55 65.9258 35.7263 65.9327 35.8969 65.8984C36.3454 65.8984 36.4438 64.9359 37.9422 63.9406C39.4407 62.9453 41.3657 63.4375 42.7766 61.7531C44.1876 60.0687 42.0876 57.925 42.0876 57.925C42.6096 57.9801 43.1374 57.9318 43.6407 57.7828C43.9579 57.5968 43.7501 54.6875 43.7501 54.6875C44.5799 54.6688 45.4052 54.5588 46.211 54.3593C46.5829 54.1406 46.3532 51.625 46.3532 51.625C46.7425 51.57 47.1155 51.4319 47.4469 51.2203C47.9163 50.4974 48.2843 49.7135 48.5407 48.8906C49.2847 49.9429 50.2665 50.8047 51.4063 51.4062C53.4844 52.675 58.5376 53.9109 58.9969 53.4515ZM18.9219 56.9843C18.7579 56.9843 18.4844 54.7968 18.0688 54.7968C17.6532 54.7968 16.9751 56.6125 16.9094 56.8859C16.1176 56.8807 15.3269 56.9465 14.5469 57.0828C14.2735 57.2578 14.5469 57.5312 14.6891 57.739C14.8313 57.9468 16.3954 58.0781 16.461 58.1765C16.1845 58.8907 15.8668 59.5882 15.5094 60.2656C15.4438 60.4734 15.8485 60.6047 16.2313 60.6703C16.6141 60.7359 17.5001 59.3468 17.5001 59.3468C17.5001 59.3468 17.8719 60.4406 17.9813 60.7468C18.0907 61.0531 18.6594 60.9109 18.9001 60.7468C19.1407 60.5828 18.9001 58.6906 18.9001 58.45C18.9001 58.2093 20.3766 58.2859 20.3766 58.2859C20.3766 58.2859 20.6829 57.8047 20.5407 57.4656C20.3985 57.1265 19.0969 57.0171 18.9219 56.9843ZM10.1063 60.4406C10.2859 59.9916 10.4357 59.5312 10.5547 59.0625C10.5579 58.8906 10.5109 58.7215 10.4197 58.5759C10.3284 58.4302 10.1967 58.3143 10.0407 58.2421C9.76724 58.1765 9.31881 59.2375 9.31881 59.2375C9.31881 59.2375 8.84849 58.7562 8.57506 58.8656C8.30162 58.975 8.57506 59.9593 8.57506 59.9593C8.24501 59.8378 7.89826 59.7677 7.54693 59.7515C7.33912 59.8172 7.37193 60.0578 7.37193 60.2656C7.37193 60.4734 8.26881 60.9437 8.26881 60.9437C8.26881 60.9437 7.09849 61.425 6.90162 61.5343C6.70474 61.6437 7.44849 62.3546 7.57974 62.4203C7.71099 62.4859 8.67349 61.6328 8.67349 61.6328C8.67349 61.6328 8.81568 62.5515 8.81568 62.7921C8.81568 63.0328 9.15474 62.9343 9.42818 62.9672C9.70162 63 9.84381 61.7312 9.84381 61.7312C10.3159 61.9401 10.8118 62.0907 11.3204 62.1796C11.7251 62.1796 11.6266 61.8406 11.6266 61.3593C11.6266 60.8781 10.1063 60.4406 10.1063 60.4406ZM53.7907 57.7718C53.7907 57.7718 53.9219 56.5031 53.9657 56.2953C54.0094 56.0875 53.7907 56.0656 53.4516 56.0656C53.1126 56.0656 51.8438 57.8046 51.7344 57.9687C51.6251 58.1328 50.0172 57.8375 49.8969 57.9687C49.8228 58.1028 49.7777 58.2509 49.7645 58.4035C49.7514 58.5562 49.7704 58.7099 49.8204 58.8547C49.9626 59.0953 50.7501 59.2265 50.8485 59.3687C50.9469 59.5109 49.9626 61.3484 49.9626 61.6546C49.9626 61.9609 51.3297 61.6547 51.6032 61.5234C51.8494 61.2559 52.0359 60.9389 52.1501 60.5937C52.1501 60.5937 52.9376 61.6875 53.3094 61.6875C53.6813 61.6875 53.9657 61.4906 53.9657 61.2172C53.9657 60.9437 53.3094 60.1234 53.4516 59.9812C53.6026 59.7766 53.7378 59.5609 53.8563 59.3359C54.268 59.1738 54.6924 59.0458 55.1251 58.9531C55.5297 58.8218 55.3657 58.3734 55.2235 58.1328C55.0813 57.8922 53.7907 57.7718 53.7907 57.7718ZM61.6219 55.5843C58.7126 56.0328 56.7985 58.1109 57.3782 60.8125C57.5094 61.6144 57.9147 62.3461 58.525 62.8826C59.1353 63.4191 59.9129 63.7273 60.7251 63.7547C61.1735 63.7547 61.4141 63.339 61.3047 62.7921C61.1954 62.2453 59.9376 61.6984 60.4516 59.6203C60.623 58.9955 60.9868 58.4405 61.4913 58.0342C61.9959 57.6278 62.6156 57.3906 63.2626 57.3562C63.6016 57.225 63.6344 56.9843 63.1532 56.339C62.6719 55.6937 62.4641 55.4859 61.6219 55.6171V55.5843ZM9.94224 24.0625C9.84493 24.7115 9.8784 25.3734 10.0407 26.0093C10.3141 26.3812 11.6813 25.1562 11.6813 25.1562C11.6813 25.1562 13.1797 25.9 13.5297 25.7031C13.8797 25.5062 13.2235 24.3359 13.2235 24.3359C13.2235 24.3359 14.1751 23.7125 14.2407 23.2422C14.3063 22.7718 12.7422 22.8047 12.5016 22.8047C12.261 22.8047 11.8126 20.8906 11.4079 20.989C11.0032 21.0875 10.9157 22.7718 10.6532 22.7718C10.2047 22.7718 8.91412 22.9687 8.88131 23.3843C8.84849 23.8 9.94224 24.0625 9.94224 24.0625ZM12.0313 12.414C12.1407 12.4797 11.6922 14.3937 12.2719 14.4265C12.8516 14.4593 13.7376 13.0593 13.9126 12.9609C14.0876 12.8625 16.1001 13.814 16.5157 13.475C16.9313 13.1359 15.5532 11.7687 15.5532 11.7687C15.5532 11.7687 16.8219 10.675 16.5157 10.2922C16.2094 9.90934 14.8751 10.2922 14.6672 10.4343C14.4594 10.5765 13.1907 8.68434 12.8188 8.92496C12.4469 9.16559 12.5454 10.5656 12.5126 10.8062C12.4797 11.0468 10.8282 11.1125 10.7297 11.5281C10.6313 11.9437 11.9219 12.3484 12.0313 12.414ZM51.6469 11.9C51.7126 12.0422 50.8594 13.6062 51.1329 13.8468C51.4063 14.0875 53.1126 12.9281 53.2547 12.8625C53.3969 12.7968 54.6876 14.5687 55.1907 14.2187C55.6938 13.8687 54.786 12.4031 54.786 12.4031C54.786 12.4031 56.3172 12.0312 56.3172 11.6156C56.3172 11.2 54.611 10.7953 54.611 10.7953C54.611 10.7953 54.5454 9.0234 54.1954 8.97965C53.8454 8.9359 52.8719 10.3906 52.7626 10.4562C52.6532 10.5218 50.6735 9.90934 50.5751 10.4562C50.4766 11.0031 51.5704 11.7687 51.636 11.9H51.6469ZM62.6391 8.48746C62.5735 8.31246 63.0547 6.02653 62.6391 5.81871C62.2235 5.6109 60.9001 7.34996 60.7579 7.49215C60.6157 7.63434 58.2313 6.71559 58.1001 6.97809C57.8266 7.49215 59.8391 8.27965 59.8719 8.65153C59.9047 9.0234 58.7782 10.4015 59.1938 10.839C59.6094 11.2765 60.9985 10.2265 61.2391 10.325C61.4797 10.4234 62.4751 11.6593 62.7813 11.4953C63.0876 11.3312 62.6391 9.85465 62.6719 9.74528C62.7047 9.6359 63.8751 9.5484 63.8751 9.23121C63.8751 8.91403 62.7157 8.65153 62.6391 8.48746ZM60.0032 25.0578C59.3141 24.9265 58.6797 26.9281 58.2641 27.0156C57.8485 27.1031 56.3938 25.9765 56.2626 26.4687C56.1313 26.9609 57.4438 28.2078 57.5422 28.3828C57.6407 28.5578 56.0766 29.7062 56.3501 30.1656C56.6235 30.625 57.9907 29.8047 58.2641 29.8484C58.5376 29.8922 58.9969 32.0359 59.5001 31.7625C60.0032 31.489 59.686 29.6625 59.9594 29.4765C60.2329 29.2906 61.3266 29.4765 61.5016 28.8422C61.6766 28.2078 60.1344 27.9343 60.0032 27.7484C59.8719 27.5625 60.6813 25.1562 60.0032 25.0578Z" fill="#1D1D1B"/>
<path id="Vector_2" d="M12.2828 38.5548C12.4796 38.0954 18.5281 34.0376 18.6156 34.3111C18.7657 36.7504 19.1021 39.1746 19.6218 41.5626C20.3984 44.2095 21.0765 45.9376 20.9453 45.9376C20.814 45.9376 17.9375 42.6564 17.664 42.7986C17.3906 42.9407 16.8875 43.5751 17.0296 43.8048C17.1718 44.0345 19.939 46.8126 19.764 47.0861C19.589 47.3595 18.5937 48.3439 18.5937 48.3439C17.8607 47.1235 17.0458 45.9541 16.1546 44.8439C15.9359 44.8439 15.1593 45.6642 15.3343 45.9376C15.5093 46.2111 17.7953 48.7595 17.5765 49.1204C17.3742 49.4158 17.1434 49.6905 16.8875 49.9407C16.2524 49.0808 15.5502 48.2726 14.7875 47.5236C14.6125 47.5236 13.9234 48.1251 14.1093 48.4423C14.2953 48.7595 16.0671 50.3126 15.6625 50.6298C15.2578 50.947 12.6984 52.3142 12.6984 51.997C12.6984 51.6798 12.0312 39.1892 12.2828 38.5548Z" fill="#CBE7F5"/>
<path id="Vector_3" d="M51.7018 34.8579C51.9058 37.6231 51.692 40.4033 51.0674 43.1048C50.0611 46.2985 49.7002 47.0313 49.7002 47.0313C50.6786 48.14 51.7794 49.1343 52.9814 49.9954C54.2608 50.6331 55.656 51.0052 57.083 51.0892C57.083 51.0892 57.2252 39.5063 57.083 39.3313C56.9408 39.1563 52.1174 35.0876 51.7018 34.8579Z" fill="#CBE7F5"/>
<path id="Vector_4" d="M54.261 42.4702C54.5344 42.5577 55.5844 43.203 55.6719 43.564C55.7594 43.9249 55.6719 44.6577 55.486 44.6577C54.8497 44.3556 54.2662 43.9531 53.7579 43.4655C53.6704 43.1046 54.261 42.4702 54.261 42.4702Z" fill="#1D1D1B"/>
<path id="Vector_5" d="M53.1671 44.6142C53.1671 44.2751 55.9452 46.4298 55.989 46.8017C56.0327 47.1736 55.989 47.9829 55.8577 47.8954C55.7265 47.8079 52.7515 45.9376 52.7515 45.522C52.7515 45.1064 53.1671 44.6579 53.1671 44.6142Z" fill="#1D1D1B"/>
<path id="Vector_6" d="M52.3029 46.7036C53.5777 47.4403 54.7476 48.3453 55.781 49.3942C55.781 49.7114 55.9669 50.2145 55.5623 50.2145C54.2103 49.5129 52.9533 48.6418 51.8216 47.6224C51.7013 47.3489 52.1607 46.7036 52.3029 46.7036Z" fill="#1D1D1B"/>
<path id="Vector_7" d="M26.1407 50.5862C26.1407 50.5862 22.3563 43.8815 21.4923 39.1456C20.6282 34.4096 20.311 28.4378 21.8751 23.3299C22.746 20.0724 24.0481 16.9458 25.7469 14.0331C28.6779 12.2973 32.0583 11.4712 35.4594 11.6596C40.9282 11.9331 42.3391 13.1253 42.7001 13.344C45.5526 18.0215 47.5732 23.1579 48.6719 28.5253C49.407 32.9576 49.455 37.4767 48.8141 41.9237C48.8141 41.9237 47.4032 39.9659 47.1298 40.0534C46.8563 40.1409 46.3969 40.469 46.6266 40.7424C47.3522 41.5645 48.0071 42.4463 48.5844 43.3784C48.4622 43.8496 48.2937 44.3075 48.0813 44.7456C47.4103 43.7473 46.6798 42.7904 45.8938 41.8799C45.7079 41.8799 45.0298 42.0112 45.161 42.3831C45.2923 42.7549 47.8079 45.8393 47.8079 46.2987C47.5353 47.3344 47.0388 48.2977 46.3532 49.1206C45.9376 49.3503 42.9298 49.8971 42.7438 50.3128C42.5579 50.7284 42.4266 51.6799 42.7438 51.7674C43.061 51.8549 45.4344 51.7674 45.4344 52.0846C45.4344 52.4018 45.5219 53.3643 45.4344 53.4081C42.2266 53.9563 38.9761 54.2162 35.7219 54.1846C30.1219 54.1846 27.661 54.1846 27.5188 53.9549C27.3766 53.7253 27.0704 52.5878 27.2454 52.6315C27.4204 52.6753 29.7063 52.9924 30.8985 53.0471C32.0907 53.1018 32.4407 53.0471 32.5391 52.9049C32.4943 52.3964 32.3953 51.8941 32.2438 51.4065C32.2438 51.4065 26.961 51.0346 26.1407 50.5862Z" fill="#E7413E"/>
<g id="Group">
<path id="Vector_8" d="M42.8203 44.2422C42.8203 43.9797 43.4984 43.7938 43.6844 43.8813C44.5788 44.8209 45.3372 45.8812 45.9375 47.0313C45.9375 47.4031 45.6203 47.9063 45.3031 47.7203C44.3521 46.6542 43.5196 45.488 42.8203 44.2422Z" fill="#1D1D1B"/>
<path id="Vector_9" d="M41.0924 45.0625C41.3112 45.1609 44.144 47.9828 43.9581 48.2562C43.7721 48.5297 43.1815 48.9891 43.0502 48.8469C42.919 48.7047 40.1737 46.1562 40.2721 45.7953C40.3706 45.4344 41.0924 45.0625 41.0924 45.0625Z" fill="#1D1D1B"/>
<path id="Vector_10" d="M38.4892 46.5721C39.7688 47.4729 40.9461 48.5108 42.0001 49.6674C42.0001 49.8971 41.5407 50.4003 41.2673 50.3128C39.9927 49.472 38.8152 48.4926 37.7563 47.3924C37.811 47.119 38.2813 46.5284 38.4892 46.5721Z" fill="#1D1D1B"/>
<path id="Vector_11" d="M36.4439 48.3986C36.6736 48.1579 39.9002 50.5861 39.8127 50.9033C39.7252 51.2205 39.8127 51.6251 39.3096 51.5376C38.0202 50.9938 36.8214 50.2561 35.7549 49.3501C35.7549 49.1204 36.3893 48.4423 36.4439 48.3986Z" fill="#1D1D1B"/>
<path id="Vector_12" d="M24.3579 20.7813C24.5145 19.7167 24.7448 18.6642 25.047 17.6313C25.2289 16.5814 25.6397 15.5844 26.2501 14.711C26.436 14.6235 27.3438 14.3938 27.3438 14.6235C26.7745 15.8157 26.3026 17.052 25.9329 18.3204C25.6595 19.8188 25.8017 20.2782 25.5282 20.5079C25.159 20.6725 24.7618 20.7653 24.3579 20.7813Z" fill="#1D1D1B"/>
</g>
<path id="Vector_13" d="M27.1904 11.255C27.3654 10.8394 32.4295 3.87219 35.2076 3.73001C37.9857 3.58782 41.4092 11.1566 41.0373 11.2113C38.7692 10.2456 36.2739 9.94224 33.8404 10.3363C28.9623 10.9378 27.1904 11.255 27.1904 11.255Z" fill="#CBE7F5"/>
<path id="Vector_14" d="M30.4718 9.29733C30.1656 9.16608 33.2062 5.74264 33.7531 5.68795C34.2999 5.63327 34.2124 6.10358 34.3437 6.50827C34.4749 6.91295 33.0202 7.8317 32.4296 8.56452C31.839 9.29733 31.8827 9.47233 31.5656 9.57077C31.1846 9.5667 30.8099 9.47303 30.4718 9.29733Z" fill="#1D1D1B"/>
<path id="Vector_15" d="M26.8188 22.1485C30.4173 18.6813 37.4829 17.4454 41.7704 21.0548C46.0579 24.6642 47.3813 29.2142 46.0579 34.5845C44.7345 39.9548 39.222 42.9298 33.0204 41.6938C30.7439 41.3467 28.6179 40.3434 26.9026 38.8068C25.1874 37.2703 23.9572 35.2671 23.3626 33.0423C22.9605 31.0825 23.067 29.0523 23.672 27.1453C24.2771 25.2383 25.3604 23.5181 26.8188 22.1485Z" fill="#1D1D1B"/>
<path id="Vector_16" d="M27.6282 22.9688C30.8548 19.8516 37.2204 18.736 41.0704 22.0173C42.8701 23.42 44.2024 25.3352 44.8916 27.5103C45.5809 29.6855 45.5948 32.0185 44.9314 34.2016C43.7501 39.047 38.7736 41.7157 33.2064 40.611C31.1566 40.2952 29.243 39.3897 27.699 38.0049C26.155 36.6202 25.0473 34.8161 24.5111 32.8126C24.1386 31.0423 24.2299 29.2057 24.776 27.4811C25.3222 25.7564 26.3047 24.2021 27.6282 22.9688Z" fill="#FAB900"/>
<path id="Vector_17" d="M30.242 25.6926C32.2983 23.702 36.3451 23.002 38.8061 25.091C39.9436 25.9825 40.7859 27.1963 41.223 28.5738C41.66 29.9514 41.6716 31.4287 41.2561 32.8129C40.5014 35.8973 37.3405 37.5926 33.7858 36.8926C32.482 36.6886 31.2653 36.1109 30.283 35.2296C29.3007 34.3483 28.5951 33.2011 28.2514 31.927C28.0229 30.8043 28.0859 29.6418 28.4344 28.5504C28.7829 27.459 29.4052 26.4751 30.242 25.6926Z" fill="#1D1D1B"/>
<path id="Vector_18" d="M31.6092 27.1142C32.4065 26.3599 33.4405 25.9051 34.5353 25.8274C35.6301 25.7496 36.718 26.0536 37.6139 26.6877C38.4223 27.3167 39.0204 28.1765 39.329 29.1531C39.6376 30.1298 39.6422 31.1771 39.3421 32.1564C38.8061 34.3439 36.5858 35.5033 34.103 35.0111C33.1876 34.8688 32.333 34.4647 31.6421 33.8475C30.9512 33.2304 30.4536 32.4266 30.2092 31.533C30.0411 30.7382 30.0817 29.9135 30.3271 29.1392C30.5724 28.3648 31.0142 27.6671 31.6092 27.1142Z" fill="#85BFE9"/>
<path id="Vector_19" d="M34.5517 20.5953C34.8026 20.5164 35.0707 20.5091 35.3255 20.5745C35.5804 20.6398 35.8119 20.7751 35.9939 20.9651C36.1759 21.1551 36.3012 21.3922 36.3556 21.6496C36.41 21.907 36.3913 22.1745 36.3017 22.4219C35.9407 23.4609 34.2017 23.4172 33.797 22.9141C33.6419 22.7266 33.5368 22.503 33.4913 22.264C33.4458 22.0251 33.4614 21.7785 33.5367 21.5472C33.612 21.3159 33.7445 21.1073 33.9219 20.9409C34.0994 20.7745 34.316 20.6556 34.5517 20.5953Z" fill="#1D1D1B"/>
<path id="Vector_20" d="M34.7595 21.3392C34.8668 21.3036 34.9819 21.299 35.0917 21.3258C35.2015 21.3526 35.3015 21.4099 35.3802 21.4909C35.459 21.572 35.5133 21.6736 35.537 21.7841C35.5607 21.8946 35.5528 22.0095 35.5142 22.1157C35.3611 22.5642 34.6173 22.5423 34.4204 22.3345C34.3549 22.2527 34.3111 22.1556 34.293 22.0524C34.275 21.9492 34.2832 21.843 34.317 21.7438C34.3508 21.6446 34.4091 21.5555 34.4864 21.4848C34.5637 21.4141 34.6577 21.364 34.7595 21.3392Z" fill="#F2910D"/>
<path id="Vector_21" d="M40.2716 22.8707C40.5226 22.7917 40.7906 22.7845 41.0455 22.8499C41.3003 22.9152 41.5318 23.0505 41.7139 23.2405C41.8959 23.4305 42.0211 23.6676 42.0755 23.925C42.1299 24.1824 42.1112 24.4499 42.0216 24.6973C41.6606 25.791 39.9216 25.7035 39.5169 25.2004C39.3593 25.0129 39.252 24.7885 39.205 24.5481C39.158 24.3077 39.173 24.0594 39.2485 23.8264C39.324 23.5934 39.4575 23.3834 39.6365 23.2162C39.8154 23.0491 40.034 22.9301 40.2716 22.8707Z" fill="#1D1D1B"/>
<path id="Vector_22" d="M40.469 23.6141C40.5762 23.5785 40.6914 23.5739 40.8011 23.6007C40.9109 23.6275 41.0109 23.6848 41.0897 23.7658C41.1685 23.8469 41.2228 23.9485 41.2465 24.059C41.2702 24.1695 41.2623 24.2844 41.2236 24.3906C41.0705 24.8391 40.3268 24.8281 40.1299 24.6094C40.0644 24.5276 40.0206 24.4305 40.0025 24.3273C39.9844 24.2241 39.9927 24.1179 40.0265 24.0187C40.0603 23.9195 40.1185 23.8304 40.1959 23.7597C40.2732 23.689 40.3671 23.6389 40.469 23.6141Z" fill="#F2910D"/>
<path id="Vector_23" d="M43.181 28.6129C43.4327 28.5312 43.7022 28.5219 43.9589 28.586C44.2155 28.6501 44.449 28.7851 44.6326 28.9756C44.8163 29.1661 44.9426 29.4043 44.9973 29.6632C45.052 29.922 45.0328 30.191 44.942 30.4395C44.5701 31.5333 42.842 31.4458 42.4264 30.9426C42.2717 30.7541 42.1669 30.5298 42.1215 30.2902C42.0762 30.0506 42.0918 29.8035 42.167 29.5715C42.2421 29.3396 42.3744 29.1302 42.5516 28.9627C42.7288 28.7952 42.9452 28.6749 43.181 28.6129Z" fill="#1D1D1B"/>
<path id="Vector_24" d="M43.4001 29.3567C43.5074 29.3212 43.6225 29.3165 43.7323 29.3434C43.8421 29.3702 43.9421 29.4274 44.0209 29.5085C44.0996 29.5895 44.154 29.6911 44.1777 29.8016C44.2013 29.9121 44.1934 30.0271 44.1548 30.1333C44.1032 30.2259 44.032 30.3063 43.9463 30.3687C43.8606 30.4312 43.7624 30.4743 43.6584 30.4951C43.5544 30.5159 43.4472 30.5139 43.344 30.4892C43.2409 30.4645 43.1443 30.4177 43.0611 30.3521C42.9956 30.2702 42.9517 30.1732 42.9337 30.07C42.9156 29.9668 42.9238 29.8606 42.9576 29.7614C42.9914 29.6622 43.0497 29.5731 43.127 29.5024C43.2044 29.4317 43.2983 29.3816 43.4001 29.3567Z" fill="#F2910D"/>
<path id="Vector_25" d="M41.683 34.672C41.934 34.593 42.202 34.5858 42.4569 34.6511C42.7117 34.7165 42.9432 34.8518 43.1253 35.0418C43.3073 35.2317 43.4326 35.4688 43.4869 35.7263C43.5413 35.9837 43.5226 36.2512 43.433 36.4985C43.0721 37.5923 41.333 37.5048 40.9283 37.0017C40.7736 36.8132 40.6688 36.5888 40.6235 36.3492C40.5782 36.1097 40.5938 35.8625 40.6689 35.6306C40.7441 35.3986 40.8763 35.1892 41.0535 35.0217C41.2307 34.8542 41.4472 34.734 41.683 34.672Z" fill="#1D1D1B"/>
<path id="Vector_26" d="M41.9015 35.4158C42.0081 35.383 42.1218 35.3804 42.2298 35.4085C42.3377 35.4365 42.4358 35.4941 42.5129 35.5746C42.5901 35.6552 42.6433 35.7556 42.6667 35.8647C42.6901 35.9738 42.6827 36.0872 42.6453 36.1923C42.4921 36.6408 41.7484 36.6298 41.5515 36.4111C41.486 36.3285 41.4425 36.2307 41.4251 36.1268C41.4077 36.0229 41.4169 35.9162 41.4518 35.8168C41.4868 35.7174 41.5463 35.6285 41.625 35.5584C41.7036 35.4882 41.7988 35.4392 41.9015 35.4158Z" fill="#F2910D"/>
<path id="Vector_27" d="M36.5311 37.6578C36.7821 37.5789 37.0502 37.5716 37.305 37.637C37.5599 37.7023 37.7914 37.8376 37.9734 38.0276C38.1554 38.2176 38.2807 38.4547 38.3351 38.7121C38.3895 38.9695 38.3708 39.237 38.2811 39.4844C37.9202 40.5781 36.1921 40.4906 35.7765 39.9875C35.6218 39.799 35.517 39.5747 35.4716 39.3351C35.4263 39.0955 35.4419 38.8484 35.5171 38.6164C35.5922 38.3844 35.7245 38.1751 35.9017 38.0076C36.0789 37.8401 36.2953 37.7198 36.5311 37.6578Z" fill="#1D1D1B"/>
<path id="Vector_28" d="M36.7501 38.4019C36.8571 38.3644 36.9727 38.3585 37.0829 38.3849C37.1932 38.4113 37.2936 38.4689 37.372 38.5508C37.4504 38.6326 37.5036 38.7354 37.5252 38.8467C37.5468 38.958 37.536 39.0731 37.4939 39.1784C37.3408 39.6269 36.597 39.6159 36.4001 39.3972C36.3347 39.3146 36.2912 39.2168 36.2737 39.1129C36.2563 39.009 36.2655 38.9023 36.3004 38.8029C36.3354 38.7035 36.395 38.6146 36.4736 38.5445C36.5523 38.4743 36.6474 38.4253 36.7501 38.4019Z" fill="#F2910D"/>
<path id="Vector_29" d="M30.8764 36.7282C31.128 36.6465 31.3975 36.6371 31.6542 36.7013C31.9109 36.7654 32.1443 36.9004 32.328 37.0908C32.5116 37.2813 32.638 37.5196 32.6927 37.7784C32.7474 38.0373 32.7282 38.3063 32.6373 38.5547C32.2654 39.6485 30.5373 39.5501 30.1217 39.0469C29.9695 38.8585 29.8668 38.635 29.8229 38.3968C29.779 38.1586 29.7953 37.9132 29.8703 37.6829C29.9452 37.4526 30.0765 37.2446 30.2522 37.0779C30.4279 36.9112 30.6424 36.791 30.8764 36.7282Z" fill="#1D1D1B"/>
<path id="Vector_30" d="M31.0954 37.472C31.2027 37.4364 31.3178 37.4318 31.4276 37.4586C31.5374 37.4854 31.6374 37.5427 31.7162 37.6237C31.7949 37.7048 31.8493 37.8064 31.873 37.9169C31.8967 38.0274 31.8887 38.1423 31.8501 38.2485C31.7985 38.3412 31.7274 38.4215 31.6417 38.484C31.556 38.5464 31.4577 38.5896 31.3537 38.6104C31.2497 38.6312 31.1425 38.6291 31.0393 38.6044C30.9362 38.5797 30.8397 38.5329 30.7564 38.4673C30.6909 38.3855 30.6471 38.2885 30.629 38.1852C30.6109 38.082 30.6191 37.9759 30.6529 37.8766C30.6867 37.7774 30.745 37.6884 30.8223 37.6176C30.8997 37.5469 30.9936 37.4968 31.0954 37.472Z" fill="#F2910D"/>
<path id="Vector_31" d="M26.9389 33.108C27.189 33.0258 27.4573 33.0159 27.7129 33.0793C27.9685 33.1427 28.201 33.2769 28.3838 33.4665C28.5665 33.6561 28.6921 33.8934 28.746 34.1512C28.8 34.4089 28.7802 34.6766 28.6889 34.9236C28.3279 36.0174 26.5998 35.9299 26.1842 35.4268C26.0292 35.2393 25.924 35.0157 25.8785 34.7767C25.833 34.5378 25.8486 34.2912 25.9239 34.0599C25.9992 33.8285 26.1317 33.62 26.3091 33.4536C26.4866 33.2872 26.7032 33.1683 26.9389 33.108Z" fill="#1D1D1B"/>
<path id="Vector_32" d="M27.1579 33.841C27.2657 33.8069 27.3809 33.8039 27.4904 33.8322C27.5998 33.8606 27.6991 33.9193 27.7767 34.0015C27.8544 34.0837 27.9073 34.1861 27.9294 34.2971C27.9515 34.408 27.9418 34.5228 27.9016 34.6285C27.7485 35.077 27.0047 35.0551 26.8079 34.8363C26.7424 34.7538 26.6989 34.656 26.6814 34.5521C26.664 34.4481 26.6732 34.3415 26.7082 34.2421C26.7431 34.1427 26.8027 34.0538 26.8813 33.9836C26.96 33.9135 27.0551 33.8644 27.1579 33.841Z" fill="#F2910D"/>
<path id="Vector_33" d="M25.889 28.1095C26.14 28.0305 26.4081 28.0233 26.6629 28.0886C26.9178 28.154 27.1493 28.2893 27.3313 28.4793C27.5133 28.6692 27.6386 28.9063 27.693 29.1638C27.7474 29.4212 27.7287 29.6887 27.639 29.936C27.2781 31.0298 25.55 30.9423 25.1344 30.4392C24.9797 30.2507 24.8749 30.0263 24.8295 29.7867C24.7842 29.5472 24.7999 29.3 24.875 29.0681C24.9501 28.8361 25.0824 28.6267 25.2596 28.4592C25.4368 28.2917 25.6532 28.1715 25.889 28.1095Z" fill="#1D1D1B"/>
<path id="Vector_34" d="M26.1076 28.8535C26.2146 28.816 26.3301 28.8101 26.4404 28.8365C26.5506 28.8629 26.651 28.9205 26.7294 29.0024C26.8078 29.0843 26.861 29.187 26.8826 29.2983C26.9043 29.4096 26.8934 29.5248 26.8513 29.6301C26.6982 30.0785 25.9544 30.0676 25.7576 29.8488C25.6921 29.7663 25.6486 29.6685 25.6312 29.5646C25.6137 29.4606 25.6229 29.354 25.6579 29.2546C25.6928 29.1552 25.7524 29.0663 25.831 28.9961C25.9097 28.926 26.0048 28.8769 26.1076 28.8535Z" fill="#F2910D"/>
<path id="Vector_35" d="M28.6454 22.8487C28.8964 22.7698 29.1644 22.7626 29.4193 22.8279C29.6741 22.8932 29.9056 23.0285 30.0877 23.2185C30.2697 23.4085 30.395 23.6456 30.4493 23.903C30.5037 24.1604 30.485 24.4279 30.3954 24.6753C30.0345 25.7691 28.3063 25.6706 27.8907 25.1784C27.736 24.9899 27.6312 24.7656 27.5859 24.526C27.5406 24.2864 27.5562 24.0393 27.6313 23.8073C27.7065 23.5754 27.8387 23.366 28.0159 23.1985C28.1931 23.031 28.4096 22.9107 28.6454 22.8487Z" fill="#1D1D1B"/>
<path id="Vector_36" d="M28.864 23.5926C28.9713 23.557 29.0864 23.5524 29.1962 23.5792C29.306 23.6061 29.406 23.6633 29.4847 23.7443C29.5635 23.8254 29.6178 23.927 29.6415 24.0375C29.6652 24.148 29.6573 24.2629 29.6187 24.3691C29.4546 24.8176 28.7218 24.7957 28.5249 24.5879C28.4594 24.5061 28.4156 24.4091 28.3975 24.3058C28.3795 24.2026 28.3877 24.0965 28.4215 23.9973C28.4553 23.898 28.5135 23.809 28.5909 23.7382C28.6682 23.6675 28.7622 23.6174 28.864 23.5926Z" fill="#F2910D"/>
<path id="Vector_37" d="M28.8423 55.2017C28.8423 54.9283 32.2548 55.3439 36.2907 55.2017C40.3267 55.0595 42.547 54.797 42.6126 54.9283C42.6782 55.0595 42.547 57.0501 42.547 57.0501C42.547 57.0501 41.2126 56.4705 35.9845 56.8751C30.7563 57.2798 29.586 57.5314 29.422 57.3892C29.1523 56.6825 28.9579 55.9493 28.8423 55.2017Z" fill="#F2910D"/>
<path id="Vector_38" d="M31.1938 58.4174C31.325 58.3518 33.2172 58.2861 33.2172 58.2861C33.1169 58.6101 33.1187 58.957 33.2224 59.2799C33.3261 59.6028 33.5267 59.8859 33.7969 60.0908C34.7485 60.9111 35.536 60.8127 35.711 61.1846C35.886 61.5564 35.8094 61.9393 36.1157 62.0049C36.238 62.0441 36.3695 62.0453 36.4925 62.0082C36.6156 61.971 36.7244 61.8974 36.8047 61.7971C36.9688 61.6002 37.1438 60.7033 37.6907 60.7033C38.2375 60.7033 39.5063 61.0533 39.9438 60.2658C40.2147 59.6549 40.2984 58.9774 40.1844 58.3189C40.5043 58.2835 40.827 58.2835 41.1469 58.3189C41.4532 58.3846 42.6453 60.058 41.7922 61.0533C40.9391 62.0486 38.2813 62.2783 36.9032 63.3393C36.4117 63.6937 35.954 64.0928 35.536 64.5314C35.2949 64.0079 34.9448 63.542 34.509 63.1647C34.0733 62.7875 33.562 62.5076 33.0094 62.3439C30.9532 61.6002 30.5485 61.3924 30.5157 60.8127C30.4828 60.233 30.625 58.7236 31.1938 58.4174Z" fill="#FFE19B"/>
<path id="Vector_39" d="M34.3108 58.2098C35.7592 57.9989 37.2224 57.9074 38.6858 57.9364C38.992 58.0786 39.3311 58.9317 38.9592 59.1723C38.5873 59.4129 37.2858 59.6207 36.903 59.9926C36.5202 60.3645 36.5639 60.5395 36.3889 60.4739C35.8472 60.252 35.342 59.9496 34.8905 59.577C34.3764 59.0629 34.1686 58.3192 34.3108 58.2098Z" fill="#FAB900"/>
<path id="Vector_40" d="M61.1734 56.4378C61.4359 56.3393 61.7203 56.6456 61.414 56.919C60.3823 57.4742 59.6003 58.4008 59.2265 59.5112C58.8874 61.0862 59.839 62.1143 59.5984 62.3112C59.3578 62.5081 57.9906 61.4581 58.264 59.6206C58.4225 58.8794 58.7755 58.1939 59.2869 57.6345C59.7982 57.0751 60.4494 56.662 61.1734 56.4378Z" fill="#E6E4DA"/>
</g>
</svg>
