<svg width="67" height="70" viewBox="0 0 67 70" fill="none" xmlns="http://www.w3.org/2000/svg">
<path id="Vector" d="M60.2652 0H44.9481C41.4516 0 38.6072 2.8432 38.6072 6.34088V9.33338H24.5524C23.2201 6.27908 21.617 3.32855 19.7445 0.519258C19.3106 -0.129473 18.236 -0.129473 17.8033 0.519258C11.5686 9.87014 8.27397 20.7528 8.27397 31.9925V33.5582L0.562208 48.9789C0.0372081 50.0313 0.017384 51.247 0.508478 52.3145C0.999708 53.3832 1.93527 54.1602 3.07633 54.4448L8.27383 55.7434V56C8.27383 56.6452 8.79527 57.1666 9.44045 57.1666H11.8706C11.5919 58.9166 11.9756 60.7354 12.9953 62.265L17.8031 69.4809C18.019 69.8052 18.3829 70 18.7726 70H18.7738C19.1635 70 19.5276 69.8052 19.7445 69.482L24.5511 62.2825C25.5731 60.7484 25.957 58.9237 25.6747 57.1666H28.1072C28.7512 57.1666 29.2738 56.6452 29.2738 56V55.7434L34.581 54.418C35.694 54.1393 36.6086 53.382 37.0881 52.3402C37.5676 51.2971 37.549 50.1095 37.0356 49.0816L29.2738 33.5579V31.9922C29.2738 26.6488 28.5201 21.3883 27.0688 16.3332H38.6072V22.75C38.6072 24.3588 39.9151 25.6666 41.5238 25.6666C41.8447 25.6666 42.1072 25.9291 42.1072 26.25V68.8334C42.1072 69.4786 42.6287 70 43.2738 70H47.9404V23.3334C47.2953 23.3334 46.7738 22.8119 46.7738 22.1668V11.6668C46.7738 8.45031 49.3906 5.83338 52.6072 5.83338C55.8226 5.83338 58.4406 8.45018 58.4406 11.6668V22.1668C58.4406 22.8119 57.9179 23.3334 57.274 23.3334V70H61.9406C62.5845 70 63.1072 69.4786 63.1072 68.8334V26.25C63.1072 25.9291 63.3685 25.6666 63.6906 25.6666C65.2983 25.6666 66.6072 24.3588 66.6072 22.75V6.34088C66.6072 2.8432 63.7617 0 60.2652 0ZM8.27383 42V46.6666V51.3332V53.3399L3.6433 52.1825C3.19186 52.0693 2.82313 51.7613 2.6283 51.3402C2.43457 50.919 2.44168 50.4372 2.64936 50.0231L8.27383 38.7752V42ZM29.2738 51.3334V46.6668V42V38.7754L34.9485 50.1259C35.1433 50.5168 35.1515 50.9682 34.9683 51.3637C34.7863 51.7603 34.4386 52.0475 34.0163 52.1536L29.2738 53.3389V51.3334ZM12.9406 24.7754C12.9406 22.6941 14.6345 21 16.7159 21H20.8308C22.9122 21 24.6072 22.6939 24.6072 24.7754V25.3914C24.6072 27.4727 22.912 29.1668 20.8308 29.1668H16.7159C14.6347 29.1668 12.9406 27.4728 12.9406 25.3914V24.7754ZM10.6072 36.1666H12.9406C13.5845 36.1666 14.1072 36.6881 14.1072 37.3332C14.1072 37.9784 13.5845 38.4999 12.9406 38.4999H10.6072V36.1666ZM10.6072 40.8334H15.2738C15.9178 40.8334 16.4404 41.3548 16.4404 42C16.4404 42.6452 15.9178 43.1666 15.2738 43.1666H10.6072V40.8334ZM10.6072 45.5H12.9406C13.5845 45.5 14.1072 46.0214 14.1072 46.6666C14.1072 47.3118 13.5845 47.8332 12.9406 47.8332H10.6072V45.5ZM10.6072 52.5V50.1666H15.2738C15.9178 50.1666 16.4404 50.6881 16.4404 51.3332C16.4404 51.9784 15.9179 52.5 15.2738 52.5H10.6072ZM22.6099 60.9863L18.7751 66.7309L14.9367 60.9711C14.176 59.8289 13.9345 58.4523 14.2449 57.1666H23.3006C23.6144 58.4582 23.3729 59.8418 22.6099 60.9863ZM26.9406 52.5H22.274C21.6288 52.5 21.1073 51.9786 21.1073 51.3334C21.1073 50.6882 21.6288 50.1668 22.274 50.1668H26.9406V52.5ZM26.9406 47.8334H24.6072C23.962 47.8334 23.4406 47.3119 23.4406 46.6668C23.4406 46.0216 23.962 45.5001 24.6072 45.5001H26.9406V47.8334ZM26.9406 43.1666H22.274C21.6288 43.1666 21.1073 42.6452 21.1073 42C21.1073 41.3548 21.6288 40.8334 22.274 40.8334H26.9406V43.1666ZM26.9406 38.5H24.6072C23.962 38.5 23.4406 37.9786 23.4406 37.3334C23.4406 36.6882 23.962 36.1668 24.6072 36.1668H26.9406V38.5ZM38.6072 14H26.3467C26.0854 13.2171 25.8112 12.4379 25.5149 11.6666H38.6072V14Z" fill="black"/>
</svg>
